<svg version="1.1" id="Layer_1" xmlns="http://www.w3.org/2000/svg" xmlns:xlink="http://www.w3.org/1999/xlink" x="0px" y="0px"
	 width="100%" viewBox="0 0 198 218" enable-background="new 0 0 198 218" xml:space="preserve">
<path fill="#0B0A0A" opacity="1.000000" stroke="none" 
	d="
M1.000000,87.000000 
	C1.000000,58.000008 1.000000,29.500013 1.000000,1.000015 
	C66.999977,1.000010 132.999954,1.000010 198.999954,1.000005 
	C198.999969,73.666626 198.999969,146.333252 198.999985,218.999908 
	C133.000061,218.999939 67.000114,218.999939 1.000083,218.999969 
	C1.000000,175.166672 1.000000,131.333328 1.000000,87.000000 
M96.215179,11.008594 
	C95.558960,11.089333 94.860962,11.052226 94.252556,11.267865 
	C73.151299,18.746769 52.112694,26.408482 30.924976,33.633015 
	C25.858742,35.360493 26.040154,38.292412 26.611183,42.406837 
	C28.184509,53.743069 29.539429,65.111237 30.852457,76.481575 
	C32.699883,92.479584 34.278511,108.511131 36.382832,124.474190 
	C36.688728,126.794685 38.806503,129.589142 40.883423,130.839844 
	C49.833763,136.229691 59.051311,141.181000 68.229248,146.186218 
	C76.951180,150.942764 85.744820,155.567810 94.848038,160.836227 
	C96.458275,160.606308 98.307854,160.812653 99.642540,160.080444 
	C117.268280,150.410950 134.773697,140.521286 152.437897,130.923508 
	C155.555588,129.229523 156.562622,126.923065 156.909180,123.798592 
	C157.933929,114.560356 158.982254,105.324532 160.073349,96.093918 
	C162.237350,77.786415 164.261948,59.459476 166.731827,41.192982 
	C167.430099,36.028633 164.842438,34.584373 160.886124,33.221088 
	C147.864532,28.734045 134.927261,24.002728 121.916695,19.482998 
	C113.639519,16.607595 105.289833,13.940941 96.215179,11.008594 
M41.716507,202.873627 
	C42.759811,201.804535 44.568192,200.823151 44.702705,199.649857 
	C45.103310,196.155563 44.846416,192.585876 44.846416,189.045654 
	C48.122669,192.852417 49.966099,197.063889 52.522587,200.785538 
	C53.416759,202.087265 56.034924,202.431305 57.934620,202.673950 
	C58.484856,202.744217 59.841537,200.957275 59.863247,199.999832 
	C60.028255,192.724365 59.953564,185.443481 59.953564,177.972153 
	C57.764854,177.972153 56.088211,177.972153 53.920223,177.972153 
	C53.920223,182.759033 53.920223,187.072739 53.920223,192.643600 
	C51.730221,188.370789 49.836052,185.445862 48.686615,182.252838 
	C46.940376,177.401947 43.844528,176.512344 38.922298,178.229294 
	C38.922298,185.583389 38.863007,193.029327 39.008820,200.471252 
	C39.024372,201.265091 40.238220,202.035461 41.716507,202.873627 
M79.304665,177.378540 
	C67.874290,175.126022 60.553482,183.927750 64.305450,195.411942 
	C66.757477,202.917221 77.270149,206.244797 83.930145,201.537155 
	C84.736404,200.967239 85.532249,199.798630 85.590996,198.861023 
	C85.794174,195.618286 85.669296,192.354996 85.669296,188.784424 
	C82.943993,188.784424 80.927696,188.516083 79.029648,188.874313 
	C77.656647,189.133438 76.440620,190.224350 75.154594,190.944305 
	C76.076271,192.013031 76.998917,193.080917 77.919319,194.150757 
	C78.580925,194.919785 79.239517,195.691422 79.899452,196.461899 
	C79.013664,197.024170 78.186913,197.927521 77.232407,198.092728 
	C71.529030,199.079834 69.536903,196.596115 69.825737,189.069687 
	C70.066246,182.802536 74.251114,179.869064 79.425987,183.053360 
	C83.045517,185.280594 83.779610,182.911789 86.443428,180.992325 
	C83.714180,179.499969 81.878494,178.496201 79.304665,177.378540 
M178.461899,202.788803 
	C177.743607,200.886673 177.258896,198.848633 176.250366,197.115387 
	C174.860397,194.726547 173.761017,193.175186 176.618149,190.534088 
	C180.807053,186.661896 178.520905,178.767792 173.112564,177.915146 
	C168.804962,177.236069 164.304825,177.778198 159.556686,177.778198 
	C159.556686,185.127914 159.717148,191.918274 159.502319,198.696762 
	C159.349884,203.506851 161.764999,203.224792 165.002731,202.340912 
	C165.245697,199.178665 165.461823,196.365891 165.677933,193.553116 
	C166.130692,193.427139 166.583435,193.301147 167.036179,193.175171 
	C168.594055,195.350159 169.876617,197.820435 171.794922,199.608810 
	C173.394531,201.100098 175.739594,201.791794 178.461899,202.788803 
M105.889969,183.650345 
	C105.887413,186.478729 105.821266,189.308838 105.898842,192.135025 
	C105.990166,195.462189 105.428558,198.114075 101.262718,198.280426 
	C96.645737,198.464798 96.250000,195.425491 96.240112,192.018402 
	C96.226692,187.395981 96.236771,182.773468 96.236771,177.860535 
	C94.055740,177.860535 92.349167,177.860535 90.261536,177.860535 
	C90.261536,181.852692 90.245766,185.478790 90.268150,189.104645 
	C90.279434,190.933838 90.231178,192.776886 90.432632,194.588898 
	C91.094292,200.540298 94.022614,203.174622 100.333611,203.655685 
	C106.418648,204.119507 110.452248,201.737152 111.163895,195.899734 
	C111.875023,190.066513 111.319946,184.078934 111.319946,177.940384 
	C110.563774,177.794617 109.763260,177.498108 108.973602,177.524689 
	C108.021774,177.556671 107.079170,177.862961 105.890480,178.098480 
	C105.890480,179.752823 105.890480,181.239166 105.889969,183.650345 
M138.928787,201.495163 
	C141.599579,196.872574 147.733582,196.547012 150.764786,200.564499 
	C151.792068,201.926025 153.972397,202.417572 155.625793,203.306671 
	C155.949921,202.852188 156.274033,202.397705 156.598145,201.943222 
	C154.182449,194.423737 151.823822,186.884766 149.270096,179.412445 
	C148.988937,178.589844 147.649902,177.747681 146.698105,177.605118 
	C143.541565,177.132370 141.140701,177.496140 140.100616,181.566132 
	C138.324921,188.514633 135.758331,195.261032 133.182724,203.135605 
	C135.817261,202.674179 137.178146,202.435806 138.928787,201.495163 
M21.096331,198.020798 
	C24.835821,198.076553 29.055622,196.605789 30.971184,201.883682 
	C31.248146,202.646774 33.948162,202.530426 36.416718,202.984833 
	C33.639706,194.396652 31.330185,186.843887 28.641670,179.428543 
	C28.281799,178.435974 26.013786,177.672119 24.615238,177.648727 
	C23.201454,177.625092 20.839304,178.317520 20.493933,179.274307 
	C17.777058,186.800873 15.444346,194.466095 13.032958,201.965363 
	C18.092087,204.800720 18.505383,200.382904 21.096331,198.020798 
M122.114799,185.683777 
	C122.114799,183.099899 122.114799,180.516037 122.114799,177.794037 
	C119.951706,177.794037 118.532890,177.794037 117.166656,177.794037 
	C117.166656,186.244064 117.166656,194.430511 117.166656,202.493271 
	C122.489563,202.493271 127.398254,202.493271 132.753693,202.493271 
	C132.467926,200.731918 132.249268,199.384186 131.990753,197.790894 
	C128.589706,197.790894 125.627747,197.790894 122.114563,197.790894 
	C122.114563,193.860367 122.114563,190.246414 122.114799,185.683777 
z"/>
<path fill="#DC0A37" opacity="1.000000" stroke="none" 
	d="
M94.506920,160.250687 
	C85.744820,155.567810 76.951180,150.942764 68.229248,146.186218 
	C59.051311,141.181000 49.833763,136.229691 40.883423,130.839844 
	C38.806503,129.589142 36.688728,126.794685 36.382832,124.474190 
	C34.278511,108.511131 32.699883,92.479584 30.852457,76.481575 
	C29.539429,65.111237 28.184509,53.743069 26.611183,42.406837 
	C26.040154,38.292412 25.858742,35.360493 30.924976,33.633015 
	C52.112694,26.408482 73.151299,18.746769 94.252556,11.267865 
	C94.860962,11.052226 95.558960,11.089333 96.595520,11.548828 
	C96.967430,17.445992 96.959000,22.802917 96.689972,28.358673 
	C95.995552,29.028772 95.398361,29.427267 95.151337,29.981762 
	C83.077377,57.083740 71.031372,84.198181 58.988464,111.313988 
	C56.936890,115.933319 54.912834,120.564865 52.589840,125.840851 
	C57.383644,125.840851 61.354458,125.725273 65.314568,125.881279 
	C67.976837,125.986145 69.518822,125.306175 70.442360,122.478256 
	C72.085411,117.447159 74.362198,112.626808 76.204048,107.655380 
	C77.247902,104.837891 78.723068,103.408951 82.029388,103.666481 
	C86.992989,104.053101 91.998070,103.907074 96.986435,104.456970 
	C96.988602,121.647270 97.062332,138.368912 96.882362,155.087830 
	C96.863747,156.817108 95.334976,158.530121 94.506920,160.250687 
z"/>
<path fill="#C30A36" opacity="1.000000" stroke="none" 
	d="
M94.677475,160.543457 
	C95.334976,158.530121 96.863747,156.817108 96.882362,155.087830 
	C97.062332,138.368912 96.988602,121.647270 97.446976,104.356216 
	C102.239151,103.771828 106.595871,104.032738 110.896530,103.655128 
	C114.250908,103.360588 115.619164,104.915176 116.657616,107.667908 
	C118.589783,112.789696 120.605972,117.885101 122.795929,122.900337 
	C123.299767,124.054199 124.599838,125.600334 125.615356,125.664215 
	C130.304260,125.959167 135.022064,125.794373 140.356750,125.794373 
	C125.617928,92.641998 111.284241,60.400921 96.950562,28.159845 
	C96.959000,22.802917 96.967430,17.445992 96.974258,11.634872 
	C105.289833,13.940941 113.639519,16.607595 121.916695,19.482998 
	C134.927261,24.002728 147.864532,28.734045 160.886124,33.221088 
	C164.842438,34.584373 167.430099,36.028633 166.731827,41.192982 
	C164.261948,59.459476 162.237350,77.786415 160.073349,96.093918 
	C158.982254,105.324532 157.933929,114.560356 156.909180,123.798592 
	C156.562622,126.923065 155.555588,129.229523 152.437897,130.923508 
	C134.773697,140.521286 117.268280,150.410950 99.642540,160.080444 
	C98.307854,160.812653 96.458275,160.606308 94.677475,160.543457 
z"/>
<path fill="#DCDCDC" opacity="1.000000" stroke="none" 
	d="
M41.306343,202.845169 
	C40.238220,202.035461 39.024372,201.265091 39.008820,200.471252 
	C38.863007,193.029327 38.922298,185.583389 38.922298,178.229294 
	C43.844528,176.512344 46.940376,177.401947 48.686615,182.252838 
	C49.836052,185.445862 51.730221,188.370789 53.920223,192.643600 
	C53.920223,187.072739 53.920223,182.759033 53.920223,177.972153 
	C56.088211,177.972153 57.764854,177.972153 59.953564,177.972153 
	C59.953564,185.443481 60.028255,192.724365 59.863247,199.999832 
	C59.841537,200.957275 58.484856,202.744217 57.934620,202.673950 
	C56.034924,202.431305 53.416759,202.087265 52.522587,200.785538 
	C49.966099,197.063889 48.122669,192.852417 44.846416,189.045654 
	C44.846416,192.585876 45.103310,196.155563 44.702705,199.649857 
	C44.568192,200.823151 42.759811,201.804535 41.306343,202.845169 
z"/>
<path fill="#DDDDDD" opacity="1.000000" stroke="none" 
	d="
M79.673737,177.435486 
	C81.878494,178.496201 83.714180,179.499969 86.443428,180.992325 
	C83.779610,182.911789 83.045517,185.280594 79.425987,183.053360 
	C74.251114,179.869064 70.066246,182.802536 69.825737,189.069687 
	C69.536903,196.596115 71.529030,199.079834 77.232407,198.092728 
	C78.186913,197.927521 79.013664,197.024170 79.899460,196.461899 
	C79.239517,195.691422 78.580925,194.919785 77.919319,194.150757 
	C76.998917,193.080917 76.076271,192.013031 75.154594,190.944305 
	C76.440620,190.224350 77.656647,189.133438 79.029648,188.874313 
	C80.927696,188.516083 82.943993,188.784424 85.669296,188.784424 
	C85.669296,192.354996 85.794174,195.618286 85.590996,198.861023 
	C85.532249,199.798630 84.736404,200.967239 83.930145,201.537155 
	C77.270149,206.244797 66.757477,202.917221 64.305450,195.411942 
	C60.553482,183.927750 67.874290,175.126022 79.673737,177.435486 
z"/>
<path fill="#E8E8E8" opacity="1.000000" stroke="none" 
	d="
M178.108185,202.813217 
	C175.739594,201.791794 173.394531,201.100098 171.794922,199.608810 
	C169.876617,197.820435 168.594055,195.350159 167.036179,193.175171 
	C166.583435,193.301147 166.130692,193.427139 165.677933,193.553116 
	C165.461823,196.365891 165.245697,199.178665 165.002731,202.340912 
	C161.764999,203.224792 159.349884,203.506851 159.502319,198.696762 
	C159.717148,191.918274 159.556686,185.127914 159.556686,177.778198 
	C164.304825,177.778198 168.804962,177.236069 173.112564,177.915146 
	C178.520905,178.767792 180.807053,186.661896 176.618149,190.534088 
	C173.761017,193.175186 174.860397,194.726547 176.250366,197.115387 
	C177.258896,198.848633 177.743607,200.886673 178.108185,202.813217 
M167.679153,188.705154 
	C170.439484,188.736679 173.790009,188.759811 172.952637,184.841675 
	C172.037766,180.561050 168.375641,182.557236 164.315994,182.317810 
	C165.371567,184.963852 166.110840,186.817047 167.679153,188.705154 
z"/>
<path fill="#DBDBDB" opacity="1.000000" stroke="none" 
	d="
M105.890228,183.187927 
	C105.890480,181.239166 105.890480,179.752823 105.890480,178.098480 
	C107.079170,177.862961 108.021774,177.556671 108.973602,177.524689 
	C109.763260,177.498108 110.563774,177.794617 111.319946,177.940384 
	C111.319946,184.078934 111.875023,190.066513 111.163895,195.899734 
	C110.452248,201.737152 106.418648,204.119507 100.333611,203.655685 
	C94.022614,203.174622 91.094292,200.540298 90.432632,194.588898 
	C90.231178,192.776886 90.279434,190.933838 90.268150,189.104645 
	C90.245766,185.478790 90.261536,181.852692 90.261536,177.860535 
	C92.349167,177.860535 94.055740,177.860535 96.236771,177.860535 
	C96.236771,182.773468 96.226692,187.395981 96.240112,192.018402 
	C96.250000,195.425491 96.645737,198.464798 101.262718,198.280426 
	C105.428558,198.114075 105.990166,195.462189 105.898842,192.135025 
	C105.821266,189.308838 105.887413,186.478729 105.890228,183.187927 
z"/>
<path fill="#E3E3E3" opacity="1.000000" stroke="none" 
	d="
M138.733917,201.846313 
	C137.178146,202.435806 135.817261,202.674179 133.182724,203.135605 
	C135.758331,195.261032 138.324921,188.514633 140.100616,181.566132 
	C141.140701,177.496140 143.541565,177.132370 146.698105,177.605118 
	C147.649902,177.747681 148.988937,178.589844 149.270096,179.412445 
	C151.823822,186.884766 154.182449,194.423737 156.598145,201.943222 
	C156.274033,202.397705 155.949921,202.852188 155.625793,203.306671 
	C153.972397,202.417572 151.792068,201.926025 150.764786,200.564499 
	C147.733582,196.547012 141.599579,196.872574 138.733917,201.846313 
M145.972443,185.991699 
	C144.381424,188.044022 142.790405,190.096344 140.508438,193.039963 
	C144.028107,193.039963 145.922363,193.039963 148.194412,193.039963 
	C147.501358,190.682220 146.908875,188.666656 145.972443,185.991699 
z"/>
<path fill="#E5E5E5" opacity="1.000000" stroke="none" 
	d="
M20.690742,198.146973 
	C18.505383,200.382904 18.092087,204.800720 13.032958,201.965363 
	C15.444346,194.466095 17.777058,186.800873 20.493933,179.274307 
	C20.839304,178.317520 23.201454,177.625092 24.615238,177.648727 
	C26.013786,177.672119 28.281799,178.435974 28.641670,179.428543 
	C31.330185,186.843887 33.639706,194.396652 36.416718,202.984833 
	C33.948162,202.530426 31.248146,202.646774 30.971184,201.883682 
	C29.055622,196.605789 24.835821,198.076553 20.690742,198.146973 
M25.021519,185.734833 
	C23.640087,187.937195 22.258654,190.139572 20.447727,193.026657 
	C23.734192,193.026657 25.616602,193.026657 27.810116,193.026657 
	C26.980993,190.529541 26.268312,188.383102 25.021519,185.734833 
z"/>
<path fill="#E9E9E9" opacity="1.000000" stroke="none" 
	d="
M122.114685,186.158112 
	C122.114563,190.246414 122.114563,193.860367 122.114563,197.790894 
	C125.627747,197.790894 128.589706,197.790894 131.990753,197.790894 
	C132.249268,199.384186 132.467926,200.731918 132.753693,202.493271 
	C127.398254,202.493271 122.489563,202.493271 117.166656,202.493271 
	C117.166656,194.430511 117.166656,186.244064 117.166656,177.794037 
	C118.532890,177.794037 119.951706,177.794037 122.114799,177.794037 
	C122.114799,180.516037 122.114799,183.099899 122.114685,186.158112 
z"/>
<path fill="#FDF5F6" opacity="1.000000" stroke="none" 
	d="
M96.689972,28.358673 
	C111.284241,60.400921 125.617928,92.641998 140.356750,125.794373 
	C135.022064,125.794373 130.304260,125.959167 125.615356,125.664215 
	C124.599838,125.600334 123.299767,124.054199 122.795929,122.900337 
	C120.605972,117.885101 118.589783,112.789696 116.657616,107.667908 
	C115.619164,104.915176 114.250908,103.360588 110.896530,103.655128 
	C106.595871,104.032738 102.239151,103.771828 97.446045,103.886780 
	C91.998070,103.907074 86.992989,104.053101 82.029388,103.666481 
	C78.723068,103.408951 77.247902,104.837891 76.204048,107.655380 
	C74.362198,112.626808 72.085411,117.447159 70.442360,122.478256 
	C69.518822,125.306175 67.976837,125.986145 65.314568,125.881279 
	C61.354458,125.725273 57.383644,125.840851 52.589840,125.840851 
	C54.912834,120.564865 56.936890,115.933319 58.988464,111.313988 
	C71.031372,84.198181 83.077377,57.083740 95.151337,29.981762 
	C95.398361,29.427267 95.995552,29.028772 96.689972,28.358673 
M96.919312,89.908432 
	C100.787239,89.908432 104.655159,89.908432 109.215279,89.908432 
	C105.132408,80.277977 101.466484,71.631012 97.804359,62.348217 
	C96.927200,62.367695 95.408218,62.113804 95.266502,62.446529 
	C91.470322,71.359238 87.815704,80.332237 83.990372,89.652580 
	C88.476669,89.652580 92.254539,89.652580 96.919312,89.908432 
z"/>
<path fill="#2E2E2E" opacity="1.000000" stroke="none" 
	d="
M167.264648,188.687698 
	C166.110840,186.817047 165.371567,184.963852 164.315994,182.317810 
	C168.375641,182.557236 172.037766,180.561050 172.952637,184.841675 
	C173.790009,188.759811 170.439484,188.736679 167.264648,188.687698 
z"/>
<path fill="#3B3B3B" opacity="1.000000" stroke="none" 
	d="
M146.144409,186.321396 
	C146.908875,188.666656 147.501358,190.682220 148.194412,193.039963 
	C145.922363,193.039963 144.028107,193.039963 140.508438,193.039963 
	C142.790405,190.096344 144.381424,188.044022 146.144409,186.321396 
z"/>
<path fill="#3E3E3E" opacity="1.000000" stroke="none" 
	d="
M25.288574,185.985748 
	C26.268312,188.383102 26.980993,190.529541 27.810116,193.026657 
	C25.616602,193.026657 23.734192,193.026657 20.447727,193.026657 
	C22.258654,190.139572 23.640087,187.937195 25.288574,185.985748 
z"/>
<path fill="#C71238" opacity="1.000000" stroke="none" 
	d="
M97.800568,62.984051 
	C101.466484,71.631012 105.132408,80.277977 109.215279,89.908432 
	C104.655159,89.908432 100.787239,89.908432 96.467789,89.335571 
	C96.006889,81.686859 95.892937,74.608391 96.070786,67.537254 
	C96.109306,66.005989 97.196426,64.501091 97.800568,62.984051 
z"/>
<path fill="#DE2042" opacity="1.000000" stroke="none" 
	d="
M97.802460,62.666134 
	C97.196426,64.501091 96.109306,66.005989 96.070786,67.537254 
	C95.892937,74.608391 96.006889,81.686859 96.024338,89.207642 
	C92.254539,89.652580 88.476669,89.652580 83.990372,89.652580 
	C87.815704,80.332237 91.470322,71.359238 95.266502,62.446529 
	C95.408218,62.113804 96.927200,62.367695 97.802460,62.666134 
z"/>
</svg>