<svg version="1.1" id="Layer_1" xmlns="http://www.w3.org/2000/svg" xmlns:xlink="http://www.w3.org/1999/xlink" x="0px" y="0px"
	 width="100%" viewBox="0 0 197 192" enable-background="new 0 0 197 192" xml:space="preserve">
<path fill="#9E5699" opacity="1.000000" stroke="none" 
	d="
M14.000001,193.000000 
	C9.672009,193.000000 5.344018,193.000000 1.012021,193.000000 
	C1.008014,129.084244 1.008014,65.168503 1.008014,1.126374 
	C66.666451,1.126374 132.333221,1.126374 198.000000,1.126374 
	C198.000000,2.002499 198.000000,3.001250 197.666107,4.574247 
	C195.794220,6.366471 194.103592,7.435050 192.742310,8.825984 
	C181.533920,20.278667 170.424057,31.828030 159.177658,43.243004 
	C157.621902,44.822086 155.482635,45.826302 153.304123,47.004795 
	C132.815292,27.252947 96.303314,24.992268 72.229126,37.918194 
	C44.881176,52.601868 32.364208,82.363731 39.810818,113.542793 
	C42.869511,126.349586 49.435520,137.124023 58.262440,146.713547 
	C43.853039,161.301575 29.722191,175.629807 15.642609,190.008255 
	C14.876072,190.791061 14.537689,191.993103 14.000001,193.000000 
z"/>
<path fill="#863E8C" opacity="1.000000" stroke="none" 
	d="
M153.613495,47.096649 
	C155.482635,45.826302 157.621902,44.822086 159.177658,43.243004 
	C170.424057,31.828030 181.533920,20.278667 192.742310,8.825984 
	C194.103592,7.435050 195.794220,6.366471 197.666107,5.074247 
	C198.000000,63.687561 198.000000,122.375122 197.668289,181.450760 
	C195.794128,180.614578 194.120880,179.522385 192.730103,178.144989 
	C182.358826,167.873489 172.122559,157.463730 161.632294,147.316147 
	C159.895676,145.636246 157.125412,145.024902 154.836746,143.572479 
	C153.898651,141.954361 153.106979,140.529419 151.989227,139.438629 
	C146.348282,133.933807 140.622406,128.515991 134.805923,122.798965 
	C128.279602,115.692276 121.862358,108.864838 115.474754,102.009781 
	C113.595345,99.992844 111.799858,97.897713 109.989655,95.488747 
	C112.835640,91.770241 115.573318,88.325867 118.499283,85.049660 
	C123.304436,79.669312 128.231735,74.398048 133.450928,68.916290 
	C139.950577,62.701702 146.147705,56.692017 152.214096,50.553154 
	C153.020599,49.737007 153.163345,48.264946 153.613495,47.096649 
M148.419266,86.491707 
	C148.696793,88.388321 148.648071,91.794868 149.304733,91.936752 
	C153.601105,92.865112 152.493927,95.241570 151.641373,97.844803 
	C149.835785,98.096489 148.228882,98.320480 146.381805,98.577950 
	C146.381805,100.511581 146.381805,102.222153 146.381805,103.868477 
	C148.071701,104.295761 149.459518,104.646660 150.799164,104.985382 
	C150.392334,108.978966 150.018127,112.652374 149.632629,116.436623 
	C160.672012,117.751328 154.747421,108.117630 158.649628,104.696999 
	C166.129395,106.690331 158.444336,112.863075 162.326859,116.452507 
	C163.203949,116.491348 164.945618,116.568466 167.084427,116.663170 
	C167.638702,113.775032 167.973572,111.145317 168.699341,108.628319 
	C169.052811,107.402466 170.012451,106.271217 170.918594,105.304131 
	C172.203903,103.932350 174.866974,102.694130 174.808609,101.503365 
	C174.729370,99.886597 172.634415,98.368637 170.744980,95.972595 
	C170.830765,93.411362 170.830765,93.411362 176.191299,91.438324 
	C178.419342,87.047234 175.163651,86.028458 171.973282,85.007614 
	C172.331467,81.496162 172.664474,78.231720 172.992783,75.013237 
	C167.308090,73.348488 166.710007,73.703369 165.971420,78.905952 
	C165.784683,80.221413 165.765366,81.644218 165.213959,82.800682 
	C164.669388,83.942818 163.548691,84.810257 162.680725,85.798195 
	C162.126785,84.658852 161.121506,83.523781 161.110703,82.379311 
	C161.086502,79.816811 161.557281,77.249641 161.814606,74.797630 
	C156.906952,73.060570 154.793457,74.429565 154.537888,79.210091 
	C154.359390,82.548851 154.494614,86.649940 148.419266,86.491707 
z"/>
<path fill="#6E297F" opacity="1.000000" stroke="none" 
	d="
M154.832809,143.919754 
	C157.125412,145.024902 159.895676,145.636246 161.632294,147.316147 
	C172.122559,157.463730 182.358826,167.873489 192.730103,178.144989 
	C194.120880,179.522385 195.794128,180.614578 197.668289,181.919418 
	C198.000000,185.658417 198.000000,189.316849 198.000000,193.000000 
	C136.979111,193.000000 75.958214,193.000000 14.468658,193.000000 
	C14.537689,191.993103 14.876072,190.791061 15.642609,190.008255 
	C29.722191,175.629807 43.853039,161.301575 58.567261,146.853851 
	C76.034439,161.227783 95.784737,165.445511 117.358467,162.902878 
	C132.136139,161.161224 144.319336,154.152954 154.832809,143.919754 
z"/>
<path fill="#FDFCFD" opacity="1.000000" stroke="none" 
	d="
M154.836746,143.572479 
	C144.319336,154.152954 132.136139,161.161224 117.358467,162.902878 
	C95.784737,165.445511 76.034439,161.227783 58.856670,146.604706 
	C49.435520,137.124023 42.869511,126.349586 39.810818,113.542793 
	C32.364208,82.363731 44.881176,52.601868 72.229126,37.918194 
	C96.303314,24.992268 132.815292,27.252947 153.304123,47.004791 
	C153.163345,48.264946 153.020599,49.737007 152.214096,50.553154 
	C146.147705,56.692017 139.950577,62.701702 133.234192,68.591492 
	C123.252068,58.145947 111.318199,55.694557 98.512329,59.069256 
	C71.009926,66.316887 61.810558,103.799248 82.228622,125.142708 
	C95.892189,137.510574 113.740959,138.957748 127.679253,129.004288 
	C130.214981,127.193512 132.516632,125.054924 134.926331,123.067657 
	C140.622406,128.515991 146.348282,133.933807 151.989227,139.438629 
	C153.106979,140.529419 153.898651,141.954361 154.836746,143.572479 
z"/>
<path fill="#9F579A" opacity="1.000000" stroke="none" 
	d="
M82.037262,124.861198 
	C61.810558,103.799248 71.009926,66.316887 98.512329,59.069256 
	C111.318199,55.694557 123.252068,58.145947 132.890793,68.755997 
	C128.231735,74.398048 123.304436,79.669312 118.499283,85.049660 
	C115.573318,88.325867 112.835640,91.770241 109.630974,95.537399 
	C108.115227,96.567711 106.755707,96.977890 105.884155,97.866600 
	C98.543724,105.351532 91.245163,112.879478 84.067352,120.519768 
	C83.027931,121.626144 82.696381,123.397537 82.037262,124.861198 
z"/>
<path fill="#6F2A7F" opacity="1.000000" stroke="none" 
	d="
M82.228622,125.142708 
	C82.696381,123.397537 83.027931,121.626144 84.067352,120.519768 
	C91.245163,112.879478 98.543724,105.351532 105.884155,97.866600 
	C106.755707,96.977890 108.115227,96.567711 109.607239,95.887070 
	C111.799858,97.897713 113.595345,99.992844 115.474754,102.009781 
	C121.862358,108.864838 128.279602,115.692276 134.805923,122.798965 
	C132.516632,125.054924 130.214981,127.193512 127.679253,129.004288 
	C113.740959,138.957748 95.892189,137.510574 82.228622,125.142708 
z"/>
<path fill="#F6F0F6" opacity="1.000000" stroke="none" 
	d="
M148.763199,86.306450 
	C154.494614,86.649940 154.359390,82.548851 154.537888,79.210091 
	C154.793457,74.429565 156.906952,73.060570 161.814606,74.797630 
	C161.557281,77.249641 161.086502,79.816811 161.110703,82.379311 
	C161.121506,83.523781 162.126785,84.658852 162.680725,85.798195 
	C163.548691,84.810257 164.669388,83.942818 165.213959,82.800682 
	C165.765366,81.644218 165.784683,80.221413 165.971420,78.905952 
	C166.710007,73.703369 167.308090,73.348488 172.992783,75.013237 
	C172.664474,78.231720 172.331467,81.496162 171.973282,85.007614 
	C175.163651,86.028458 178.419342,87.047234 176.191299,91.438324 
	C170.830765,93.411362 170.830765,93.411362 170.744980,95.972595 
	C172.634415,98.368637 174.729370,99.886597 174.808609,101.503365 
	C174.866974,102.694130 172.203903,103.932350 170.918594,105.304131 
	C170.012451,106.271217 169.052811,107.402466 168.699341,108.628319 
	C167.973572,111.145317 167.638702,113.775032 167.084427,116.663170 
	C164.945618,116.568466 163.203949,116.491348 162.326859,116.452507 
	C158.444336,112.863075 166.129395,106.690331 158.649628,104.696999 
	C154.747421,108.117630 160.672012,117.751328 149.632629,116.436623 
	C150.018127,112.652374 150.392334,108.978966 150.799164,104.985382 
	C149.459518,104.646660 148.071701,104.295761 146.381805,103.868477 
	C146.381805,102.222153 146.381805,100.511581 146.381805,98.577950 
	C148.228882,98.320480 149.835785,98.096489 151.641373,97.844803 
	C152.493927,95.241570 153.601105,92.865112 149.304733,91.936752 
	C148.648071,91.794868 148.696793,88.388321 148.763199,86.306450 
M159.591141,93.349762 
	C159.138458,95.268356 157.458801,97.781609 161.094543,98.068207 
	C161.936569,98.134567 163.567902,96.177528 163.754959,94.982368 
	C164.214981,92.042961 162.375809,91.771088 159.591141,93.349762 
z"/>
<path fill="#9E64A2" opacity="1.000000" stroke="none" 
	d="
M159.836838,93.029770 
	C162.375809,91.771088 164.214981,92.042961 163.754959,94.982368 
	C163.567902,96.177528 161.936569,98.134567 161.094543,98.068207 
	C157.458801,97.781609 159.138458,95.268356 159.836838,93.029770 
z"/>
</svg>