<svg version="1.1" id="Layer_1" xmlns="http://www.w3.org/2000/svg" xmlns:xlink="http://www.w3.org/1999/xlink" x="0px" y="0px"
	 width="100%" viewBox="0 0 225 167" enable-background="new 0 0 225 167" xml:space="preserve">
<path fill="#744AA0" opacity="1.000000" stroke="none" 
	d="
M0.999999,94.000000 
	C1.000000,63.107166 1.000000,32.214333 1.000000,1.000000 
	C12.018810,1.000000 23.040747,1.000000 34.600906,1.335498 
	C35.773281,2.622537 36.270420,3.710532 37.061970,4.505316 
	C50.721329,18.220470 64.397362,31.919266 78.141365,45.549427 
	C79.255959,46.654797 80.890427,47.235962 82.409607,48.511074 
	C82.438972,61.296734 82.342056,73.632034 81.902298,86.055336 
	C80.976616,86.529289 80.393784,86.915237 79.527344,87.104362 
	C66.859222,67.637917 54.505299,48.348427 42.031113,29.137030 
	C41.052048,27.629185 39.327511,25.789177 37.788105,25.626059 
	C34.247932,25.250935 30.608246,25.814949 26.935814,26.120146 
	C26.760595,26.523001 26.819275,26.779224 27.142506,27.469246 
	C27.246292,53.564655 27.246292,79.201950 27.246292,105.515900 
	C31.025925,105.249054 34.100445,105.031990 37.333218,104.737518 
	C37.556423,104.564835 37.698124,104.425186 37.673111,104.381935 
	C37.561066,104.188164 37.401554,104.021851 37.161423,103.395844 
	C37.125305,83.276527 37.186932,63.606983 37.795609,43.939827 
	C39.071499,43.921242 39.800339,43.900269 40.753952,44.109859 
	C53.359421,63.451607 65.794403,82.528091 78.059059,101.713455 
	C79.788544,104.418854 81.613487,105.828468 84.867218,105.407890 
	C87.320358,105.090805 89.816246,105.104408 92.604660,104.765182 
	C93.268723,103.666756 93.922287,102.775917 93.928085,101.880875 
	C94.002434,90.408348 94.028015,78.934822 93.921661,67.462875 
	C93.911011,66.313431 92.957260,65.172722 92.340111,63.625175 
	C92.305801,62.124241 92.372566,61.026085 92.699966,59.925159 
	C93.301323,59.991596 93.642036,60.060810 94.134552,60.425117 
	C99.829010,66.166885 105.371681,71.613556 111.160149,77.290192 
	C111.761444,77.795563 112.116943,78.070976 112.616806,78.774033 
	C112.761185,87.776825 112.761185,96.351982 112.761185,105.671761 
	C122.378731,105.671761 131.153442,105.671761 140.010483,106.023087 
	C140.395813,106.957504 140.575256,107.665207 141.019592,108.105759 
	C159.432800,126.362358 177.887177,144.577515 196.270950,162.863632 
	C197.751816,164.336639 198.767929,166.276871 200.000000,168.000000 
	C133.778458,168.000000 67.556900,168.000000 1.000000,168.000000 
	C1.000000,147.980347 1.000000,127.958832 1.296258,107.153519 
	C7.665590,106.737625 10.892115,104.594742 10.854460,100.218422 
	C10.818394,96.026749 8.068026,94.215462 1.924162,94.307388 
	C1.617709,94.311981 1.308125,94.107262 0.999999,94.000000 
M160.079742,160.951538 
	C161.031784,159.779175 161.983826,158.606796 162.935867,157.434418 
	C153.330429,159.840698 146.078125,158.432907 146.856979,149.329437 
	C152.652374,149.329437 158.529709,149.329437 164.295288,149.329437 
	C165.297684,141.122604 162.026627,135.602081 155.963821,134.382965 
	C149.914398,133.166534 143.994019,137.077682 141.908173,143.668518 
	C138.135223,155.590210 146.520859,164.044479 160.079742,160.951538 
M68.957848,126.272842 
	C67.758141,127.165680 66.463188,127.956055 65.374428,128.968231 
	C59.004971,134.889572 57.432362,146.143936 61.837753,153.852203 
	C65.864616,160.898148 74.359299,163.918732 83.251366,161.397949 
	C85.601448,160.731750 88.175407,160.042816 86.481682,156.494995 
	C79.479095,158.414368 72.537971,160.008759 67.410835,153.488663 
	C63.111115,148.020798 63.048721,141.540100 66.060745,135.531906 
	C70.525253,126.626366 78.464508,126.901749 87.261589,128.527328 
	C86.188782,126.537689 84.733635,124.482750 83.300842,124.498222 
	C78.735527,124.547508 74.178520,125.366722 68.957848,126.272842 
M103.045235,134.241226 
	C101.647606,134.750183 100.167091,135.103287 98.866661,135.794968 
	C93.151749,138.834595 90.523026,146.401840 92.740417,153.155151 
	C94.790092,159.397659 100.521095,162.906448 107.140938,161.971802 
	C114.209969,160.973740 118.923050,154.662292 118.480576,146.786484 
	C118.013565,138.474106 112.966202,134.112747 103.045235,134.241226 
M129.673782,147.767136 
	C130.240936,140.512161 131.135361,139.554001 139.068527,138.263977 
	C138.603607,137.040680 138.042740,134.937637 137.781326,134.974228 
	C135.190140,135.336853 132.648514,136.053528 130.396927,136.596695 
	C128.904846,136.028381 127.296265,135.415726 125.255356,134.638382 
	C125.255356,144.056931 125.255356,152.611877 125.255356,161.166824 
	C125.746391,161.456009 126.237427,161.745209 126.728455,162.034393 
	C127.703445,160.750916 129.328842,159.557236 129.520920,158.165695 
	C129.949387,155.061676 129.662216,151.858856 129.673782,147.767136 
z"/>
<path fill="#623595" opacity="1.000000" stroke="none" 
	d="
M110.914345,77.060242 
	C105.371681,71.613556 99.829010,66.166885 94.140045,59.941986 
	C93.996208,49.889767 94.086678,40.614235 93.924339,31.343126 
	C93.893127,29.560369 92.869576,27.794989 91.935791,25.832624 
	C90.583778,25.579819 89.587753,25.592251 88.617851,25.439167 
	C83.990585,24.708824 82.120850,26.336485 82.457176,31.291698 
	C82.834564,36.851818 82.377388,42.468590 82.283318,48.060711 
	C80.890427,47.235962 79.255959,46.654797 78.141365,45.549427 
	C64.397362,31.919266 50.721329,18.220470 37.061970,4.505316 
	C36.270420,3.710532 35.773281,2.622537 35.069565,1.335498 
	C98.594063,1.000000 162.188126,1.000000 225.891098,1.000000 
	C225.891098,56.666534 225.891098,112.333229 225.891098,168.000000 
	C217.584991,168.000000 209.261154,168.000000 200.468658,168.000000 
	C198.767929,166.276871 197.751816,164.336639 196.270950,162.863632 
	C177.887177,144.577515 159.432800,126.362358 141.019592,108.105759 
	C140.575256,107.665207 140.395813,106.957504 140.456741,105.906250 
	C145.677948,105.438095 150.535233,105.438095 156.024689,105.438095 
	C155.784561,101.942719 155.598007,99.227325 155.041656,96.233047 
	C149.277100,95.634834 143.883362,95.102470 138.487198,95.076576 
	C135.281998,95.061195 132.072983,95.843544 128.426117,96.406754 
	C125.691170,96.418709 122.627563,97.664078 122.696083,93.437454 
	C122.817329,85.957893 122.885269,78.477470 123.445793,70.994820 
	C131.203201,70.994881 138.493515,71.114540 145.775116,70.915413 
	C147.528488,70.867470 149.252960,69.762917 151.196182,68.816757 
	C151.355865,65.761467 151.310074,63.033695 150.899017,60.051926 
	C141.679459,59.881649 132.825165,59.965363 123.539162,59.906197 
	C122.934921,53.304836 122.660545,46.846519 122.649895,40.387772 
	C122.646561,38.364632 123.353516,36.340317 124.054489,34.637871 
	C133.372635,35.188152 142.371170,35.448372 151.371597,35.578995 
	C152.003143,35.588158 152.648605,34.639019 153.419556,33.838058 
	C153.423828,30.781641 153.296127,28.022663 152.816833,25.009975 
	C140.031403,24.640984 127.597618,24.517799 115.163551,24.444405 
	C114.743172,24.441923 114.319824,24.940899 113.735771,25.409309 
	C113.262680,25.750912 112.951668,25.889345 112.506554,26.078960 
	C112.246094,26.204538 112.119736,26.278934 111.993385,26.353329 
	C112.141930,26.558167 112.290466,26.763002 112.594269,27.414892 
	C112.647041,43.945618 112.544548,60.029293 112.170868,76.242416 
	C111.571236,76.601326 111.242790,76.830780 110.914345,77.060242 
M162.988495,26.126188 
	C162.988495,28.580132 162.988495,31.034077 162.988495,34.112305 
	C170.736069,34.112305 178.119125,34.112305 186.050262,34.112305 
	C186.050262,58.105843 186.050262,81.477127 186.050262,105.104523 
	C189.368484,105.104523 192.117188,105.104523 195.394806,105.104523 
	C195.394806,81.465546 195.394806,58.072952 195.394806,33.974350 
	C203.441406,33.974350 210.992386,33.974350 218.592743,33.974350 
	C218.592743,30.829506 218.592743,28.404358 218.592743,25.428942 
	C216.392822,25.428942 214.429001,25.437952 212.465256,25.427521 
	C196.326248,25.341801 180.187241,25.252464 163.788284,25.041756 
	C163.487885,25.001259 163.259308,25.126860 162.988495,26.126188 
z"/>
<path fill="#F4F1F8" opacity="1.000000" stroke="none" 
	d="
M0.999999,94.463181 
	C1.308125,94.107262 1.617709,94.311981 1.924162,94.307388 
	C8.068026,94.215462 10.818394,96.026749 10.854460,100.218422 
	C10.892115,104.594742 7.665590,106.737625 1.296258,106.684860 
	C1.000000,102.975456 1.000000,98.950912 0.999999,94.463181 
z"/>
<path fill="#F8F6FA" opacity="1.000000" stroke="none" 
	d="
M82.409607,48.511074 
	C82.377388,42.468590 82.834564,36.851818 82.457176,31.291698 
	C82.120850,26.336485 83.990585,24.708824 88.617851,25.439167 
	C89.587753,25.592251 90.583778,25.579819 91.903473,26.299183 
	C92.305893,37.945786 92.372612,48.936859 92.439331,59.927933 
	C92.372566,61.026085 92.305801,62.124241 92.257858,64.085548 
	C92.282166,78.289406 92.287636,91.630112 92.293106,104.970810 
	C89.816246,105.104408 87.320358,105.090805 84.867218,105.407890 
	C81.613487,105.828468 79.788544,104.418854 78.059059,101.713455 
	C65.794403,82.528091 53.359421,63.451607 40.528908,43.692326 
	C39.630180,42.187500 39.181267,41.330772 38.732353,40.474045 
	C38.361290,40.730003 37.990227,40.985958 37.619164,41.241913 
	C37.495628,42.140423 37.372097,43.038933 37.248558,43.937443 
	C37.186932,63.606983 37.125305,83.276527 37.095669,103.634415 
	C37.127663,104.322769 37.174961,104.814934 37.174961,104.814934 
	C34.100445,105.031990 31.025925,105.249054 27.246292,105.515900 
	C27.246292,79.201950 27.246292,53.564655 27.197262,27.214090 
	C27.101805,26.333158 27.055376,26.165491 27.008945,25.997824 
	C30.608246,25.814949 34.247932,25.250935 37.788105,25.626059 
	C39.327511,25.789177 41.052048,27.629185 42.031113,29.137030 
	C54.505299,48.348427 66.859222,67.637917 79.611618,87.481506 
	C80.614349,88.738136 81.249207,89.420807 82.710732,90.992424 
	C82.476097,88.460052 82.360619,87.213692 82.245140,85.967331 
	C82.342056,73.632034 82.438972,61.296734 82.409607,48.511074 
M38.212360,40.765068 
	C37.987831,40.429317 37.763298,40.093563 37.538769,39.757812 
	C37.589382,40.235771 37.639999,40.713734 38.212360,40.765068 
z"/>
<path fill="#F7F5FA" opacity="1.000000" stroke="none" 
	d="
M153.168427,25.263687 
	C153.296127,28.022663 153.423828,30.781641 152.974487,33.799747 
	C142.843430,34.144764 133.289383,34.230652 123.735352,34.316536 
	C123.353516,36.340317 122.646561,38.364632 122.649895,40.387772 
	C122.660545,46.846519 122.934921,53.304836 123.997208,60.025162 
	C133.679398,60.293312 142.471848,60.299614 151.264297,60.305916 
	C151.310074,63.033695 151.355865,65.761467 150.729004,68.783051 
	C142.232086,69.068642 134.406082,68.977074 126.585327,69.139275 
	C125.369728,69.164482 124.178177,70.348999 122.975510,70.997406 
	C122.885269,78.477470 122.817329,85.957893 122.696083,93.437454 
	C122.627563,97.664078 125.691170,96.418709 128.884674,96.557068 
	C138.325668,96.549217 146.868561,96.530579 155.411453,96.511932 
	C155.598007,99.227325 155.784561,101.942719 156.024689,105.438095 
	C150.535233,105.438095 145.677948,105.438095 140.374405,105.554932 
	C131.153442,105.671761 122.378731,105.671761 112.761185,105.671761 
	C112.761185,96.351982 112.761185,87.776825 112.717216,78.403152 
	C112.596184,77.107407 112.519119,76.610184 112.442062,76.112968 
	C112.544548,60.029293 112.647041,43.945618 112.707306,27.193329 
	C112.665085,26.524715 112.640663,26.027781 112.640663,26.027779 
	C112.951668,25.889345 113.262680,25.750912 114.208481,25.476231 
	C127.618324,25.314548 140.393372,25.289118 153.168427,25.263687 
z"/>
<path fill="#E6E2EA" opacity="1.000000" stroke="none" 
	d="
M159.716507,161.103989 
	C146.520859,164.044479 138.135223,155.590210 141.908173,143.668518 
	C143.994019,137.077682 149.914398,133.166534 155.963821,134.382965 
	C162.026627,135.602081 165.297684,141.122604 164.295288,149.329437 
	C158.529709,149.329437 152.652374,149.329437 146.856979,149.329437 
	C146.078125,158.432907 153.330429,159.840698 162.935867,157.434418 
	C161.983826,158.606796 161.031784,159.779175 159.716507,161.103989 
M159.833054,142.936691 
	C158.748367,139.750458 156.553421,137.867188 153.163925,138.243515 
	C149.347488,138.667252 147.057617,141.011154 146.162689,145.485672 
	C148.823029,145.602982 151.251160,146.017914 153.589752,145.722885 
	C155.744095,145.451111 157.802185,144.416443 159.833054,142.936691 
z"/>
<path fill="#E6E2EA" opacity="1.000000" stroke="none" 
	d="
M69.288078,126.080681 
	C74.178520,125.366722 78.735527,124.547508 83.300842,124.498222 
	C84.733635,124.482750 86.188782,126.537689 87.261589,128.527328 
	C78.464508,126.901749 70.525253,126.626366 66.060745,135.531906 
	C63.048721,141.540100 63.111115,148.020798 67.410835,153.488663 
	C72.537971,160.008759 79.479095,158.414368 86.481682,156.494995 
	C88.175407,160.042816 85.601448,160.731750 83.251366,161.397949 
	C74.359299,163.918732 65.864616,160.898148 61.837753,153.852203 
	C57.432362,146.143936 59.004971,134.889572 65.374428,128.968231 
	C66.463188,127.956055 67.758141,127.165680 69.288078,126.080681 
z"/>
<path fill="#E5E1EA" opacity="1.000000" stroke="none" 
	d="
M103.454636,134.198853 
	C112.966202,134.112747 118.013565,138.474106 118.480576,146.786484 
	C118.923050,154.662292 114.209969,160.973740 107.140938,161.971802 
	C100.521095,162.906448 94.790092,159.397659 92.740417,153.155151 
	C90.523026,146.401840 93.151749,138.834595 98.866661,135.794968 
	C100.167091,135.103287 101.647606,134.750183 103.454636,134.198853 
M102.216713,157.849808 
	C111.310448,159.067444 116.523537,152.321152 113.141090,143.693848 
	C111.732193,140.100281 109.129410,137.990570 105.214035,138.091248 
	C101.098618,138.197052 98.231956,140.504944 97.307304,144.405380 
	C96.109810,149.456711 96.367493,154.355774 102.216713,157.849808 
z"/>
<path fill="#E3DFE8" opacity="1.000000" stroke="none" 
	d="
M129.670197,148.231720 
	C129.662216,151.858856 129.949387,155.061676 129.520920,158.165695 
	C129.328842,159.557236 127.703445,160.750916 126.728455,162.034393 
	C126.237427,161.745209 125.746391,161.456009 125.255356,161.166824 
	C125.255356,152.611877 125.255356,144.056931 125.255356,134.638382 
	C127.296265,135.415726 128.904846,136.028381 130.396927,136.596695 
	C132.648514,136.053528 135.190140,135.336853 137.781326,134.974228 
	C138.042740,134.937637 138.603607,137.040680 139.068527,138.263977 
	C131.135361,139.554001 130.240936,140.512161 129.670197,148.231720 
z"/>
<path fill="#6B3B9B" opacity="1.000000" stroke="none" 
	d="
M92.604668,104.765182 
	C92.287636,91.630112 92.282166,78.289406 92.358948,64.488335 
	C92.957260,65.172722 93.911011,66.313431 93.921661,67.462875 
	C94.028015,78.934822 94.002434,90.408348 93.928085,101.880875 
	C93.922287,102.775917 93.268723,103.666756 92.604668,104.765182 
z"/>
<path fill="#592091" opacity="1.000000" stroke="none" 
	d="
M92.699966,59.925159 
	C92.372612,48.936859 92.305893,37.945786 92.271492,26.488152 
	C92.869576,27.794989 93.893127,29.560369 93.924339,31.343126 
	C94.086678,40.614235 93.996208,49.889767 93.988258,59.646893 
	C93.642036,60.060810 93.301323,59.991596 92.699966,59.925159 
z"/>
<path fill="#6B3C9B" opacity="1.000000" stroke="none" 
	d="
M81.902298,86.055336 
	C82.360619,87.213692 82.476097,88.460052 82.710732,90.992424 
	C81.249207,89.420807 80.614349,88.738136 79.895226,87.678329 
	C80.393784,86.915237 80.976616,86.529289 81.902298,86.055336 
z"/>
<path fill="#6D409C" opacity="1.000000" stroke="none" 
	d="
M37.795609,43.939827 
	C37.372097,43.038933 37.495628,42.140423 37.619164,41.241913 
	C37.990227,40.985958 38.361290,40.730003 38.732353,40.474045 
	C39.181267,41.330772 39.630180,42.187500 40.304138,43.461761 
	C39.800339,43.900269 39.071499,43.921242 37.795609,43.939827 
z"/>
<path fill="#5A2691" opacity="1.000000" stroke="none" 
	d="
M112.170868,76.242416 
	C112.519119,76.610184 112.596184,77.107407 112.572845,77.975510 
	C112.116943,78.070976 111.761444,77.795563 111.160149,77.290192 
	C111.242790,76.830780 111.571236,76.601326 112.170868,76.242416 
z"/>
<path fill="#6D409C" opacity="1.000000" stroke="none" 
	d="
M37.333218,104.737518 
	C37.174961,104.814934 37.127663,104.322769 37.193420,104.084198 
	C37.401554,104.021851 37.561066,104.188164 37.673111,104.381935 
	C37.698124,104.425186 37.556423,104.564835 37.333218,104.737518 
z"/>
<path fill="#673698" opacity="1.000000" stroke="none" 
	d="
M26.935814,26.120146 
	C27.055376,26.165491 27.101805,26.333158 27.093475,26.755980 
	C26.819275,26.779224 26.760595,26.523001 26.935814,26.120146 
z"/>
<path fill="#F7F5FA" opacity="1.000000" stroke="none" 
	d="
M164.048233,25.164227 
	C180.187241,25.252464 196.326248,25.341801 212.465256,25.427521 
	C214.429001,25.437952 216.392822,25.428942 218.592743,25.428942 
	C218.592743,28.404358 218.592743,30.829506 218.592743,33.974350 
	C210.992386,33.974350 203.441406,33.974350 195.394806,33.974350 
	C195.394806,58.072952 195.394806,81.465546 195.394806,105.104523 
	C192.117188,105.104523 189.368484,105.104523 186.050262,105.104523 
	C186.050262,81.477127 186.050262,58.105843 186.050262,34.112305 
	C178.119125,34.112305 170.736069,34.112305 162.988495,34.112305 
	C162.988495,31.034077 162.988495,28.580132 163.297485,25.766567 
	C163.753738,25.326038 163.900986,25.245132 164.048233,25.164227 
z"/>
<path fill="#5B2592" opacity="1.000000" stroke="none" 
	d="
M123.445793,70.994812 
	C124.178177,70.348999 125.369728,69.164482 126.585327,69.139275 
	C134.406082,68.977074 142.232086,69.068642 150.523544,69.110565 
	C149.252960,69.762917 147.528488,70.867470 145.775116,70.915413 
	C138.493515,71.114540 131.203201,70.994881 123.445793,70.994812 
z"/>
<path fill="#5B2692" opacity="1.000000" stroke="none" 
	d="
M124.054489,34.637871 
	C133.289383,34.230652 142.843430,34.144764 152.842529,34.097187 
	C152.648605,34.639019 152.003143,35.588158 151.371597,35.578995 
	C142.371170,35.448372 133.372635,35.188152 124.054489,34.637871 
z"/>
<path fill="#561D8F" opacity="1.000000" stroke="none" 
	d="
M152.816833,25.009975 
	C140.393372,25.289118 127.618324,25.314548 114.370560,25.273060 
	C114.319824,24.940899 114.743172,24.441923 115.163551,24.444405 
	C127.597618,24.517799 140.031403,24.640984 152.816833,25.009975 
z"/>
<path fill="#55128E" opacity="1.000000" stroke="none" 
	d="
M150.899017,60.051926 
	C142.471848,60.299614 133.679398,60.293312 124.428909,60.168041 
	C132.825165,59.965363 141.679459,59.881649 150.899017,60.051926 
z"/>
<path fill="#571A90" opacity="1.000000" stroke="none" 
	d="
M155.041656,96.233047 
	C146.868561,96.530579 138.325668,96.549217 129.324219,96.417542 
	C132.072983,95.843544 135.281998,95.061195 138.487198,95.076576 
	C143.883362,95.102470 149.277100,95.634834 155.041656,96.233047 
z"/>
<path fill="#5A2691" opacity="1.000000" stroke="none" 
	d="
M112.506554,26.078960 
	C112.640663,26.027781 112.665085,26.524715 112.552048,26.746277 
	C112.290466,26.763002 112.141930,26.558167 111.993385,26.353329 
	C112.119736,26.278934 112.246094,26.204538 112.506554,26.078960 
z"/>
<path fill="#592390" opacity="1.000000" stroke="none" 
	d="
M163.918259,25.102989 
	C163.900986,25.245132 163.753738,25.326038 163.354523,25.412752 
	C163.259308,25.126860 163.487885,25.001259 163.918259,25.102989 
z"/>
<path fill="#744AA0" opacity="1.000000" stroke="none" 
	d="
M37.951488,40.978378 
	C37.639999,40.713734 37.589382,40.235771 37.538769,39.757812 
	C37.763298,40.093563 37.987831,40.429317 37.951488,40.978378 
z"/>
<path fill="#825DAA" opacity="1.000000" stroke="none" 
	d="
M159.867859,143.327271 
	C157.802185,144.416443 155.744095,145.451111 153.589752,145.722885 
	C151.251160,146.017914 148.823029,145.602982 146.162689,145.485672 
	C147.057617,141.011154 149.347488,138.667252 153.163925,138.243515 
	C156.553421,137.867188 158.748367,139.750458 159.867859,143.327271 
z"/>
<path fill="#774EA2" opacity="1.000000" stroke="none" 
	d="
M101.828018,157.717361 
	C96.367493,154.355774 96.109810,149.456711 97.307304,144.405380 
	C98.231956,140.504944 101.098618,138.197052 105.214035,138.091248 
	C109.129410,137.990570 111.732193,140.100281 113.141090,143.693848 
	C116.523537,152.321152 111.310448,159.067444 101.828018,157.717361 
z"/>
</svg>