<svg version="1.1" id="Layer_1" xmlns="http://www.w3.org/2000/svg" xmlns:xlink="http://www.w3.org/1999/xlink" x="0px" y="0px"
	 width="100%" viewBox="0 0 252 240" enable-background="new 0 0 252 240" xml:space="preserve">
<path fill="#000000" opacity="1.000000" stroke="none" 
	d="
M177.000000,241.000000 
	C118.000000,241.000000 59.500008,241.000000 1.000008,241.000000 
	C1.000005,161.000015 1.000005,81.000015 1.000003,1.000019 
	C84.999985,1.000012 168.999969,1.000012 252.999969,1.000006 
	C252.999969,80.999977 252.999969,160.999954 252.999985,240.999969 
	C227.833328,241.000000 202.666672,241.000000 177.000000,241.000000 
M171.600876,153.846100 
	C171.956482,153.112823 172.312088,152.379547 172.848022,151.843948 
	C172.848022,151.843948 172.630890,151.687592 173.367737,151.749619 
	C174.232513,150.147812 175.097290,148.545990 175.991562,146.975052 
	C175.991562,146.975052 175.949097,146.966232 176.719193,146.993393 
	C180.919647,146.147644 185.778015,141.788574 185.815079,138.006653 
	C185.840851,135.376144 184.899734,132.633804 183.910248,130.131363 
	C183.240555,128.437653 181.736465,127.073891 181.001221,125.988876 
	C180.869202,125.847687 180.737167,125.706497 181.253998,125.736015 
	C181.854233,125.214127 182.454468,124.692238 183.398209,123.697769 
	C183.921860,123.461334 184.445526,123.224899 185.534927,122.944038 
	C185.847931,122.641724 186.160934,122.339409 186.473938,122.037094 
	C186.033035,121.688202 185.592117,121.339310 184.697189,120.748947 
	C184.341476,120.385826 183.985779,120.022713 183.590637,118.968872 
	C183.352478,118.326485 183.114304,117.684090 183.453461,116.750633 
	C183.787796,116.076004 184.590546,115.131264 184.382034,114.769676 
	C182.780411,111.992149 181.072632,109.260773 179.161606,106.690704 
	C178.819839,106.231056 177.384766,106.584358 176.436600,106.495720 
	C176.436600,106.495720 176.401382,106.436424 176.764389,105.750534 
	C176.739212,104.247208 177.153503,102.550552 176.595306,101.281723 
	C175.508545,98.811340 174.132935,96.367981 172.413879,94.297997 
	C169.441467,90.718742 166.115921,87.432747 162.484283,83.704308 
	C162.297699,83.196243 162.111099,82.688187 161.988693,81.321114 
	C162.029099,77.317169 161.994904,73.364563 155.969742,72.804756 
	C155.324493,71.532700 154.679230,70.260651 154.528778,68.456787 
	C155.807861,64.552170 154.280914,62.813976 149.778244,62.504971 
	C149.000824,61.080181 148.223404,59.655396 148.072205,57.839012 
	C149.695358,52.696888 145.489838,51.802391 142.061661,49.779320 
	C142.061661,49.779320 142.035492,49.312477 142.733917,48.984840 
	C145.018646,45.186443 141.664734,46.358215 139.608475,45.665779 
	C139.318024,45.000195 139.027557,44.334610 138.825653,42.803669 
	C137.536972,39.600929 136.417236,36.313660 134.877487,33.236553 
	C134.250870,31.984303 132.711914,31.188581 131.588058,30.185152 
	C130.688950,31.347338 129.789841,32.509525 128.722458,34.194874 
	C128.476471,34.461121 128.230484,34.727367 127.197624,34.998112 
	C122.181976,36.840717 122.945412,43.063305 119.062759,45.812199 
	C118.733070,46.045624 118.960808,47.161438 119.061356,47.848034 
	C119.090530,48.047276 119.578171,48.179379 119.736206,48.749073 
	C119.736206,48.749073 119.397934,49.004684 118.671623,49.277790 
	C118.194458,50.368637 117.717293,51.459488 117.188477,53.123089 
	C116.774124,53.741886 116.359772,54.360687 115.255775,55.137882 
	C114.572762,56.588402 113.889755,58.038918 112.999382,60.024544 
	C112.596344,60.672787 112.193298,61.321030 111.069878,62.016800 
	C110.134117,63.875298 109.198349,65.733795 108.166763,68.225212 
	C107.145050,69.830826 106.123329,71.436440 104.377678,73.178574 
	C104.016243,73.994240 103.654816,74.809906 103.248947,76.135307 
	C103.059090,76.414558 102.869232,76.693810 102.064377,77.179558 
	C101.776123,77.942451 101.487862,78.705353 101.090782,80.068642 
	C100.396339,81.046806 99.701904,82.024971 98.230865,82.999222 
	C92.936790,82.928169 94.148415,86.090324 95.124283,88.998566 
	C95.124283,88.998566 95.205841,89.143112 94.439819,89.216324 
	C94.031219,90.308182 93.622620,91.400040 93.218323,92.785400 
	C93.218323,92.785400 93.022186,93.003807 92.277687,93.015709 
	C89.719864,93.538200 87.862968,94.375870 90.252289,97.822067 
	C89.790977,98.532639 89.329666,99.243202 88.205444,100.134972 
	C86.473053,101.946686 84.467010,103.572212 83.076271,105.616364 
	C81.262619,108.282135 79.627548,111.161171 78.476379,114.163445 
	C76.915764,118.233574 70.831116,121.762222 76.583977,127.050819 
	C77.158852,127.579292 77.116524,129.476654 76.638489,130.337845 
	C73.877953,135.311111 76.172661,139.437500 79.131676,142.948975 
	C81.988251,146.338852 85.701073,149.007172 89.239464,152.169037 
	C89.239464,152.169037 89.245605,152.437164 89.177376,153.256058 
	C90.443153,155.824600 92.185898,158.273392 92.867653,160.988586 
	C94.011307,165.543335 96.799706,167.900696 101.024406,168.996628 
	C101.024406,168.996628 101.075653,168.907166 101.024261,169.702881 
	C102.003189,172.430023 102.566681,175.429916 104.112755,177.784683 
	C105.081001,179.259384 107.527664,179.763412 109.260071,180.710220 
	C109.260071,180.710220 109.294319,180.722916 109.141571,181.472672 
	C110.055305,182.330887 110.969032,183.189102 112.360443,184.413803 
	C112.976372,185.445862 113.592300,186.477936 114.165894,188.225235 
	C114.772408,188.818680 115.378922,189.412125 116.501228,190.386124 
	C117.313065,191.642532 118.124893,192.898926 118.959763,194.894211 
	C120.343857,196.570908 121.727943,198.247620 123.035980,199.998444 
	C123.035980,199.998444 123.080353,199.901978 123.029671,200.686905 
	C124.022720,203.252563 124.543945,206.169052 126.126030,208.296707 
	C128.190018,211.072449 130.601852,213.156769 134.703247,209.906937 
	C138.147125,207.178131 138.043854,204.170639 137.872803,200.286972 
	C137.974838,200.005737 138.173767,199.842880 139.314163,199.895020 
	C143.496109,199.999359 143.839569,198.083023 142.013382,194.339111 
	C142.930847,193.194092 143.848328,192.049072 145.614212,190.954956 
	C150.005890,191.025497 148.998474,188.145859 149.017715,185.878036 
	C148.864456,185.772964 148.711182,185.667877 149.339005,185.724899 
	C155.276535,185.219681 155.410980,181.161346 154.992355,176.056778 
	C156.036514,174.719254 157.080673,173.381729 158.856094,172.006805 
	C159.578293,170.690796 160.300491,169.374786 161.090424,167.559845 
	C161.335281,167.349411 161.580139,167.138992 162.593231,166.949341 
	C168.326675,165.863388 168.485916,161.286255 168.962891,156.960129 
	C168.962891,156.960129 168.867874,156.913925 169.573395,156.837112 
	C170.028793,155.863235 170.484192,154.889374 170.997818,153.975525 
	C170.997818,153.975525 170.917969,153.950729 171.600876,153.846100 
z"/>
<path fill="#727272" opacity="1.000000" stroke="none" 
	d="
M102.679375,76.973061 
	C102.869232,76.693810 103.059090,76.414558 103.550613,75.706291 
	C104.268723,74.532204 104.685173,73.787132 105.101624,73.042053 
	C106.123329,71.436440 107.145050,69.830826 108.496109,67.713562 
	C109.813721,65.457703 110.801987,63.713490 111.790260,61.969276 
	C112.193298,61.321030 112.596344,60.672787 113.388138,59.567879 
	C114.499733,57.733974 115.222580,56.356731 115.945419,54.979485 
	C116.359772,54.360687 116.774124,53.741886 117.518738,52.644501 
	C118.365318,51.112171 118.881630,50.058430 119.397934,49.004684 
	C119.397934,49.004684 119.736206,48.749073 120.046936,48.384624 
	C122.899940,43.677990 125.442223,39.335804 127.984505,34.993614 
	C128.230484,34.727367 128.476471,34.461121 129.046356,33.952908 
	C129.370270,33.710941 129.832672,33.842716 130.014496,34.233315 
	C130.401596,36.259239 130.785004,37.894558 130.785034,39.529884 
	C130.785370,58.878868 130.728439,78.227852 130.648880,97.582413 
	C130.611191,97.587990 130.577362,97.656258 130.231110,97.708626 
	C114.653557,104.628036 99.435387,111.524521 84.174355,118.324821 
	C82.269547,119.173607 80.137955,119.513466 78.061623,119.732147 
	C81.630653,112.901360 85.249496,106.427559 88.868347,99.953766 
	C89.329666,99.243202 89.790977,98.532639 90.595978,97.351227 
	C91.633842,95.588188 92.328011,94.295998 93.022186,93.003807 
	C93.022186,93.003807 93.218323,92.785400 93.499939,92.447617 
	C94.256325,91.120918 94.731087,90.132019 95.205841,89.143112 
	C95.205841,89.143112 95.124283,88.998566 95.435150,88.913956 
	C96.833176,86.887276 97.920326,84.945206 99.007477,83.003136 
	C99.701904,82.024971 100.396339,81.046806 101.403587,79.594116 
	C102.037384,78.404083 102.358383,77.688576 102.679375,76.973061 
z"/>
<path fill="#C9C9C9" opacity="1.000000" stroke="none" 
	d="
M130.686554,97.576836 
	C130.728439,78.227852 130.785370,58.878868 130.785034,39.529884 
	C130.785004,37.894558 130.401596,36.259239 130.221527,33.954182 
	C130.856796,33.556858 131.697540,33.660721 132.039627,34.128922 
	C134.331406,37.265633 136.517044,40.479912 138.737106,43.669025 
	C139.027557,44.334610 139.318024,45.000195 139.847565,46.108452 
	C140.736282,47.471573 141.385880,48.392025 142.035492,49.312477 
	C142.035492,49.312477 142.061661,49.779320 142.320007,50.289963 
	C144.200897,53.277267 145.823441,55.753937 147.445999,58.230606 
	C148.223404,59.655396 149.000824,61.080181 150.076782,63.064644 
	C151.594879,65.412407 152.814438,67.200500 154.033981,68.988594 
	C154.679230,70.260651 155.324493,71.532700 156.258698,73.373199 
	C158.339951,76.687805 160.132233,79.433960 161.924515,82.180122 
	C162.111099,82.688187 162.297699,83.196243 162.741119,84.218124 
	C167.465759,91.966766 171.933563,99.201599 176.401382,106.436424 
	C176.401382,106.436424 176.436600,106.495720 176.513611,106.866676 
	C178.685791,110.505653 180.780960,113.773682 182.876144,117.041702 
	C183.114304,117.684090 183.352478,118.326485 183.197723,119.400421 
	C173.883148,116.104233 164.938980,112.429268 156.046341,108.633560 
	C147.565140,105.013466 139.137650,101.267479 130.686554,97.576836 
z"/>
<path fill="#E7E7E7" opacity="1.000000" stroke="none" 
	d="
M130.648865,97.582413 
	C139.137650,101.267479 147.565140,105.013466 156.046341,108.633560 
	C164.938980,112.429268 173.883148,116.104233 183.217438,119.745781 
	C183.985779,120.022713 184.341476,120.385826 184.857208,121.198746 
	C185.001205,122.095184 184.985184,122.541817 184.969177,122.988464 
	C184.445526,123.224899 183.921860,123.461334 182.930344,123.946152 
	C181.843369,124.651459 181.224243,125.108383 180.605118,125.565308 
	C180.737167,125.706497 180.869202,125.847687 180.452179,125.814697 
	C164.906296,134.503494 149.924438,143.392075 134.888565,152.188309 
	C133.443527,153.033676 131.662262,153.304260 130.065491,153.431580 
	C130.255066,134.566391 130.416214,116.111328 130.577362,97.656258 
	C130.577362,97.656258 130.611191,97.587990 130.648865,97.582413 
z"/>
<path fill="#0C0C0C" opacity="1.000000" stroke="none" 
	d="
M130.037079,153.841675 
	C131.662262,153.304260 133.443527,153.033676 134.888565,152.188309 
	C149.924438,143.392075 164.906296,134.503494 180.254364,125.601532 
	C181.736465,127.073891 183.240555,128.437653 183.910248,130.131363 
	C184.899734,132.633804 185.840851,135.376144 185.815079,138.006653 
	C185.778015,141.788574 180.919647,146.147644 176.376266,146.635345 
	C178.555237,142.668808 181.077133,139.060303 183.599030,135.451797 
	C183.345062,135.149796 183.091110,134.847809 182.837158,134.545807 
	C165.337723,144.904114 147.838303,155.262436 130.032684,165.376404 
	C127.013298,163.504211 124.317406,161.846680 121.584023,160.253479 
	C107.504089,152.046646 93.414536,143.856323 79.176315,135.504028 
	C78.934258,135.642731 78.844215,135.937622 78.831146,136.566895 
	C82.284660,141.931656 85.661201,146.962067 89.037750,151.992477 
	C85.701073,149.007172 81.988251,146.338852 79.131676,142.948975 
	C76.172661,139.437500 73.877953,135.311111 76.638489,130.337845 
	C77.116524,129.476654 77.158852,127.579292 76.583977,127.050819 
	C70.831116,121.762222 76.915764,118.233574 78.476379,114.163445 
	C79.627548,111.161171 81.262619,108.282135 83.076271,105.616364 
	C84.467010,103.572212 86.473053,101.946686 88.536896,100.044373 
	C85.249496,106.427559 81.630653,112.901360 77.775284,119.974808 
	C77.991714,121.767700 78.092308,123.514122 78.955208,124.063774 
	C84.269913,127.449074 89.734421,130.602661 95.190704,133.761475 
	C106.792664,140.478180 118.420097,147.150909 130.037079,153.841675 
z"/>
<path fill="#C7C7C7" opacity="1.000000" stroke="none" 
	d="
M130.338867,165.620743 
	C147.838303,155.262436 165.337723,144.904114 182.837158,134.545807 
	C183.091110,134.847809 183.345062,135.149796 183.599030,135.451797 
	C181.077133,139.060303 178.555237,142.668808 175.991211,146.621765 
	C175.949097,146.966232 175.991562,146.975052 175.691742,147.123810 
	C174.471573,148.744247 173.551224,150.215927 172.630890,151.687592 
	C172.630890,151.687592 172.848022,151.843948 172.479599,151.873444 
	C171.713440,152.585526 171.315704,153.268127 170.917969,153.950729 
	C170.917969,153.950729 170.997818,153.975525 170.694672,154.097015 
	C169.883652,155.116989 169.375763,156.015457 168.867889,156.913925 
	C168.867874,156.913925 168.962891,156.960129 168.623901,157.053802 
	C166.131622,160.407852 163.978302,163.668198 161.824982,166.928558 
	C161.580139,167.138992 161.335281,167.349411 160.768799,167.942337 
	C159.673065,169.564621 158.898941,170.804413 158.124817,172.044205 
	C157.080673,173.381729 156.036514,174.719254 154.634003,176.548187 
	C152.369720,179.880661 150.463806,182.721725 148.557892,185.562775 
	C148.711182,185.667877 148.864456,185.772964 148.500381,185.884003 
	C146.910629,187.561325 145.838211,189.232697 144.765808,190.904068 
	C143.848328,192.049072 142.930847,193.194092 141.673904,194.820251 
	C140.379486,196.800400 139.424545,198.299393 138.469604,199.798386 
	C138.173767,199.842880 137.974838,200.005737 137.556488,200.636246 
	C135.899017,202.868530 134.736984,204.928436 133.133286,206.552139 
	C132.439453,207.254639 130.834213,207.056931 129.854370,206.855865 
	C130.156799,192.835999 130.247833,179.228363 130.338867,165.620743 
z"/>
<path fill="#707070" opacity="1.000000" stroke="none" 
	d="
M130.032684,165.376404 
	C130.247833,179.228363 130.156799,192.835999 129.536926,206.772278 
	C127.032181,204.701279 125.056267,202.301636 123.080353,199.901978 
	C123.080353,199.901978 123.035980,199.998444 123.009300,199.631042 
	C121.633987,197.560883 120.285355,195.858109 118.936722,194.155334 
	C118.124893,192.898926 117.313065,191.642532 116.214622,189.874176 
	C115.354759,188.744812 114.781502,188.127396 114.208237,187.509995 
	C113.592300,186.477936 112.976372,185.445862 112.055023,183.920441 
	C110.931175,182.525696 110.112747,181.624298 109.294319,180.722916 
	C109.294319,180.722916 109.260071,180.710220 109.231079,180.370529 
	C106.493271,176.322952 103.784462,172.615051 101.075653,168.907166 
	C101.075653,168.907166 101.024406,168.996628 100.991508,168.625992 
	C97.054276,162.982620 93.149940,157.709900 89.245605,152.437164 
	C89.245605,152.437164 89.239464,152.169037 89.138611,152.080750 
	C85.661201,146.962067 82.284660,141.931656 78.975449,136.424576 
	C79.042778,135.947906 79.328339,135.660248 79.328339,135.660248 
	C93.414536,143.856323 107.504089,152.046646 121.584023,160.253479 
	C124.317406,161.846680 127.013298,163.504211 130.032684,165.376404 
z"/>
<path fill="#0C0C0C" opacity="1.000000" stroke="none" 
	d="
M123.055008,200.294434 
	C125.056267,202.301636 127.032181,204.701279 129.325531,207.184540 
	C130.834213,207.056931 132.439453,207.254639 133.133286,206.552139 
	C134.736984,204.928436 135.899017,202.868530 137.555267,200.837402 
	C138.043854,204.170639 138.147125,207.178131 134.703247,209.906937 
	C130.601852,213.156769 128.190018,211.072449 126.126030,208.296707 
	C124.543945,206.169052 124.022720,203.252563 123.055008,200.294434 
z"/>
<path fill="#0C0C0C" opacity="1.000000" stroke="none" 
	d="
M176.582886,106.093475 
	C171.933563,99.201599 167.465759,91.966766 162.968231,84.377838 
	C166.115921,87.432747 169.441467,90.718742 172.413879,94.297997 
	C174.132935,96.367981 175.508545,98.811340 176.595306,101.281723 
	C177.153503,102.550552 176.739212,104.247208 176.582886,106.093475 
z"/>
<path fill="#0C0C0C" opacity="1.000000" stroke="none" 
	d="
M89.211487,152.846619 
	C93.149940,157.709900 97.054276,162.982620 101.031151,168.593018 
	C96.799706,167.900696 94.011307,165.543335 92.867653,160.988586 
	C92.185898,158.273392 90.443153,155.824600 89.211487,152.846619 
z"/>
<path fill="#0C0C0C" opacity="1.000000" stroke="none" 
	d="
M138.781372,43.236347 
	C136.517044,40.479912 134.331406,37.265633 132.039627,34.128922 
	C131.697540,33.660721 130.856796,33.556858 130.039703,33.563583 
	C129.832672,33.842716 129.370270,33.710941 129.130493,33.691326 
	C129.789841,32.509525 130.688950,31.347338 131.588058,30.185150 
	C132.711914,31.188581 134.250870,31.984303 134.877487,33.236553 
	C136.417236,36.313660 137.536972,39.600929 138.781372,43.236347 
z"/>
<path fill="#0C0C0C" opacity="1.000000" stroke="none" 
	d="
M101.049957,169.305023 
	C103.784462,172.615051 106.493271,176.322952 109.256531,180.366898 
	C107.527664,179.763412 105.081001,179.259384 104.112755,177.784683 
	C102.566681,175.429916 102.003189,172.430023 101.049957,169.305023 
z"/>
<path fill="#0C0C0C" opacity="1.000000" stroke="none" 
	d="
M127.591064,34.995865 
	C125.442223,39.335804 122.899940,43.677990 120.106659,48.181217 
	C119.578171,48.179379 119.090530,48.047276 119.061356,47.848034 
	C118.960808,47.161438 118.733070,46.045624 119.062759,45.812199 
	C122.945412,43.063305 122.181976,36.840717 127.591064,34.995865 
z"/>
<path fill="#0C0C0C" opacity="1.000000" stroke="none" 
	d="
M183.164795,116.896164 
	C180.780960,113.773682 178.685791,110.505653 176.522552,106.899971 
	C177.384766,106.584358 178.819839,106.231056 179.161606,106.690704 
	C181.072632,109.260773 182.780411,111.992149 184.382034,114.769676 
	C184.590546,115.131264 183.787796,116.076004 183.164795,116.896164 
z"/>
<path fill="#0C0C0C" opacity="1.000000" stroke="none" 
	d="
M148.948456,185.643829 
	C150.463806,182.721725 152.369720,179.880661 154.573273,176.864807 
	C155.410980,181.161346 155.276535,185.219681 148.948456,185.643829 
z"/>
<path fill="#0C0C0C" opacity="1.000000" stroke="none" 
	d="
M162.209106,166.938934 
	C163.978302,163.668198 166.131622,160.407852 168.594925,157.009644 
	C168.485916,161.286255 168.326675,165.863388 162.209106,166.938934 
z"/>
<path fill="#0C0C0C" opacity="1.000000" stroke="none" 
	d="
M161.956604,81.750618 
	C160.132233,79.433960 158.339951,76.687805 156.482864,73.583908 
	C161.994904,73.364563 162.029099,77.317169 161.956604,81.750618 
z"/>
<path fill="#0C0C0C" opacity="1.000000" stroke="none" 
	d="
M147.759094,58.034805 
	C145.823441,55.753937 144.200897,53.277267 142.498535,50.440895 
	C145.489838,51.802391 149.695358,52.696888 147.759094,58.034805 
z"/>
<path fill="#0C0C0C" opacity="1.000000" stroke="none" 
	d="
M98.619171,83.001175 
	C97.920326,84.945206 96.833176,86.887276 95.458038,88.993698 
	C94.148415,86.090324 92.936790,82.928169 98.619171,83.001175 
z"/>
<path fill="#0C0C0C" opacity="1.000000" stroke="none" 
	d="
M154.281372,68.722687 
	C152.814438,67.200500 151.594879,65.412407 150.335449,63.299049 
	C154.280914,62.813976 155.807861,64.552170 154.281372,68.722687 
z"/>
<path fill="#0C0C0C" opacity="1.000000" stroke="none" 
	d="
M138.891876,199.846710 
	C139.424545,198.299393 140.379486,196.800400 141.620941,195.135086 
	C143.839569,198.083023 143.496109,199.999359 138.891876,199.846710 
z"/>
<path fill="#0C0C0C" opacity="1.000000" stroke="none" 
	d="
M145.190002,190.929504 
	C145.838211,189.232697 146.910629,187.561325 148.268753,185.732010 
	C148.998474,188.145859 150.005890,191.025497 145.190002,190.929504 
z"/>
<path fill="#0C0C0C" opacity="1.000000" stroke="none" 
	d="
M118.948242,194.524780 
	C120.285355,195.858109 121.633987,197.560883 123.047325,199.593994 
	C121.727943,198.247620 120.343857,196.570908 118.948242,194.524780 
z"/>
<path fill="#0C0C0C" opacity="1.000000" stroke="none" 
	d="
M92.649933,93.009758 
	C92.328011,94.295998 91.633842,95.588188 90.670235,97.035034 
	C87.862968,94.375870 89.719864,93.538200 92.649933,93.009758 
z"/>
<path fill="#0C0C0C" opacity="1.000000" stroke="none" 
	d="
M111.430069,61.993038 
	C110.801987,63.713490 109.813721,65.457703 108.544014,67.397102 
	C109.198349,65.733795 110.134117,63.875298 111.430069,61.993038 
z"/>
<path fill="#0C0C0C" opacity="1.000000" stroke="none" 
	d="
M142.384705,49.148659 
	C141.385880,48.392025 140.736282,47.471573 140.082489,46.261581 
	C141.664734,46.358215 145.018646,45.186443 142.384705,49.148659 
z"/>
<path fill="#0C0C0C" opacity="1.000000" stroke="none" 
	d="
M172.999313,151.718597 
	C173.551224,150.215927 174.471573,148.744247 175.676987,147.108368 
	C175.097290,148.545990 174.232513,150.147812 172.999313,151.718597 
z"/>
<path fill="#0C0C0C" opacity="1.000000" stroke="none" 
	d="
M115.600601,55.058685 
	C115.222580,56.356731 114.499733,57.733974 113.491814,59.300323 
	C113.889755,58.038918 114.572762,56.588402 115.600601,55.058685 
z"/>
<path fill="#0C0C0C" opacity="1.000000" stroke="none" 
	d="
M158.490448,172.025513 
	C158.898941,170.804413 159.673065,169.564621 160.734955,168.191803 
	C160.300491,169.374786 159.578293,170.690796 158.490448,172.025513 
z"/>
<path fill="#0C0C0C" opacity="1.000000" stroke="none" 
	d="
M109.217941,181.097794 
	C110.112747,181.624298 110.931175,182.525696 111.816185,183.737183 
	C110.969032,183.189102 110.055305,182.330887 109.217941,181.097794 
z"/>
<path fill="#0C0C0C" opacity="1.000000" stroke="none" 
	d="
M94.822830,89.179718 
	C94.731087,90.132019 94.256325,91.120918 93.497787,92.300858 
	C93.622620,91.400040 94.031219,90.308182 94.822830,89.179718 
z"/>
<path fill="#0C0C0C" opacity="1.000000" stroke="none" 
	d="
M169.220642,156.875519 
	C169.375763,156.015457 169.883652,155.116989 170.665558,154.067017 
	C170.484192,154.889374 170.028793,155.863235 169.220642,156.875519 
z"/>
<path fill="#0C0C0C" opacity="1.000000" stroke="none" 
	d="
M119.034782,49.141239 
	C118.881630,50.058430 118.365318,51.112171 117.544571,52.358124 
	C117.717293,51.459488 118.194458,50.368637 119.034782,49.141239 
z"/>
<path fill="#0C0C0C" opacity="1.000000" stroke="none" 
	d="
M185.252045,122.966248 
	C184.985184,122.541817 185.001205,122.095184 185.084229,121.319481 
	C185.592117,121.339310 186.033035,121.688202 186.473938,122.037094 
	C186.160934,122.339409 185.847931,122.641724 185.252045,122.966248 
z"/>
<path fill="#0C0C0C" opacity="1.000000" stroke="none" 
	d="
M102.371872,77.076309 
	C102.358383,77.688576 102.037384,78.404083 101.457993,79.293922 
	C101.487862,78.705353 101.776123,77.942451 102.371872,77.076309 
z"/>
<path fill="#0C0C0C" opacity="1.000000" stroke="none" 
	d="
M104.739655,73.110313 
	C104.685173,73.787132 104.268723,74.532204 103.572830,75.451424 
	C103.654816,74.809906 104.016243,73.994240 104.739655,73.110313 
z"/>
<path fill="#0C0C0C" opacity="1.000000" stroke="none" 
	d="
M171.259430,153.898407 
	C171.315704,153.268127 171.713440,152.585526 172.389435,151.774597 
	C172.312088,152.379547 171.956482,153.112823 171.259430,153.898407 
z"/>
<path fill="#0C0C0C" opacity="1.000000" stroke="none" 
	d="
M114.187065,187.867615 
	C114.781502,188.127396 115.354759,188.744812 115.956726,189.683899 
	C115.378922,189.412125 114.772408,188.818680 114.187065,187.867615 
z"/>
<path fill="#0C0C0C" opacity="1.000000" stroke="none" 
	d="
M180.929565,125.650665 
	C181.224243,125.108383 181.843369,124.651459 182.758575,124.182449 
	C182.454468,124.692238 181.854233,125.214127 180.929565,125.650665 
z"/>
<path fill="#C4C4C4" opacity="1.000000" stroke="none" 
	d="
M130.065491,153.431580 
	C118.420097,147.150909 106.792664,140.478180 95.190704,133.761475 
	C89.734421,130.602661 84.269913,127.449074 78.955208,124.063774 
	C78.092308,123.514122 77.991714,121.767700 77.825104,120.331795 
	C80.137955,119.513466 82.269547,119.173607 84.174355,118.324821 
	C99.435387,111.524521 114.653557,104.628036 130.231110,97.708626 
	C130.416214,116.111328 130.255066,134.566391 130.065491,153.431580 
z"/>
<path fill="#707070" opacity="1.000000" stroke="none" 
	d="
M78.898476,136.090210 
	C78.844215,135.937622 78.934258,135.642731 79.176315,135.504028 
	C79.328339,135.660248 79.042778,135.947906 78.898476,136.090210 
z"/>
</svg>