<svg version="1.1" id="Layer_1" xmlns="http://www.w3.org/2000/svg" xmlns:xlink="http://www.w3.org/1999/xlink" x="0px" y="0px"
	 width="100%" viewBox="0 0 191 224" enable-background="new 0 0 191 224" xml:space="preserve">
<path fill="#0B0B0B" opacity="1.000000" stroke="none" 
	d="
M100.000000,225.000000 
	C66.686455,225.000000 33.872913,225.000000 1.029684,225.000000 
	C1.029684,150.398132 1.029684,75.796257 1.029684,1.097189 
	C64.563370,1.097189 128.126938,1.097189 191.845245,1.097189 
	C191.845245,75.666412 191.845245,150.333176 191.845245,225.000000 
	C161.463211,225.000000 130.981598,225.000000 100.000000,225.000000 
M98.891571,184.327454 
	C97.247772,184.502747 95.603973,184.678040 93.371368,185.433929 
	C93.177345,187.937363 92.983322,190.440811 92.028130,192.955399 
	C91.533226,193.065063 91.038322,193.174728 89.743378,193.300949 
	C88.328690,191.955124 86.914001,190.609283 84.687332,188.490997 
	C84.356102,188.490997 82.628654,188.490997 82.068237,188.490997 
	C80.196899,191.061600 78.893341,192.852264 76.931938,194.232803 
	C76.439644,194.084152 75.947342,193.935501 75.293190,193.878540 
	C75.293190,193.878540 75.108284,193.898865 75.156631,193.040253 
	C74.492874,191.323608 73.829109,189.606964 73.165352,187.890320 
	C72.179611,189.407318 71.102455,190.874985 70.246323,192.461899 
	C69.812004,193.266983 69.776253,194.287109 69.410446,196.105972 
	C69.404221,200.593613 69.177399,205.099167 69.538979,209.556961 
	C69.635498,210.746918 71.531982,211.790863 72.602104,212.901840 
	C73.677193,211.821701 75.489586,210.858322 75.682716,209.638550 
	C76.171265,206.552917 75.932243,203.352112 76.499123,200.102219 
	C77.005798,199.693558 77.512482,199.284897 78.881996,198.987091 
	C79.357727,200.559814 80.203453,202.122330 80.247116,203.706955 
	C80.473396,211.918304 82.466553,213.728302 91.682617,212.921890 
	C92.286545,212.848694 92.890472,212.775482 94.246758,212.735336 
	C95.752197,212.778687 97.257637,212.822037 99.586823,212.855392 
	C100.055519,208.896378 100.524223,204.937347 101.867523,200.761017 
	C103.458961,200.832321 105.050400,200.903625 107.110977,200.995941 
	C107.110977,204.919601 107.110977,208.389404 106.929405,212.431686 
	C107.620216,212.614761 108.311028,212.797836 109.793358,212.930908 
	C114.194496,213.496628 113.092339,210.099640 114.058281,208.009689 
	C114.557999,207.733765 115.057724,207.457855 115.842438,207.888474 
	C116.415840,211.891922 118.938477,213.409073 122.722328,213.133514 
	C124.772125,212.984222 126.805481,212.609299 128.874207,212.878494 
	C129.583023,212.916229 130.291824,212.953964 131.546341,212.902496 
	C132.051849,212.712845 132.557373,212.523209 133.525375,212.540009 
	C134.135223,211.910400 134.745071,211.280777 135.607849,211.316635 
	C138.440140,211.902771 141.257095,212.581665 144.108353,213.053101 
	C148.288162,213.744125 151.797714,212.794479 153.370117,208.369827 
	C155.344437,202.814194 153.487671,195.200439 149.745773,193.486725 
	C148.737885,193.025131 147.500595,192.998581 146.358154,192.914291 
	C145.103851,192.821747 143.837433,192.893219 142.460892,192.893219 
	C142.218277,190.086868 142.010208,187.679916 141.789291,185.124451 
	C139.564331,185.124451 137.808945,185.124451 135.726242,185.124451 
	C135.594666,187.696823 135.477402,189.989258 134.462143,192.305481 
	C132.053543,192.964096 129.644958,193.622711 127.135719,195.167938 
	C127.117683,197.497269 127.399300,199.880722 126.991371,202.139648 
	C126.633934,204.119019 125.492645,207.590225 124.714302,207.585617 
	C120.732590,207.561996 122.501076,204.080048 122.240288,201.956833 
	C121.958443,199.662186 122.184540,197.305145 122.619225,194.557495 
	C121.962769,194.142700 121.306313,193.727921 119.934822,193.332626 
	C118.499451,193.857727 117.064079,194.382828 114.908974,194.767181 
	C114.432426,194.857330 113.955879,194.947495 113.339958,194.189117 
	C113.219101,191.140747 113.098244,188.092361 112.897217,184.334595 
	C111.251381,184.506805 109.605545,184.679016 107.353523,185.437195 
	C107.126961,188.355606 106.900391,191.274017 106.629456,194.763931 
	C104.556648,194.629135 102.674622,194.506729 100.895187,193.447281 
	C100.071266,190.681488 103.074142,187.038116 98.997025,184.997452 
	C98.997025,184.997452 98.976067,185.034729 98.891571,184.327454 
M151.000122,152.487366 
	C176.816452,129.606873 185.899857,101.324654 177.180634,67.966621 
	C165.642197,23.822815 117.548904,-1.927958 74.896172,12.673630 
	C18.485769,31.984970 0.617454,100.660538 40.500355,145.025726 
	C49.318886,154.835342 60.076885,161.885101 72.471817,166.352631 
	C76.926178,167.958115 79.666565,166.665604 79.903946,162.852310 
	C80.200974,158.080963 79.975372,153.277100 79.975372,147.978302 
	C77.871887,148.244019 76.430611,148.360855 75.014168,148.615707 
	C66.759590,150.100861 54.700542,146.638687 51.617058,136.175262 
	C50.779465,133.333008 48.272224,130.891495 46.231289,128.524765 
	C44.669540,126.713722 42.635303,125.310127 40.811230,123.725304 
	C40.911186,123.310211 41.011143,122.895111 41.111099,122.480019 
	C42.742001,122.346024 44.429039,121.877449 45.993420,122.139923 
	C50.950626,122.971672 54.071369,126.304840 56.719608,130.345398 
	C61.564968,137.738174 67.435165,140.148239 75.947922,138.064468 
	C77.589088,137.662750 79.376251,136.195343 80.258194,134.719009 
	C81.829971,132.087952 82.762360,129.074905 83.961090,126.224098 
	C78.047005,124.366150 71.819260,123.066582 66.157936,120.511833 
	C46.739891,111.749176 44.309479,80.544708 54.021015,67.316475 
	C55.163559,65.760193 55.912975,63.613472 56.054718,61.682484 
	C56.436707,56.478565 56.412254,51.243675 56.508644,46.020329 
	C56.571186,42.631008 58.827259,42.055759 61.265030,42.855526 
	C66.107841,44.444332 70.999924,46.095631 75.503052,48.431644 
	C78.452301,49.961582 80.775208,50.743290 84.260353,49.913857 
	C94.581032,47.457623 105.117699,47.543652 115.441772,49.935528 
	C118.731277,50.697639 120.927010,50.022827 123.755814,48.617329 
	C128.591263,46.214817 133.785995,44.475971 138.954285,42.855228 
	C139.933731,42.548084 142.517975,43.962986 142.615097,44.788765 
	C143.245987,50.152756 143.400116,55.573204 143.696075,60.975952 
	C143.771271,62.348732 143.235703,64.182961 143.928619,65.027657 
	C150.813400,73.420662 151.375183,83.181007 150.648193,93.359612 
	C149.637802,107.506378 141.058685,118.652718 127.567474,122.771812 
	C123.494904,124.015244 119.300217,124.858704 116.502243,125.552788 
	C117.554581,131.606140 118.929794,137.132858 119.375954,142.733566 
	C119.850548,148.691254 119.400146,154.719330 119.436661,160.716156 
	C119.472267,166.562958 121.972282,168.702148 127.214478,166.147964 
	C135.210144,162.252182 142.746872,157.414474 151.000122,152.487366 
M52.037991,200.203827 
	C52.020847,190.926849 52.780209,190.250748 62.245377,189.764496 
	C63.430679,189.703598 64.538651,188.137360 65.682457,187.268616 
	C64.881668,186.223297 64.262802,184.516098 63.251129,184.238052 
	C55.603252,182.136017 46.246021,184.366440 45.751255,195.352249 
	C45.646667,197.674500 45.592171,200.018127 45.776985,202.330933 
	C46.517414,211.596802 57.615280,216.932831 65.320328,211.756180 
	C65.973900,211.317078 66.929688,210.628601 66.939575,210.042389 
	C67.012054,205.744034 67.484474,201.278809 66.398010,197.252853 
	C66.115631,196.206467 60.761730,196.525452 57.735596,196.234268 
	C57.611351,196.222305 57.470398,196.384018 56.878315,196.743256 
	C57.143562,198.689438 55.331425,201.347198 59.284351,202.399857 
	C59.897011,202.563004 60.418934,204.664932 60.207096,205.713593 
	C60.084339,206.321259 58.396660,207.019043 57.441433,206.980331 
	C53.775192,206.831787 52.326122,204.427185 52.037991,200.203827 
z"/>
<path fill="#F9F9F9" opacity="1.000000" stroke="none" 
	d="
M150.739288,152.732056 
	C142.746872,157.414474 135.210144,162.252182 127.214478,166.147964 
	C121.972282,168.702148 119.472267,166.562958 119.436661,160.716156 
	C119.400146,154.719330 119.850548,148.691254 119.375954,142.733566 
	C118.929794,137.132858 117.554581,131.606140 116.502243,125.552788 
	C119.300217,124.858704 123.494904,124.015244 127.567474,122.771812 
	C141.058685,118.652718 149.637802,107.506378 150.648193,93.359612 
	C151.375183,83.181007 150.813400,73.420662 143.928619,65.027657 
	C143.235703,64.182961 143.771271,62.348732 143.696075,60.975952 
	C143.400116,55.573204 143.245987,50.152756 142.615097,44.788765 
	C142.517975,43.962986 139.933731,42.548084 138.954285,42.855228 
	C133.785995,44.475971 128.591263,46.214817 123.755814,48.617329 
	C120.927010,50.022827 118.731277,50.697639 115.441772,49.935528 
	C105.117699,47.543652 94.581032,47.457623 84.260353,49.913857 
	C80.775208,50.743290 78.452301,49.961582 75.503052,48.431644 
	C70.999924,46.095631 66.107841,44.444332 61.265030,42.855526 
	C58.827259,42.055759 56.571186,42.631008 56.508644,46.020329 
	C56.412254,51.243675 56.436707,56.478565 56.054718,61.682484 
	C55.912975,63.613472 55.163559,65.760193 54.021015,67.316475 
	C44.309479,80.544708 46.739891,111.749176 66.157936,120.511833 
	C71.819260,123.066582 78.047005,124.366150 83.961090,126.224098 
	C82.762360,129.074905 81.829971,132.087952 80.258194,134.719009 
	C79.376251,136.195343 77.589088,137.662750 75.947922,138.064468 
	C67.435165,140.148239 61.564968,137.738174 56.719608,130.345398 
	C54.071369,126.304840 50.950626,122.971672 45.993420,122.139923 
	C44.429039,121.877449 42.742001,122.346024 41.111099,122.480019 
	C41.011143,122.895111 40.911186,123.310211 40.811230,123.725304 
	C42.635303,125.310127 44.669540,126.713722 46.231289,128.524765 
	C48.272224,130.891495 50.779465,133.333008 51.617058,136.175262 
	C54.700542,146.638687 66.759590,150.100861 75.014168,148.615707 
	C76.430611,148.360855 77.871887,148.244019 79.975372,147.978302 
	C79.975372,153.277100 80.200974,158.080963 79.903946,162.852310 
	C79.666565,166.665604 76.926178,167.958115 72.471817,166.352631 
	C60.076885,161.885101 49.318886,154.835342 40.500355,145.025726 
	C0.617454,100.660538 18.485769,31.984970 74.896172,12.673630 
	C117.548904,-1.927958 165.642197,23.822815 177.180634,67.966621 
	C185.899857,101.324654 176.816452,129.606873 150.739288,152.732056 
z"/>
<path fill="#E5E5E5" opacity="1.000000" stroke="none" 
	d="
M52.054230,200.629608 
	C52.326122,204.427185 53.775192,206.831787 57.441433,206.980331 
	C58.396660,207.019043 60.084339,206.321259 60.207096,205.713593 
	C60.418934,204.664932 59.897011,202.563004 59.284351,202.399857 
	C55.331425,201.347198 57.143562,198.689438 56.878315,196.743256 
	C57.470398,196.384018 57.611351,196.222305 57.735596,196.234268 
	C60.761730,196.525452 66.115631,196.206467 66.398010,197.252853 
	C67.484474,201.278809 67.012054,205.744034 66.939575,210.042389 
	C66.929688,210.628601 65.973900,211.317078 65.320328,211.756180 
	C57.615280,216.932831 46.517414,211.596802 45.776985,202.330933 
	C45.592171,200.018127 45.646667,197.674500 45.751255,195.352249 
	C46.246021,184.366440 55.603252,182.136017 63.251129,184.238052 
	C64.262802,184.516098 64.881668,186.223297 65.682449,187.268616 
	C64.538651,188.137360 63.430679,189.703598 62.245377,189.764496 
	C52.780209,190.250748 52.020847,190.926849 52.054230,200.629608 
z"/>
<path fill="#E5E5E5" opacity="1.000000" stroke="none" 
	d="
M112.977386,185.043991 
	C113.098244,188.092361 113.219101,191.140747 113.263809,194.977173 
	C113.290733,199.772659 113.393806,203.780121 113.496887,207.787567 
	C113.092339,210.099640 114.194496,213.496628 109.237022,212.714844 
	C108.157455,212.285568 107.634216,212.072372 107.110977,211.859192 
	C107.110977,208.389404 107.110977,204.919601 107.110977,200.995941 
	C105.050400,200.903625 103.458961,200.832321 101.013535,200.868286 
	C99.694061,204.938843 99.228569,208.902100 98.763077,212.865372 
	C97.257637,212.822037 95.752197,212.778687 93.846817,212.269379 
	C93.227676,205.517044 93.008484,199.230637 92.789291,192.944244 
	C92.983322,190.440811 93.177345,187.937363 94.076538,185.230896 
	C96.179832,185.030136 97.577950,185.032440 98.976067,185.034729 
	C98.976067,185.034729 98.997025,184.997452 99.036438,185.451172 
	C99.648102,188.731369 100.220352,191.557846 100.792603,194.384338 
	C102.674622,194.506729 104.556648,194.629135 106.629456,194.763931 
	C106.900391,191.274017 107.126961,188.355606 108.067108,185.233429 
	C110.179596,185.034439 111.578491,185.039215 112.977386,185.043991 
z"/>
<path fill="#E4E4E4" opacity="1.000000" stroke="none" 
	d="
M135.360138,192.281677 
	C135.477402,189.989258 135.594666,187.696823 135.726242,185.124451 
	C137.808945,185.124451 139.564331,185.124451 141.789291,185.124451 
	C142.010208,187.679916 142.218277,190.086868 142.460892,192.893219 
	C143.837433,192.893219 145.103851,192.821747 146.358154,192.914291 
	C147.500595,192.998581 148.737885,193.025131 149.745773,193.486725 
	C153.487671,195.200439 155.344437,202.814194 153.370117,208.369827 
	C151.797714,212.794479 148.288162,213.744125 144.108353,213.053101 
	C141.257095,212.581665 138.440140,211.902771 135.673431,210.574249 
	C135.612732,203.981796 135.486435,198.131729 135.360138,192.281677 
M147.723099,204.263870 
	C147.725189,203.603226 147.982285,202.778290 147.682114,202.312378 
	C146.736862,200.845245 145.582428,199.512894 144.508972,198.128372 
	C143.606323,199.110336 141.924347,200.118484 141.956299,201.069061 
	C142.032913,203.349197 142.914612,205.602264 143.471420,207.866272 
	C144.865540,206.935654 146.259659,206.005020 147.723099,204.263870 
z"/>
<path fill="#EAEAEA" opacity="1.000000" stroke="none" 
	d="
M128.846252,212.336151 
	C126.805481,212.609299 124.772125,212.984222 122.722328,213.133514 
	C118.938477,213.409073 116.415840,211.891922 115.846298,207.080902 
	C115.776344,202.484848 115.702530,198.696381 115.628708,194.907913 
	C117.064079,194.382828 118.499451,193.857727 120.356682,193.616333 
	C121.248718,194.258453 121.718895,194.616882 122.189072,194.975311 
	C122.184540,197.305145 121.958443,199.662186 122.240288,201.956833 
	C122.501076,204.080048 120.732590,207.561996 124.714302,207.585617 
	C125.492645,207.590225 126.633934,204.119019 126.991371,202.139648 
	C127.399300,199.880722 127.117683,197.497269 127.609680,194.649429 
	C129.615173,194.130920 131.146698,194.130920 133.062881,194.130920 
	C133.062881,200.596024 133.062881,206.464798 133.062881,212.333572 
	C132.557373,212.523209 132.051849,212.712845 131.060699,212.734192 
	C129.998795,212.489288 129.422516,212.412720 128.846252,212.336151 
z"/>
<path fill="#DEDEDE" opacity="1.000000" stroke="none" 
	d="
M90.769600,212.865982 
	C82.466553,213.728302 80.473396,211.918304 80.247116,203.706955 
	C80.203453,202.122330 79.357727,200.559814 78.402420,198.622589 
	C77.811813,197.053024 77.700798,195.847977 77.589775,194.642929 
	C78.893341,192.852264 80.196899,191.061600 82.068237,188.490997 
	C82.628654,188.490997 84.356102,188.490997 84.687332,188.490997 
	C86.914001,190.609283 88.328690,191.955124 90.200661,193.698105 
	C92.163139,197.889603 89.528008,198.894669 85.696823,199.776184 
	C86.732948,202.745514 86.923676,206.683136 88.711159,207.640976 
	C91.583641,209.180222 90.875420,210.843735 90.769600,212.865982 
z"/>
<path fill="#E7E7E7" opacity="1.000000" stroke="none" 
	d="
M75.984680,200.197433 
	C75.932243,203.352112 76.171265,206.552917 75.682716,209.638550 
	C75.489586,210.858322 73.677193,211.821701 72.602097,212.901840 
	C71.531982,211.790863 69.635498,210.746918 69.538979,209.556961 
	C69.177399,205.099167 69.404221,200.593613 69.827499,195.561523 
	C71.865791,194.644348 73.487038,194.271606 75.108284,193.898865 
	C75.108284,193.898865 75.293190,193.878540 75.316971,194.294952 
	C75.555389,196.540054 75.770035,198.368744 75.984680,200.197433 
z"/>
<path fill="#363636" opacity="1.000000" stroke="none" 
	d="
M91.226105,212.893936 
	C90.875420,210.843735 91.583641,209.180222 88.711159,207.640976 
	C86.923676,206.683136 86.732948,202.745514 85.696823,199.776184 
	C89.528008,198.894669 92.163139,197.889603 90.600677,193.689819 
	C91.038322,193.174728 91.533226,193.065063 92.408707,192.949829 
	C93.008484,199.230637 93.227676,205.517044 93.470634,212.252853 
	C92.890472,212.775482 92.286545,212.848694 91.226105,212.893936 
z"/>
<path fill="#595959" opacity="1.000000" stroke="none" 
	d="
M133.294128,212.436798 
	C133.062881,206.464798 133.062881,200.596024 133.062881,194.130920 
	C131.146698,194.130920 129.615173,194.130920 127.660011,194.206116 
	C129.644958,193.622711 132.053543,192.964096 134.911133,192.293579 
	C135.486435,198.131729 135.612732,203.981796 135.546967,210.241501 
	C134.745071,211.280777 134.135223,211.910400 133.294128,212.436798 
z"/>
<path fill="#363636" opacity="1.000000" stroke="none" 
	d="
M115.268845,194.837555 
	C115.702530,198.696381 115.776344,202.484848 115.703804,206.727631 
	C115.057724,207.457855 114.557999,207.733765 113.777588,207.898621 
	C113.393806,203.780121 113.290733,199.772659 113.333496,195.401428 
	C113.955879,194.947495 114.432426,194.857330 115.268845,194.837555 
z"/>
<path fill="#9C9C9C" opacity="1.000000" stroke="none" 
	d="
M75.132462,193.469559 
	C73.487038,194.271606 71.865791,194.644348 69.902428,195.113556 
	C69.776253,194.287109 69.812004,193.266983 70.246323,192.461899 
	C71.102455,190.874985 72.179611,189.407318 73.165344,187.890320 
	C73.829109,189.606964 74.492874,191.323608 75.132462,193.469559 
z"/>
<path fill="#363636" opacity="1.000000" stroke="none" 
	d="
M99.174950,212.860382 
	C99.228569,208.902100 99.694061,204.938843 100.576233,200.976959 
	C100.524223,204.937347 100.055519,208.896378 99.174950,212.860382 
z"/>
<path fill="#363636" opacity="1.000000" stroke="none" 
	d="
M100.843895,193.915802 
	C100.220352,191.557846 99.648102,188.731369 99.019890,185.465424 
	C103.074142,187.038116 100.071266,190.681488 100.843895,193.915802 
z"/>
<path fill="#484848" opacity="1.000000" stroke="none" 
	d="
M76.241898,200.149826 
	C75.770035,198.368744 75.555389,196.540054 75.397888,194.249115 
	C75.947342,193.935501 76.439644,194.084152 77.260857,194.437866 
	C77.700798,195.847977 77.811813,197.053024 77.971001,198.567154 
	C77.512482,199.284897 77.005798,199.693558 76.241898,200.149826 
z"/>
<path fill="#363636" opacity="1.000000" stroke="none" 
	d="
M98.933823,184.681091 
	C97.577950,185.032440 96.179832,185.030136 94.370941,184.940582 
	C95.603973,184.678040 97.247772,184.502747 98.933823,184.681091 
z"/>
<path fill="#363636" opacity="1.000000" stroke="none" 
	d="
M112.937302,184.689301 
	C111.578491,185.039215 110.179596,185.034439 108.370209,184.940445 
	C109.605545,184.679016 111.251381,184.506805 112.937302,184.689301 
z"/>
<path fill="#595959" opacity="1.000000" stroke="none" 
	d="
M128.860229,212.607330 
	C129.422516,212.412720 129.998795,212.489288 130.787842,212.778778 
	C130.291824,212.953964 129.583023,212.916229 128.860229,212.607330 
z"/>
<path fill="#545454" opacity="1.000000" stroke="none" 
	d="
M107.020187,212.145432 
	C107.634216,212.072372 108.157455,212.285568 108.841263,212.739838 
	C108.311028,212.797836 107.620216,212.614761 107.020187,212.145432 
z"/>
<path fill="#545454" opacity="1.000000" stroke="none" 
	d="
M122.404144,194.766418 
	C121.718895,194.616882 121.248718,194.258453 120.714195,193.606583 
	C121.306313,193.727921 121.962769,194.142700 122.404144,194.766418 
z"/>
<path fill="#313131" opacity="1.000000" stroke="none" 
	d="
M147.688446,204.669128 
	C146.259659,206.005020 144.865540,206.935654 143.471405,207.866272 
	C142.914612,205.602264 142.032913,203.349197 141.956299,201.069061 
	C141.924347,200.118484 143.606323,199.110336 144.508972,198.128372 
	C145.582428,199.512894 146.736862,200.845245 147.682114,202.312378 
	C147.982285,202.778290 147.725189,203.603226 147.688446,204.669128 
z"/>
</svg>