<svg version="1.1" id="Layer_1" xmlns="http://www.w3.org/2000/svg" xmlns:xlink="http://www.w3.org/1999/xlink" x="0px" y="0px"
	 width="100%" viewBox="0 0 183 180" enable-background="new 0 0 183 180" xml:space="preserve">
<path fill="#1080FA" opacity="1.000000" stroke="none" 
	d="
M183.000000,181.000000 
	C134.645767,181.000000 86.291542,181.000000 37.621857,180.705032 
	C42.668396,174.976074 48.154823,169.656189 53.310764,164.033249 
	C54.717312,162.499298 55.129993,160.054031 56.458992,157.928635 
	C90.592232,157.830276 124.265274,157.830276 158.374985,157.830276 
	C158.374985,155.187759 158.374985,153.384506 158.375000,151.581268 
	C158.375290,122.309708 158.357437,93.038132 158.390244,63.766613 
	C158.397308,57.456635 158.587067,51.146858 159.016876,45.121597 
	C159.719772,48.751759 160.098450,52.097313 160.594818,56.482426 
	C162.545212,54.711472 163.887665,53.613728 165.090485,52.379879 
	C171.038116,46.278866 176.948807,40.141865 182.910019,34.483677 
	C182.965027,83.633202 182.982513,132.316605 183.000000,181.000000 
z"/>
<path fill="#2379ED" opacity="1.000000" stroke="none" 
	d="
M55.998787,158.027008 
	C55.129993,160.054031 54.717312,162.499298 53.310764,164.033249 
	C48.154823,169.656189 42.668396,174.976074 37.153198,180.705032 
	C31.645071,181.000000 26.290140,181.000000 20.607517,180.689667 
	C24.744396,175.530228 29.416647,170.850433 33.573566,165.750580 
	C35.289345,163.645615 35.898834,160.638901 37.469963,157.944427 
	C43.951893,157.906677 49.975338,157.966843 55.998787,158.027008 
z"/>
<path fill="#B1498F" opacity="1.000000" stroke="none" 
	d="
M1.000000,52.000000 
	C1.000000,48.638714 1.000000,45.277424 1.364123,41.451271 
	C3.119860,40.189770 4.762456,39.646946 5.864368,38.557335 
	C17.214365,27.333988 28.495777,16.040895 39.731125,4.702655 
	C40.722904,3.701790 41.254608,2.245020 42.000000,1.000000 
	C44.370556,1.000000 46.741116,1.000000 49.513050,1.342635 
	C45.223095,6.676870 40.390087,11.545908 35.912178,16.722137 
	C34.190636,18.712154 33.277863,21.401831 31.581562,23.899277 
	C26.541237,23.362648 24.478195,25.356176 24.629490,30.045013 
	C16.524874,37.393044 8.762437,44.696522 1.000000,52.000000 
z"/>
<path fill="#3773DF" opacity="1.000000" stroke="none" 
	d="
M7.999999,181.000000 
	C5.724478,181.000000 3.448956,181.000000 1.000000,181.000000 
	C1.000000,177.320496 1.000000,173.639420 1.363987,169.472458 
	C5.798475,165.507858 10.031919,162.199921 13.900080,158.509155 
	C19.274889,153.380844 25.947699,148.841522 24.393188,139.764572 
	C24.356091,139.547974 24.768229,139.254425 25.056736,139.458740 
	C25.428619,145.919113 25.714603,151.917542 25.993759,158.291016 
	C24.472801,161.129166 23.230646,163.821014 21.389957,166.009415 
	C17.079155,171.134552 12.481511,176.018448 7.999999,181.000000 
z"/>
<path fill="#3873DF" opacity="1.000000" stroke="none" 
	d="
M169.000000,1.000002 
	C173.356903,1.000000 177.713806,1.000000 182.533844,1.401170 
	C182.960342,2.870910 182.923691,3.939480 182.531738,5.014276 
	C181.297455,5.408839 180.196442,5.581055 179.574677,6.219787 
	C174.711899,11.215172 170.075790,16.439917 165.059372,21.271660 
	C163.567307,22.708792 161.087189,23.120104 158.890289,23.796854 
	C158.150742,23.725521 157.580719,23.858782 156.545853,24.047379 
	C151.062149,24.021515 146.043304,23.940315 141.142670,23.496031 
	C141.943542,22.759771 142.699722,21.972340 143.297226,22.078451 
	C148.432800,22.990469 151.732468,20.272205 154.799484,16.729177 
	C156.750854,14.474935 159.092682,12.561741 161.086182,10.340154 
	C163.810425,7.304207 166.369904,4.120417 169.000000,1.000002 
z"/>
<path fill="#4B6CD2" opacity="1.000000" stroke="none" 
	d="
M24.970833,138.996765 
	C24.768229,139.254425 24.356091,139.547974 24.393188,139.764572 
	C25.947699,148.841522 19.274889,153.380844 13.900080,158.509155 
	C10.031919,162.199921 5.798475,165.507858 1.363987,168.993286 
	C1.000000,163.977905 1.000000,158.955811 1.381031,153.466644 
	C3.358229,152.314972 5.239196,151.960541 6.493007,150.879059 
	C9.361796,148.404526 11.834284,145.476517 14.634013,142.914398 
	C17.989946,139.843292 21.518885,136.961258 25.055477,134.408951 
	C25.082314,136.212631 25.026571,137.604706 24.970833,138.996765 
z"/>
<path fill="#3A63C1" opacity="1.000000" stroke="none" 
	d="
M168.533875,1.000002 
	C166.369904,4.120417 163.810425,7.304207 161.086182,10.340154 
	C159.092682,12.561741 156.750854,14.474935 154.799484,16.729177 
	C151.732468,20.272205 148.432800,22.990469 143.297226,22.078451 
	C142.699722,21.972340 141.943542,22.759771 140.726532,23.629908 
	C138.461044,24.040760 136.729935,23.954651 135.004669,23.513208 
	C137.463715,20.157864 139.855286,17.104715 142.384567,14.170263 
	C146.205978,9.736727 150.123383,5.385947 154.000000,1.000000 
	C158.689255,1.000000 163.378510,1.000000 168.533875,1.000002 
z"/>
<path fill="#B8468A" opacity="1.000000" stroke="none" 
	d="
M41.550018,1.000000 
	C41.254608,2.245020 40.722904,3.701790 39.731125,4.702655 
	C28.495777,16.040895 17.214365,27.333988 5.864368,38.557335 
	C4.762456,39.646946 3.119860,40.189770 1.364123,40.993202 
	C1.000000,38.629444 1.000000,36.258884 1.350971,33.401623 
	C3.134603,32.106319 4.824988,31.560261 5.958811,30.447239 
	C14.401654,22.159279 22.778551,13.802280 31.045483,5.339315 
	C32.086624,4.273487 32.367096,2.464609 33.000000,1.000000 
	C35.700012,1.000000 38.400028,1.000000 41.550018,1.000000 
z"/>
<path fill="#715EB8" opacity="1.000000" stroke="none" 
	d="
M110.000000,0.999998 
	C113.692909,1.000000 117.385818,1.000000 121.532509,1.364089 
	C121.083595,3.225561 120.412506,4.943120 119.236252,6.180446 
	C115.150871,10.477951 110.799011,14.523561 106.750542,18.853859 
	C105.501160,20.190224 104.896980,22.129799 103.548340,23.918509 
	C99.065781,23.965158 95.032265,23.886486 91.009476,23.455679 
	C93.237549,20.345024 95.373505,17.515926 97.690269,14.843589 
	C101.734879,10.178227 105.890755,5.609324 110.000000,0.999998 
z"/>
<path fill="#3274E4" opacity="1.000000" stroke="none" 
	d="
M8.460635,181.000000 
	C12.481511,176.018448 17.079155,171.134552 21.389957,166.009415 
	C23.230646,163.821014 24.472801,161.129166 26.449692,158.238022 
	C30.278799,157.887421 33.645142,157.964874 37.011486,158.042328 
	C35.898834,160.638901 35.289345,163.645615 33.573566,165.750580 
	C29.416647,170.850433 24.744396,175.530228 20.139912,180.689667 
	C16.307091,181.000000 12.614182,181.000000 8.460635,181.000000 
z"/>
<path fill="#735EB8" opacity="1.000000" stroke="none" 
	d="
M1.000000,121.000000 
	C1.000000,120.555557 1.000000,120.111107 1.149225,119.238281 
	C1.198966,118.539932 1.099483,118.269966 1.000000,118.000000 
	C1.000000,115.629440 1.000000,113.258888 1.353830,110.400803 
	C3.158601,108.901169 4.795442,108.075348 6.028471,106.844879 
	C11.520629,101.364082 16.872805,95.743149 22.348539,90.245544 
	C22.991297,89.600220 24.084461,89.403503 25.049496,89.447403 
	C25.077391,92.930313 25.024616,95.964645 24.637455,99.063446 
	C18.222641,105.564636 12.216396,112.074539 5.999837,118.376991 
	C4.740833,119.653381 2.687260,120.146027 1.000000,121.000000 
z"/>
<path fill="#BF4486" opacity="1.000000" stroke="none" 
	d="
M32.562500,1.000000 
	C32.367096,2.464609 32.086624,4.273487 31.045483,5.339315 
	C22.778551,13.802280 14.401654,22.159279 5.958811,30.447239 
	C4.824988,31.560261 3.134603,32.106319 1.350971,32.957458 
	C1.000000,31.285643 1.000000,29.571283 1.231812,27.248299 
	C1.642420,26.091944 1.821216,25.544216 2.342685,24.954624 
	C9.715772,18.182636 16.778149,11.485242 23.740797,4.685726 
	C24.740370,3.709571 25.258867,2.240796 26.000000,1.000000 
	C28.041666,1.000000 30.083334,1.000000 32.562500,1.000000 
z"/>
<path fill="#7B5AB2" opacity="1.000000" stroke="none" 
	d="
M24.968826,88.998825 
	C24.084461,89.403503 22.991297,89.600220 22.348539,90.245544 
	C16.872805,95.743149 11.520629,101.364082 6.028471,106.844879 
	C4.795442,108.075348 3.158601,108.901169 1.353830,109.956635 
	C1.000000,106.969406 1.000000,103.938812 1.364126,100.447556 
	C5.093235,97.216888 8.512182,94.509377 11.809978,91.661560 
	C16.245855,87.830956 20.588268,83.892105 25.051708,80.444077 
	C25.078018,83.591896 25.023422,86.295364 24.968826,88.998825 
z"/>
<path fill="#8458AE" opacity="1.000000" stroke="none" 
	d="
M91.000000,1.000002 
	C94.030594,1.000000 97.061188,1.000000 100.503189,1.342654 
	C95.622314,7.277840 90.257538,12.804642 85.087227,18.507742 
	C83.744339,19.989016 83.009216,22.021269 81.557617,23.919209 
	C78.415421,23.960712 75.710548,23.883459 73.015381,23.454033 
	C77.975151,17.309206 82.959343,11.545123 87.851028,5.703569 
	C89.055435,4.265298 89.958435,2.574634 91.000000,1.000002 
z"/>
<path fill="#5A67C9" opacity="1.000000" stroke="none" 
	d="
M1.000002,145.000000 
	C1.000000,141.637894 1.000000,138.275803 1.252414,134.642059 
	C3.359055,136.949951 4.559303,134.896851 5.771596,133.703781 
	C9.788221,129.750839 13.674603,125.662163 17.770615,121.794655 
	C20.004187,119.685677 22.559963,117.917946 25.052479,116.440857 
	C25.081615,119.588974 25.028702,122.292542 24.634777,125.040848 
	C18.334661,130.751526 12.444499,136.493179 6.366693,142.028809 
	C4.895861,143.368423 2.805487,144.027817 1.000002,145.000000 
z"/>
<path fill="#9353A3" opacity="1.000000" stroke="none" 
	d="
M1.000001,84.000000 
	C1.000000,83.250000 1.000000,82.500000 1.149161,81.279877 
	C1.198882,80.539833 1.099441,80.269913 1.000000,80.000000 
	C1.000000,78.285606 1.000000,76.571205 1.364122,74.421875 
	C5.092999,71.217155 8.511743,68.509888 11.809272,65.662262 
	C16.244738,61.831947 20.586693,57.893345 25.050022,54.445358 
	C25.077370,57.592918 25.023476,60.296341 24.629009,63.044159 
	C18.227495,68.857338 12.206320,74.668922 6.077354,80.364510 
	C4.564890,81.770020 2.701872,82.798309 1.000001,84.000000 
z"/>
<path fill="#8B55A9" opacity="1.000000" stroke="none" 
	d="
M1.000001,84.444168 
	C2.701872,82.798309 4.564890,81.770020 6.077354,80.364510 
	C12.206320,74.668922 18.227495,68.857338 24.710323,63.488449 
	C25.078379,66.592339 25.024551,69.296318 24.630062,72.044510 
	C18.331511,77.753830 12.442579,83.494644 6.365980,89.029427 
	C4.895415,90.368851 2.805246,91.028015 1.000000,92.000000 
	C1.000000,89.629440 1.000000,87.258888 1.000001,84.444168 
z"/>
<path fill="#5369CD" opacity="1.000000" stroke="none" 
	d="
M1.000002,145.444168 
	C2.805487,144.027817 4.895861,143.368423 6.366693,142.028809 
	C12.444499,136.493179 18.334661,130.751526 24.718260,125.485237 
	C25.086134,128.589035 25.029514,131.293182 24.972897,133.997330 
	C21.518885,136.961258 17.989946,139.843292 14.634013,142.914398 
	C11.834284,145.476517 9.361796,148.404526 6.493007,150.879059 
	C5.239196,151.960541 3.358229,152.314972 1.381031,152.999786 
	C1.000000,150.629440 1.000000,148.258896 1.000002,145.444168 
z"/>
<path fill="#9354A4" opacity="1.000000" stroke="none" 
	d="
M74.000000,1.000000 
	C77.030594,1.000000 80.061188,1.000000 83.503540,1.342741 
	C78.622528,7.278656 73.257378,12.806205 68.086334,18.509741 
	C66.742645,19.991800 66.005394,22.023691 64.552139,23.919533 
	C61.410828,23.953331 58.706982,23.870634 56.012642,23.437025 
	C56.964901,21.607136 57.699596,19.929420 58.888123,18.685238 
	C62.986977,14.394451 67.343307,10.347075 71.381691,6.002605 
	C72.617798,4.672810 73.147049,2.685956 74.000000,1.000000 
z"/>
<path fill="#5368CC" opacity="1.000000" stroke="none" 
	d="
M153.550018,1.000000 
	C150.123383,5.385947 146.205978,9.736727 142.384567,14.170263 
	C139.855286,17.104715 137.463715,20.157864 134.562912,23.615013 
	C131.410324,23.980707 128.705292,23.889259 126.010162,23.446285 
	C128.238739,20.337898 130.377029,17.511301 132.693909,14.839597 
	C136.738007,10.176163 140.892044,5.608060 145.000000,1.000001 
	C147.700012,1.000000 150.400024,1.000000 153.550018,1.000000 
z"/>
<path fill="#7959B0" opacity="1.000000" stroke="none" 
	d="
M81.994934,23.800449 
	C83.009216,22.021269 83.744339,19.989016 85.087227,18.507742 
	C90.257538,12.804642 95.622314,7.277840 100.957291,1.342654 
	C103.700012,1.000000 106.400032,1.000000 109.550018,0.999998 
	C105.890755,5.609324 101.734879,10.178227 97.690269,14.843589 
	C95.373505,17.515926 93.237549,20.345024 90.572762,23.579750 
	C87.415199,23.970783 84.705070,23.885614 81.994934,23.800449 
z"/>
<path fill="#98509C" opacity="1.000000" stroke="none" 
	d="
M73.555832,1.000000 
	C73.147049,2.685956 72.617798,4.672810 71.381691,6.002605 
	C67.343307,10.347075 62.986977,14.394451 58.888123,18.685238 
	C57.699596,19.929420 56.964901,21.607136 55.575756,23.562241 
	C52.418030,23.959255 49.706699,23.880136 47.005219,23.449236 
	C49.235023,20.340225 51.374912,17.513550 53.692646,14.841123 
	C57.737408,10.177382 61.891644,5.608586 66.000000,0.999999 
	C68.370560,1.000000 70.741112,1.000000 73.555832,1.000000 
z"/>
<path fill="#AA4C94" opacity="1.000000" stroke="none" 
	d="
M31.996580,23.772711 
	C33.277863,21.401831 34.190636,18.712154 35.912178,16.722137 
	C40.390087,11.545908 45.223095,6.676870 49.957214,1.342635 
	C52.700012,1.000000 55.400028,1.000000 58.507263,1.342636 
	C55.029079,5.870787 51.102886,10.019403 47.271786,14.254047 
	C44.448528,17.374685 41.749474,20.607693 38.569489,23.910809 
	C36.094795,23.944895 34.045689,23.858803 31.996580,23.772711 
z"/>
<path fill="#A94C94" opacity="1.000000" stroke="none" 
	d="
M1.000000,52.437500 
	C8.762437,44.696522 16.524874,37.393044 24.711889,30.489025 
	C25.080309,33.591892 25.024151,36.295296 24.605854,39.006065 
	C20.881662,41.789772 17.469645,44.508240 14.169819,47.356674 
	C9.734532,51.185249 5.385853,55.114159 1.000000,59.000000 
	C1.000000,56.958332 1.000000,54.916668 1.000000,52.437500 
z"/>
<path fill="#C74181" opacity="1.000000" stroke="none" 
	d="
M25.545891,1.000000 
	C25.258867,2.240796 24.740370,3.709571 23.740797,4.685726 
	C16.778149,11.485242 9.715772,18.182636 2.340659,24.500954 
	C1.999539,21.060452 2.003119,18.031752 2.370387,14.995306 
	C8.597337,11.691967 13.708925,7.683484 16.000000,1.000000 
	C19.030594,1.000000 22.061186,1.000000 25.545891,1.000000 
z"/>
<path fill="#9A519E" opacity="1.000000" stroke="none" 
	d="
M24.968784,54.001221 
	C20.586693,57.893345 16.244738,61.831947 11.809272,65.662262 
	C8.511743,68.509888 5.092999,71.217155 1.364122,73.993469 
	C1.000000,71.629440 1.000000,69.258888 1.364205,66.437263 
	C4.959230,63.307262 8.234136,60.679390 11.410343,57.937195 
	C15.967993,54.002327 20.453665,49.984089 25.051842,46.439743 
	C25.078674,49.252441 25.023731,51.626831 24.968784,54.001221 
z"/>
<path fill="#8358AE" opacity="1.000000" stroke="none" 
	d="
M1.000000,92.444168 
	C2.805246,91.028015 4.895415,90.368851 6.365980,89.029427 
	C12.442579,83.494644 18.331511,77.753830 24.710903,72.483063 
	C25.078539,75.251511 25.024670,77.625618 24.970802,79.999725 
	C20.588268,83.892105 16.245855,87.830956 11.809978,91.661560 
	C8.512182,94.509377 5.093235,97.216888 1.364126,99.993446 
	C1.000000,97.629440 1.000000,95.258888 1.000000,92.444168 
z"/>
<path fill="#A24E99" opacity="1.000000" stroke="none" 
	d="
M24.970062,46.001438 
	C20.453665,49.984089 15.967993,54.002327 11.410343,57.937195 
	C8.234136,60.679390 4.959230,63.307262 1.364205,65.993103 
	C1.000000,63.958332 1.000000,61.916668 1.000000,59.437500 
	C5.385853,55.114159 9.734532,51.185249 14.169819,47.356674 
	C17.469645,44.508240 20.881662,41.789772 24.688007,39.438072 
	C25.078220,41.908962 25.024139,43.955200 24.970062,46.001438 
z"/>
<path fill="#6862BF" opacity="1.000000" stroke="none" 
	d="
M103.997383,23.793186 
	C104.896980,22.129799 105.501160,20.190224 106.750542,18.853859 
	C110.799011,14.523561 115.150871,10.477951 119.236252,6.180446 
	C120.412506,4.943120 121.083595,3.225561 121.993149,1.364089 
	C124.700012,1.000000 127.400024,1.000000 130.507141,1.342607 
	C125.622528,7.277030 120.258377,12.803159 115.088554,18.505465 
	C113.745758,19.986565 113.010277,22.018267 111.565292,23.921558 
	C108.755623,23.961761 106.376503,23.877474 103.997383,23.793186 
z"/>
<path fill="#6961BF" opacity="1.000000" stroke="none" 
	d="
M1.000000,121.437500 
	C2.687260,120.146027 4.740833,119.653381 5.999837,118.376991 
	C12.216396,112.074539 18.222641,105.564636 24.719242,99.511826 
	C25.080971,102.929703 25.026529,105.963661 24.629143,109.042816 
	C19.816431,113.133011 15.470206,117.327072 10.833224,121.170311 
	C7.771718,123.707771 4.292303,125.741005 1.000001,128.000000 
	C1.000000,125.958336 1.000000,123.916664 1.000000,121.437500 
z"/>
<path fill="#5966C7" opacity="1.000000" stroke="none" 
	d="
M144.555832,1.000001 
	C140.892044,5.608060 136.738007,10.176163 132.693909,14.839597 
	C130.377029,17.511301 128.238739,20.337898 125.579910,23.573961 
	C122.759438,23.969406 120.379112,23.885649 118.008575,23.450054 
	C120.236794,20.340681 122.374428,17.513094 124.691505,14.841107 
	C128.736145,10.176944 132.891205,5.608535 137.000000,1.000000 
	C139.370560,1.000000 141.741104,1.000000 144.555832,1.000001 
z"/>
<path fill="#6264C3" opacity="1.000000" stroke="none" 
	d="
M1.000001,128.428467 
	C4.292303,125.741005 7.771718,123.707771 10.833224,121.170311 
	C15.470206,117.327072 19.816431,113.133011 24.710823,109.474945 
	C25.080444,111.906693 25.025434,113.951500 24.970428,115.996315 
	C22.559963,117.917946 20.004187,119.685677 17.770615,121.794655 
	C13.674603,125.662163 9.788221,129.750839 5.771596,133.703781 
	C4.559303,134.896851 3.359055,136.949951 1.252414,134.185211 
	C1.000000,132.285645 1.000000,130.571289 1.000001,128.428467 
z"/>
<path fill="#8753A4" opacity="1.000000" stroke="none" 
	d="
M64.989594,23.803036 
	C66.005394,22.023691 66.742645,19.991800 68.086334,18.509741 
	C73.257378,12.806205 78.622528,7.278656 83.957649,1.342741 
	C86.041664,1.000000 88.083336,1.000000 90.562500,1.000002 
	C89.958435,2.574634 89.055435,4.265298 87.851028,5.703569 
	C82.959343,11.545123 77.975151,17.309206 72.583389,23.578484 
	C69.757668,23.971085 67.373634,23.887060 64.989594,23.803036 
z"/>
<path fill="#A04D96" opacity="1.000000" stroke="none" 
	d="
M38.995075,23.790628 
	C41.749474,20.607693 44.448528,17.374685 47.271786,14.254047 
	C51.102886,10.019403 55.029079,5.870787 58.957241,1.342636 
	C61.041668,1.000000 63.083332,1.000000 65.562500,0.999999 
	C61.891644,5.608586 57.737408,10.177382 53.692646,14.841123 
	C51.374912,17.513550 49.235023,20.340225 46.573509,23.570045 
	C43.752991,23.958633 41.374035,23.874630 38.995075,23.790628 
z"/>
<path fill="#69AEFC" opacity="1.000000" stroke="none" 
	d="
M183.500000,181.000000 
	C182.982513,132.316605 182.965027,83.633202 182.955658,34.105583 
	C183.017181,32.502426 183.070572,31.743488 183.342926,30.990955 
	C183.561890,30.997362 184.000000,31.000000 184.000000,31.000000 
	C184.000000,81.000000 184.000000,131.000000 183.500000,181.000000 
z"/>
<path fill="#6163C2" opacity="1.000000" stroke="none" 
	d="
M136.571533,1.000000 
	C132.891205,5.608535 128.736145,10.176944 124.691505,14.841107 
	C122.374428,17.513094 120.236794,20.340681 117.592697,23.575298 
	C115.443291,23.967276 113.719574,23.882174 111.995850,23.797070 
	C113.010277,22.018267 113.745758,19.986565 115.088554,18.505465 
	C120.258377,12.803159 125.622528,7.277030 130.957123,1.342607 
	C132.714355,1.000000 134.428711,1.000000 136.571533,1.000000 
z"/>
<path fill="#D03E7A" opacity="1.000000" stroke="none" 
	d="
M15.535349,1.000000 
	C13.708925,7.683484 8.597337,11.691967 2.368043,14.530312 
	C2.001340,9.715377 2.000670,5.357688 2.000000,1.000000 
	C6.356900,1.000000 10.713799,1.000000 15.535349,1.000000 
z"/>
<path fill="#74A5F0" opacity="1.000000" stroke="none" 
	d="
M184.000000,30.531342 
	C184.000000,31.000000 183.561890,30.997362 183.301956,30.527887 
	C182.988220,25.380835 182.934418,20.703255 182.920898,15.566461 
	C182.936447,11.740847 182.911758,8.374448 182.887054,5.008049 
	C182.923691,3.939480 182.960342,2.870910 182.998474,1.401173 
	C183.333328,1.652335 183.952301,2.302647 183.956909,2.957296 
	C184.020706,11.992073 184.000000,21.027452 184.000000,30.531342 
z"/>
<path fill="#CD3276" opacity="1.000000" stroke="none" 
	d="
M1.500000,1.000000 
	C2.000670,5.357688 2.001340,9.715377 2.004354,14.538059 
	C2.003119,18.031752 1.999539,21.060452 1.997986,24.542820 
	C1.821216,25.544216 1.642420,26.091944 1.231812,26.819836 
	C1.000000,18.333334 1.000000,9.666667 1.500000,1.000000 
z"/>
<path fill="#6961BF" opacity="1.000000" stroke="none" 
	d="
M1.000000,118.250000 
	C1.099483,118.269966 1.198966,118.539932 1.149225,118.904953 
	C1.000000,119.000000 1.000000,118.500000 1.000000,118.250000 
z"/>
<path fill="#9A519E" opacity="1.000000" stroke="none" 
	d="
M1.000000,80.250000 
	C1.099441,80.269913 1.198882,80.539833 1.149161,80.904877 
	C1.000000,81.000000 1.000000,80.500000 1.000000,80.250000 
z"/>
<path fill="#0A0B0C" opacity="1.000000" stroke="none" 
	d="
M111.565292,23.921562 
	C113.719574,23.882174 115.443291,23.967276 117.582901,23.927135 
	C120.379112,23.885649 122.759438,23.969406 125.570023,23.925488 
	C128.705292,23.889259 131.410324,23.980707 134.557098,23.970348 
	C136.729935,23.954651 138.461044,24.040760 140.608292,23.992994 
	C146.043304,23.940315 151.062149,24.021515 156.679642,24.303581 
	C157.727066,24.858736 158.175858,25.213024 158.552368,25.857376 
	C158.570587,26.727831 158.661102,27.308222 158.640350,28.352871 
	C158.583618,34.157085 158.638153,39.497036 158.692673,44.836990 
	C158.587067,51.146858 158.397308,57.456635 158.390244,63.766613 
	C158.357437,93.038132 158.375290,122.309708 158.375000,151.581268 
	C158.374985,153.384506 158.374985,155.187759 158.374985,157.830276 
	C124.265274,157.830276 90.592232,157.830276 56.458992,157.928650 
	C49.975338,157.966843 43.951893,157.906677 37.469963,157.944427 
	C33.645142,157.964874 30.278799,157.887421 26.456520,157.862946 
	C25.714603,151.917542 25.428619,145.919113 25.056732,139.458740 
	C25.026571,137.604706 25.082314,136.212631 25.055477,134.408951 
	C25.029514,131.293182 25.086134,128.589035 25.059269,125.440506 
	C25.028702,122.292542 25.081615,119.588974 25.052479,116.440857 
	C25.025434,113.951500 25.080444,111.906693 25.053770,109.429749 
	C25.026529,105.963661 25.080971,102.929703 25.053627,99.447357 
	C25.024616,95.964645 25.077391,92.930313 25.049496,89.447403 
	C25.023422,86.295364 25.078018,83.591896 25.051708,80.444077 
	C25.024670,77.625618 25.078539,75.251511 25.051567,72.438858 
	C25.024551,69.296318 25.078379,66.592339 25.050894,63.444061 
	C25.023476,60.296341 25.077370,57.592918 25.050024,54.445358 
	C25.023731,51.626831 25.078674,49.252441 25.051840,46.439743 
	C25.024139,43.955200 25.078220,41.908962 25.050148,39.430714 
	C25.024151,36.295296 25.080309,33.591892 25.054066,30.444473 
	C24.478195,25.356176 26.541237,23.362648 31.581562,23.899277 
	C34.045689,23.858803 36.094795,23.944895 38.569489,23.910809 
	C41.374035,23.874630 43.752991,23.958633 46.563660,23.921825 
	C49.706699,23.880136 52.418030,23.959255 55.566246,23.913155 
	C58.706982,23.870634 61.410828,23.953331 64.552139,23.919533 
	C67.373634,23.887060 69.757668,23.971085 72.573692,23.930658 
	C75.710548,23.883459 78.415421,23.960712 81.557617,23.919207 
	C84.705070,23.885614 87.415199,23.970783 90.562042,23.931881 
	C95.032265,23.886486 99.065781,23.965158 103.548340,23.918510 
	C106.376503,23.877474 108.755623,23.961761 111.565292,23.921562 
M62.017216,40.632019 
	C57.692352,40.632595 53.367485,40.634235 49.042622,40.633511 
	C41.452610,40.632233 41.445980,40.632004 41.889011,48.403545 
	C41.915173,48.862423 42.182659,49.307545 42.398609,49.935860 
	C44.334618,50.120770 46.272163,50.305824 48.485664,50.517239 
	C48.485664,60.745605 48.485664,70.812256 48.485664,80.860680 
	C41.035892,82.077660 40.786682,82.482719 42.533028,91.184143 
	C48.668144,91.184143 54.947018,91.188469 61.225887,91.182899 
	C67.189140,91.177612 68.612129,89.873802 66.988205,84.253082 
	C66.468590,82.454605 63.141624,81.467216 60.623848,79.792610 
	C60.623848,70.707832 60.623848,60.676193 60.623848,50.410007 
	C61.929234,50.336193 62.899178,50.305180 63.864357,50.220100 
	C64.840874,50.134014 65.812668,49.994419 66.743088,49.883446 
	C68.000450,41.735970 67.762573,41.176857 62.017216,40.632019 
M108.650330,76.907822 
	C108.684669,66.108940 108.807861,55.308659 108.637062,44.513020 
	C108.616501,43.213142 107.173615,41.030540 106.095772,40.828800 
	C103.288963,40.303444 100.318573,40.652096 97.369553,40.652096 
	C97.237389,42.275608 97.113876,43.094803 97.112640,43.914177 
	C97.097588,53.882992 97.238213,63.854420 97.051414,73.819786 
	C96.922379,80.703445 91.499725,83.411339 85.673729,79.718842 
	C84.188705,78.777634 82.795883,77.690941 81.134186,76.510132 
	C78.902489,79.127945 76.895119,81.482620 74.774590,83.970032 
	C80.087082,91.270279 87.341270,92.541351 95.235069,91.361565 
	C102.910301,90.214455 106.916786,85.052811 108.650330,76.907822 
M39.947445,140.403488 
	C39.836864,144.134018 42.678486,143.026474 44.556950,143.036728 
	C58.370850,143.112228 72.185364,143.088303 85.999619,143.061890 
	C87.264862,143.059479 88.529671,142.820648 89.660568,142.705276 
	C89.660568,139.729935 89.660568,137.160583 89.660568,134.623932 
	C72.927917,134.623932 56.566589,134.623932 39.941891,134.623932 
	C39.941891,136.503510 39.941891,137.990906 39.947445,140.403488 
z"/>
<path fill="#2379EE" opacity="1.000000" stroke="none" 
	d="
M159.016876,45.121597 
	C158.638153,39.497036 158.583618,34.157085 158.950958,28.627151 
	C159.756851,31.097683 160.140884,33.758198 160.563416,36.685482 
	C165.724289,31.613985 170.463531,26.824564 175.360367,22.202108 
	C177.713638,19.980707 180.364517,18.074577 182.880615,16.025677 
	C182.934418,20.703255 182.988220,25.380835 183.082977,30.521481 
	C183.070572,31.743488 183.017181,32.502426 182.918152,33.639458 
	C176.948807,40.141865 171.038116,46.278866 165.090485,52.379879 
	C163.887665,53.613728 162.545212,54.711472 160.594818,56.482426 
	C160.098450,52.097313 159.719772,48.751759 159.016876,45.121597 
z"/>
<path fill="#3274E4" opacity="1.000000" stroke="none" 
	d="
M182.920883,15.566462 
	C180.364517,18.074577 177.713638,19.980707 175.360367,22.202108 
	C170.463531,26.824564 165.724289,31.613985 160.563416,36.685482 
	C160.140884,33.758198 159.756851,31.097683 159.062225,28.162891 
	C158.661102,27.308222 158.570587,26.727831 158.687576,25.472168 
	C158.949997,24.531746 159.004898,24.266596 159.059799,24.001448 
	C161.087189,23.120104 163.567307,22.708792 165.059372,21.271660 
	C170.075790,16.439917 174.711899,11.215172 179.574677,6.219787 
	C180.196442,5.581055 181.297455,5.408839 182.531754,5.014277 
	C182.911758,8.374448 182.936447,11.740847 182.920883,15.566462 
z"/>
<path fill="#3A63C1" opacity="1.000000" stroke="none" 
	d="
M158.890289,23.796854 
	C159.004898,24.266596 158.949997,24.531746 158.759857,25.182106 
	C158.175858,25.213024 157.727066,24.858736 157.144485,24.248245 
	C157.580719,23.858782 158.150742,23.725521 158.890289,23.796854 
z"/>
<path fill="#F2F2F2" opacity="1.000000" stroke="none" 
	d="
M62.458691,40.631180 
	C67.762573,41.176857 68.000450,41.735970 66.743088,49.883446 
	C65.812668,49.994419 64.840874,50.134014 63.864357,50.220100 
	C62.899178,50.305180 61.929234,50.336193 60.623848,50.410007 
	C60.623848,60.676193 60.623848,70.707832 60.623848,79.792610 
	C63.141624,81.467216 66.468590,82.454605 66.988205,84.253082 
	C68.612129,89.873802 67.189140,91.177612 61.225887,91.182899 
	C54.947018,91.188469 48.668144,91.184143 42.533028,91.184143 
	C40.786682,82.482719 41.035892,82.077660 48.485664,80.860680 
	C48.485664,70.812256 48.485664,60.745605 48.485664,50.517239 
	C46.272163,50.305824 44.334618,50.120770 42.398609,49.935860 
	C42.182659,49.307545 41.915173,48.862423 41.889011,48.403545 
	C41.445980,40.632004 41.452610,40.632233 49.042622,40.633511 
	C53.367485,40.634235 57.692352,40.632595 62.458691,40.631180 
z"/>
<path fill="#EFEFEF" opacity="1.000000" stroke="none" 
	d="
M108.598846,77.338791 
	C106.916786,85.052811 102.910301,90.214455 95.235069,91.361565 
	C87.341270,92.541351 80.087082,91.270279 74.774590,83.970032 
	C76.895119,81.482620 78.902489,79.127945 81.134186,76.510132 
	C82.795883,77.690941 84.188705,78.777634 85.673729,79.718842 
	C91.499725,83.411339 96.922379,80.703445 97.051414,73.819786 
	C97.238213,63.854420 97.097588,53.882992 97.112640,43.914177 
	C97.113876,43.094803 97.237389,42.275608 97.369553,40.652096 
	C100.318573,40.652096 103.288963,40.303444 106.095772,40.828800 
	C107.173615,41.030540 108.616501,43.213142 108.637062,44.513020 
	C108.807861,55.308659 108.684669,66.108940 108.598846,77.338791 
z"/>
<path fill="#EDEDED" opacity="1.000000" stroke="none" 
	d="
M39.944668,139.940887 
	C39.941891,137.990906 39.941891,136.503510 39.941891,134.623932 
	C56.566589,134.623932 72.927917,134.623932 89.660568,134.623932 
	C89.660568,137.160583 89.660568,139.729935 89.660568,142.705276 
	C88.529671,142.820648 87.264862,143.059479 85.999619,143.061890 
	C72.185364,143.088303 58.370850,143.112228 44.556950,143.036728 
	C42.678486,143.026474 39.836864,144.134018 39.944668,139.940887 
z"/>
</svg>