<svg version="1.1" id="Layer_1" xmlns="http://www.w3.org/2000/svg" xmlns:xlink="http://www.w3.org/1999/xlink" x="0px" y="0px"
	 width="100%" viewBox="0 0 478 457" enable-background="new 0 0 478 457" xml:space="preserve">
<path fill="#000000" opacity="1.000000" stroke="none" 
	d="
M290.000000,458.000000 
	C193.333328,458.000000 97.166664,458.000000 1.000000,458.000000 
	C1.000000,305.666656 1.000000,153.333328 1.000000,1.000000 
	C160.333328,1.000000 319.666656,1.000000 479.000000,1.000000 
	C479.000000,153.333328 479.000000,305.666656 479.000000,458.000000 
	C416.166656,458.000000 353.333344,458.000000 290.000000,458.000000 
M415.134155,283.290070 
	C414.772949,282.483093 414.411774,281.676117 414.009735,280.106964 
	C413.536194,278.525452 413.086273,276.936401 412.585449,275.363586 
	C407.985992,260.919098 403.377777,246.477463 399.409821,231.758713 
	C403.061859,227.664886 406.803253,223.646667 410.344574,219.459229 
	C415.405487,213.474945 415.339111,213.426147 409.847992,208.270844 
	C409.656677,208.091217 409.700775,207.660843 409.344604,205.959030 
	C412.444580,203.520981 416.155518,200.602463 420.156555,197.455780 
	C416.886902,194.647293 414.655151,192.730286 412.293762,190.701950 
	C415.431854,187.865250 418.348083,185.229126 421.249725,182.606186 
	C419.883514,180.377563 419.418030,178.619720 418.313019,177.997375 
	C414.554901,175.880844 415.502686,172.621414 416.087860,169.660843 
	C418.375854,158.085800 420.405731,146.427673 423.429932,135.039001 
	C426.590302,123.137459 427.182709,111.927742 422.161804,100.161461 
	C417.213257,88.564659 413.802490,76.298332 409.979858,64.242416 
	C408.814606,60.567413 407.006073,59.712635 403.813995,61.439793 
	C402.407959,62.200558 401.179779,63.290020 399.146637,64.407684 
	C393.567657,66.169441 387.906403,67.708122 382.423553,69.730530 
	C354.687469,79.961311 326.959808,90.217697 299.318878,100.701530 
	C292.512451,103.283104 285.730621,104.436172 278.447327,104.374283 
	C251.156250,104.142342 223.861359,104.374847 196.569885,104.169037 
	C192.362610,104.137321 188.013031,103.183479 183.994553,101.854103 
	C174.387604,98.675964 164.938889,95.019470 154.870819,91.112289 
	C151.610916,90.040588 148.351013,88.968887 144.607620,87.376945 
	C140.259705,85.743713 135.920288,84.087433 131.562393,82.481247 
	C113.046700,75.656898 94.525528,68.847404 75.523003,61.561340 
	C72.449379,59.626595 70.919685,60.557144 69.797569,63.984093 
	C64.476082,80.236000 58.842178,96.386063 53.587566,112.658951 
	C52.764706,115.207222 52.797707,118.305138 53.327530,120.971542 
	C56.269302,135.776489 59.223568,150.589539 62.729919,165.266891 
	C64.292480,171.807678 64.819725,177.300858 57.777103,180.777298 
	C57.580734,180.874222 57.573009,181.353302 57.384193,181.946991 
	C60.697449,184.645035 64.094559,187.411362 67.745033,190.384018 
	C64.867317,192.767517 62.482704,194.742584 59.399414,197.296341 
	C63.413418,200.682419 67.032448,203.735321 70.952019,207.041748 
	C68.172852,209.589493 66.274689,211.329590 64.077293,213.343994 
	C66.070602,215.697327 67.961761,217.763641 69.664635,219.974960 
	C73.280869,224.670837 76.799095,229.442154 80.154640,234.919876 
	C77.903488,241.854141 75.615486,248.776688 73.408730,255.725052 
	C68.543594,271.043793 63.719425,286.375580 58.356266,302.233673 
	C55.919071,307.842560 55.453388,313.276764 57.416653,319.409088 
	C62.772434,336.138000 67.436264,353.087952 72.413696,369.938721 
	C74.688782,377.640808 77.056664,385.315491 79.425705,393.145569 
	C98.880653,387.793640 117.673813,382.551971 136.510895,377.473267 
	C145.429413,375.068695 154.431931,372.975739 163.938721,371.277649 
	C179.198120,382.449677 194.433807,393.654510 209.762436,404.730713 
	C210.973419,405.605774 212.828293,405.924316 214.386841,405.932343 
	C231.206970,406.018921 248.028061,406.041748 264.847748,405.923279 
	C266.700897,405.910217 268.853180,405.345551 270.348480,404.297363 
	C283.520050,395.064545 296.575470,385.665985 309.662048,376.311951 
	C312.208191,374.492004 314.740265,372.652252 318.049377,370.959930 
	C333.897125,375.213745 349.746857,379.460205 365.591949,383.723724 
	C377.076660,386.814056 388.555237,389.927002 400.287872,393.097778 
	C407.850708,367.579376 415.211365,342.427826 422.824005,317.352814 
	C424.165192,312.934998 424.276306,308.966949 421.996674,304.990662 
	C421.996674,304.990662 422.045197,304.969421 422.065643,304.209473 
	C421.040741,301.507080 420.015869,298.804688 419.033264,296.002502 
	C419.033264,296.002502 418.933807,295.959412 418.937195,295.194916 
	C417.653564,291.438049 416.369965,287.681213 415.019806,283.966980 
	C415.019806,283.966980 415.098846,283.966827 415.134155,283.290070 
z"/>
<path fill="#F4841F" opacity="1.000000" stroke="none" 
	d="
M58.878540,301.702026 
	C63.719425,286.375580 68.543594,271.043793 73.408730,255.725052 
	C75.615486,248.776688 77.903488,241.854141 80.511917,234.316833 
	C85.665817,231.798050 90.345177,229.481598 95.279839,228.037537 
	C114.325172,222.464157 133.452026,217.169388 152.884415,211.769043 
	C153.817886,211.503845 154.415466,211.240387 155.330002,210.852631 
	C156.092743,210.648788 156.538528,210.569244 156.973419,210.915894 
	C155.223938,214.801422 153.708588,218.396667 151.702103,221.692932 
	C146.927734,229.536270 141.921143,237.238220 137.090530,245.309845 
	C137.778549,246.752182 138.384384,247.881973 139.015289,249.383667 
	C139.524933,251.157211 139.851425,252.639374 140.518341,253.948074 
	C147.656342,267.955383 154.821152,281.949249 162.046448,295.911682 
	C163.615387,298.943542 165.454178,301.835754 167.168671,304.792297 
	C168.452179,303.519287 168.707245,302.752899 168.683487,301.995300 
	C168.486374,295.708557 168.113495,289.423645 168.101486,283.137604 
	C168.098846,281.753815 169.321701,280.367737 170.218964,279.050842 
	C170.457703,279.118988 170.938660,279.242401 171.106201,279.365112 
	C171.501312,279.656952 171.756592,279.749603 172.304382,279.850159 
	C172.743454,279.997314 172.917740,280.060181 173.362823,280.330322 
	C174.757828,280.688568 175.882019,280.839478 177.003113,280.995178 
	C177.000000,281.000000 177.007446,280.990814 177.275665,281.202209 
	C178.209091,281.507904 178.874298,281.602173 179.683228,281.680237 
	C179.826935,281.664062 180.062042,281.832550 180.195374,282.192810 
	C182.377106,282.926636 184.425507,283.300171 186.642242,283.677948 
	C186.810562,283.682190 187.087952,283.873169 187.277222,284.196533 
	C189.440704,284.942108 191.414902,285.364288 193.550507,285.791687 
	C193.711899,285.796875 193.983154,285.972168 194.180969,286.270905 
	C198.806366,287.691956 203.233963,288.814240 207.995209,289.953613 
	C208.551559,289.973724 208.774246,289.976837 209.237717,290.261597 
	C209.970764,291.568756 210.696457,292.546448 210.917419,293.627380 
	C212.346207,300.616638 213.623993,307.636719 215.037033,314.629333 
	C215.735168,318.084045 216.616196,321.501801 217.414459,324.936279 
	C218.013641,324.867828 218.612808,324.799408 219.211990,324.730957 
	C218.439240,302.124207 217.666473,279.517487 216.894241,256.481049 
	C216.597519,253.365585 216.300278,250.679825 216.004776,247.525986 
	C215.963913,241.399338 216.171326,235.725815 215.833633,230.084930 
	C214.633865,210.043808 213.248306,190.013794 212.093018,169.629318 
	C213.098450,165.771240 214.165802,162.178345 209.031021,160.974945 
	C209.002502,160.996460 209.043045,160.937607 209.035767,160.587860 
	C208.682922,159.160767 208.337372,158.083450 207.987000,156.611832 
	C207.505554,154.481644 207.149826,152.701492 206.533417,151.016739 
	C201.036926,135.993835 195.494415,120.987755 190.436279,105.971504 
	C221.818298,105.968506 252.729538,105.955544 283.640747,105.987320 
	C289.017975,105.992844 289.686920,106.913177 287.882751,111.802864 
	C284.896393,119.896492 281.761292,127.935097 278.743103,136.017151 
	C275.497345,144.708649 272.313995,153.423477 269.076721,162.107117 
	C269.050018,162.086105 269.104218,162.045120 268.891418,162.231995 
	C268.508759,162.754700 268.338898,163.090530 268.166626,163.701294 
	C268.081970,164.332977 267.999756,164.689713 267.725891,165.322540 
	C267.694153,167.395966 267.854034,169.193283 267.973877,171.408295 
	C267.621063,174.617889 267.175415,177.402435 267.020233,180.203049 
	C266.553101,188.633591 266.278839,197.075089 265.782990,205.503693 
	C264.947693,219.702591 263.999786,233.894867 263.078583,248.496124 
	C263.055359,250.266052 263.052765,251.629745 262.822937,253.340851 
	C262.062988,264.615234 261.278107,275.537262 261.061707,286.470551 
	C260.793854,300.003662 260.997559,313.546112 260.997559,327.084534 
	C262.533203,323.460541 263.224182,319.766968 264.048157,316.103302 
	C266.011444,307.373749 268.037537,298.658325 270.361572,289.945862 
	C271.477844,289.695770 272.270813,289.436951 273.445740,289.093201 
	C278.742645,287.638763 283.702148,286.409454 288.561707,284.865601 
	C295.266815,282.735474 301.896545,280.368134 308.987793,278.121704 
	C310.275024,278.096619 311.133026,278.052155 311.991394,278.473541 
	C311.991730,287.271179 311.991730,295.602966 311.991730,304.926819 
	C313.357391,303.044037 314.445160,301.874084 315.157684,300.508362 
	C319.675140,291.849274 324.179474,283.181885 328.551483,274.448792 
	C332.780457,266.001312 336.845001,257.471497 341.080750,248.678802 
	C341.749634,247.284439 342.319580,246.189148 342.742859,244.789673 
	C338.923615,238.779114 335.371216,232.990570 331.542297,227.391068 
	C328.186401,222.483246 324.520081,217.787674 321.112366,212.682831 
	C321.942993,211.835815 322.652100,211.304321 323.737640,210.847839 
	C328.105347,211.953293 332.121643,212.896149 336.083740,214.028793 
	C356.987366,220.004501 377.877350,226.028030 398.772064,232.034988 
	C403.377777,246.477463 407.985992,260.919098 412.585449,275.363586 
	C413.086273,276.936401 413.536194,278.525452 414.013092,280.829529 
	C414.377258,282.356995 414.738037,283.161926 415.098816,283.966827 
	C415.098846,283.966827 415.019806,283.966980 415.016205,284.351410 
	C416.319672,288.477020 417.626740,292.218231 418.933807,295.959412 
	C418.933807,295.959412 419.033264,296.002502 418.998260,296.448608 
	C419.990570,299.586273 421.017883,302.277863 422.045197,304.969421 
	C422.045197,304.969421 421.996674,304.990662 421.980957,305.395325 
	C421.858093,307.853424 421.750977,309.906860 421.636658,312.098083 
	C398.635742,312.098083 376.276337,312.098083 353.494019,312.089935 
	C340.769989,312.387512 328.467743,312.657440 316.168762,313.033325 
	C314.054626,313.097961 311.954315,313.613464 309.526123,314.021851 
	C296.065338,324.189606 282.926086,334.256195 269.454865,344.203918 
	C265.835388,342.778534 262.588226,340.481934 259.252960,340.345947 
	C247.994492,339.886902 236.699036,340.412476 225.429337,340.117828 
	C219.796539,339.970581 214.590424,340.401245 209.828918,344.020081 
	C203.598999,339.329132 197.690918,334.794830 191.750443,330.303375 
	C184.528442,324.843048 177.279190,319.418762 169.687546,313.759888 
	C154.585190,313.062347 139.837021,312.583801 124.615135,312.082764 
	C105.814247,312.044708 87.487083,312.035339 69.159935,312.008179 
	C65.766037,312.003143 61.062027,313.233643 59.347061,311.514832 
	C57.633690,309.797638 58.911819,305.095581 58.878540,301.702026 
z"/>
<path fill="#763E1B" opacity="1.000000" stroke="none" 
	d="
M267.917542,165.046448 
	C267.999756,164.689713 268.081970,164.332977 268.383179,163.514542 
	C268.769562,162.716919 268.936890,162.381027 269.104218,162.045120 
	C269.104218,162.045120 269.050018,162.086105 269.398712,161.995178 
	C270.035858,161.738754 270.343994,161.600006 270.609955,161.403961 
	C311.559326,131.218323 352.520996,101.049324 393.413696,70.787079 
	C395.849518,68.984467 397.731293,66.433167 399.870850,64.230247 
	C401.179779,63.290020 402.407959,62.200558 403.813995,61.439793 
	C407.006073,59.712635 408.814606,60.567413 409.979858,64.242416 
	C413.802490,76.298332 417.213257,88.564659 422.161804,100.161461 
	C427.182709,111.927742 426.590302,123.137459 423.429932,135.039001 
	C420.405731,146.427673 418.375854,158.085800 416.087860,169.660843 
	C415.502686,172.621414 414.554901,175.880844 418.313019,177.997375 
	C419.418030,178.619720 419.883514,180.377563 421.249725,182.606186 
	C418.348083,185.229126 415.431854,187.865250 412.293762,190.701950 
	C414.655151,192.730286 416.886902,194.647293 420.156555,197.455780 
	C416.155518,200.602463 412.444580,203.520981 409.344604,205.959030 
	C409.700775,207.660843 409.656677,208.091217 409.847992,208.270844 
	C415.339111,213.426147 415.405487,213.474945 410.344574,219.459229 
	C406.803253,223.646667 403.061859,227.664886 399.090942,231.896851 
	C377.877350,226.028030 356.987366,220.004501 336.083740,214.028793 
	C332.121643,212.896149 328.105347,211.953293 323.425720,210.644363 
	C320.182587,209.181229 317.627777,207.996613 314.889709,206.559784 
	C313.250702,205.161118 311.794922,204.014648 310.160645,202.576996 
	C303.001801,196.503204 296.021454,190.720627 289.022400,184.966980 
	C289.003662,184.995895 289.060577,184.957062 288.888580,184.670670 
	C284.845947,181.058243 280.878113,177.837280 277.134277,174.374146 
	C273.928772,171.408966 270.979919,168.166351 267.917542,165.046448 
z"/>
<path fill="#763E1B" opacity="1.000000" stroke="none" 
	d="
M156.984299,210.489700 
	C156.538528,210.569244 156.092743,210.648788 154.996765,210.852966 
	C153.747192,211.241989 153.147858,211.506393 152.548508,211.770782 
	C133.452026,217.169388 114.325172,222.464157 95.279839,228.037537 
	C90.345177,229.481598 85.665817,231.798050 80.613342,233.948181 
	C76.799095,229.442154 73.280869,224.670837 69.664635,219.974960 
	C67.961761,217.763641 66.070602,215.697327 64.077293,213.343994 
	C66.274689,211.329590 68.172852,209.589493 70.952019,207.041748 
	C67.032448,203.735321 63.413418,200.682419 59.399414,197.296341 
	C62.482704,194.742584 64.867317,192.767517 67.745033,190.384018 
	C64.094559,187.411362 60.697449,184.645035 57.384193,181.946991 
	C57.573009,181.353302 57.580734,180.874222 57.777103,180.777298 
	C64.819725,177.300858 64.292480,171.807678 62.729919,165.266891 
	C59.223568,150.589539 56.269302,135.776489 53.327530,120.971542 
	C52.797707,118.305138 52.764706,115.207222 53.587566,112.658951 
	C58.842178,96.386063 64.476082,80.236000 69.797569,63.984093 
	C70.919685,60.557144 72.449379,59.626595 75.672455,62.029564 
	C87.214439,70.999191 98.606964,79.500587 109.999741,88.000992 
	C110.000000,88.000000 109.998077,88.000702 110.176590,88.282135 
	C117.904854,94.030731 125.454613,99.497902 133.127625,105.043877 
	C133.250854,105.122681 133.540344,105.164810 133.726166,105.459244 
	C137.914749,108.556389 141.917511,111.359100 145.915939,114.120102 
	C145.911621,114.078407 145.859375,114.143982 146.021622,114.436249 
	C156.416992,122.207108 166.650101,129.685699 176.932251,137.144775 
	C176.981277,137.125275 176.875809,137.125763 177.040253,137.405487 
	C178.785278,138.813309 180.365845,139.941406 181.974106,141.041962 
	C182.001785,141.014435 181.932343,141.049332 182.122437,141.323822 
	C185.855133,144.096863 189.397766,146.595428 192.970154,149.063431 
	C192.999908,149.032867 192.921219,149.065659 193.097168,149.348373 
	C195.835419,151.442520 198.397690,153.253952 200.981644,155.038879 
	C201.003311,155.012405 200.943161,155.044510 201.123001,155.324646 
	C203.882919,157.382401 206.462982,159.160004 209.043045,160.937607 
	C209.043045,160.937607 209.002502,160.996460 209.205261,161.285980 
	C213.563492,165.969696 209.064560,168.175766 206.814880,171.109726 
	C206.338730,171.394073 206.131729,171.625565 205.755890,172.030670 
	C205.328583,172.426071 205.129807,172.701233 204.960388,172.964325 
	C204.989761,172.952240 204.941895,172.910522 204.649689,172.994690 
	C203.620026,173.736786 202.882568,174.394730 201.880524,175.178207 
	C201.072540,175.855652 200.529144,176.407578 199.661484,177.050919 
	C197.478409,179.014465 195.619598,180.886597 193.782959,182.821075 
	C193.805130,182.883438 193.929642,182.838516 193.625397,182.840256 
	C192.861130,183.208511 192.401108,183.575043 191.962036,183.938339 
	C191.982956,183.935104 191.935562,183.922058 191.614456,184.008484 
	C189.500885,185.706146 187.708420,187.317398 185.957977,188.944092 
	C186.000015,188.959518 185.933517,188.899399 185.606003,188.994598 
	C181.835190,192.047455 178.391876,195.005127 174.967072,197.983398 
	C174.985565,198.004013 174.986572,197.948624 174.756943,198.058563 
	C174.329727,198.439056 174.132126,198.709641 173.964569,198.971954 
	C173.994629,198.963684 173.948441,198.921814 173.633240,199.024826 
	C171.522842,200.736053 169.727661,202.344254 167.955017,203.973816 
	C167.977570,203.995178 167.984314,203.933411 167.749969,204.041626 
	C167.317596,204.424271 167.119568,204.698669 166.946075,204.949478 
	C166.970612,204.925888 166.917404,204.883438 166.606293,204.982559 
	C164.842377,206.373001 163.389557,207.664337 161.958237,208.976959 
	C161.979721,208.998245 161.987045,208.938202 161.741180,209.046890 
	C161.259872,209.422333 161.024429,209.689102 160.460953,209.982941 
	C159.083374,210.169922 158.033844,210.329819 156.984299,210.489700 
z"/>
<path fill="#E17625" opacity="1.000000" stroke="none" 
	d="
M353.916962,312.098083 
	C376.276337,312.098083 398.635742,312.098083 421.636658,312.098083 
	C421.750977,309.906860 421.858093,307.853424 422.002808,305.378448 
	C424.276306,308.966949 424.165192,312.934998 422.824005,317.352814 
	C415.211365,342.427826 407.850708,367.579376 400.287872,393.097778 
	C388.555237,389.927002 377.076660,386.814056 365.591949,383.723724 
	C349.746857,379.460205 333.897125,375.213745 317.563354,370.649475 
	C316.981720,370.193573 316.886139,370.048157 316.866180,369.694092 
	C316.941803,369.485413 317.049744,369.053986 317.328247,368.863373 
	C318.375763,367.811951 319.256104,367.026489 319.897217,366.079102 
	C330.115601,350.979553 340.379333,335.909393 350.423309,320.694336 
	C352.094208,318.163177 352.777344,314.979980 353.916962,312.098083 
z"/>
<path fill="#E17625" opacity="1.000000" stroke="none" 
	d="
M58.617401,301.967834 
	C58.911819,305.095581 57.633690,309.797638 59.347061,311.514832 
	C61.062027,313.233643 65.766037,312.003143 69.159935,312.008179 
	C87.487083,312.035339 105.814247,312.044708 124.616806,312.440002 
	C125.617928,314.198395 125.910095,315.731598 126.704689,316.932281 
	C137.238892,332.850189 147.797241,348.752777 158.494675,364.561005 
	C159.710617,366.357880 161.806732,367.559113 163.516327,369.228943 
	C163.537933,369.421326 163.677673,369.782501 163.557648,370.007690 
	C163.423889,370.402466 163.410141,370.572021 163.396378,370.741638 
	C154.431931,372.975739 145.429413,375.068695 136.510895,377.473267 
	C117.673813,382.551971 98.880653,387.793640 79.425705,393.145569 
	C77.056664,385.315491 74.688782,377.640808 72.413696,369.938721 
	C67.436264,353.087952 62.772434,336.138000 57.416653,319.409088 
	C55.453388,313.276764 55.919071,307.842560 58.617401,301.967834 
z"/>
<path fill="#DA7529" opacity="1.000000" stroke="none" 
	d="
M399.508728,64.318970 
	C397.731293,66.433167 395.849518,68.984467 393.413696,70.787079 
	C352.520996,101.049324 311.559326,131.218323 270.609955,161.403961 
	C270.343994,161.600006 270.035858,161.738754 269.425415,162.016190 
	C272.313995,153.423477 275.497345,144.708649 278.743103,136.017151 
	C281.761292,127.935097 284.896393,119.896492 287.882751,111.802864 
	C289.686920,106.913177 289.017975,105.992844 283.640747,105.987320 
	C252.729538,105.955544 221.818298,105.968506 190.126465,105.783859 
	C177.934204,101.679520 166.522537,97.757599 154.719879,93.701317 
	C154.685501,94.011292 154.791824,93.052589 155.030609,91.959869 
	C155.163055,91.825844 155.426285,91.556122 155.426285,91.556122 
	C164.938889,95.019470 174.387604,98.675964 183.994553,101.854103 
	C188.013031,103.183479 192.362610,104.137321 196.569885,104.169037 
	C223.861359,104.374847 251.156250,104.142342 278.447327,104.374283 
	C285.730621,104.436172 292.512451,103.283104 299.318878,100.701530 
	C326.959808,90.217697 354.687469,79.961311 382.423553,69.730530 
	C387.906403,67.708122 393.567657,66.169441 399.508728,64.318970 
z"/>
<path fill="#BDAA9C" opacity="1.000000" stroke="none" 
	d="
M163.667542,371.009644 
	C163.410141,370.572021 163.423889,370.402466 163.962433,370.095520 
	C165.752548,370.356567 167.081619,370.618469 168.273270,371.174744 
	C179.510376,376.420197 190.717468,381.729919 201.951920,386.981140 
	C203.524811,387.716309 205.198624,388.235504 207.977844,389.293121 
	C207.977844,384.879791 207.977844,381.469940 208.356613,378.102814 
	C212.064972,377.142487 215.365921,375.405853 218.729538,375.274536 
	C228.648071,374.887207 238.595078,374.969757 248.523926,375.187958 
	C256.398468,375.360992 264.557983,373.516724 271.978577,378.376648 
	C272.000946,382.032288 272.000946,385.227478 272.000946,389.435150 
	C274.853210,388.293701 276.374481,387.781281 277.811523,387.092896 
	C283.490662,384.372253 289.062714,381.412170 294.826355,378.887726 
	C302.069946,375.715088 309.462372,372.882263 316.790558,369.902771 
	C316.886139,370.048157 316.981720,370.193573 317.178070,370.580322 
	C314.740265,372.652252 312.208191,374.492004 309.662048,376.311951 
	C296.575470,385.665985 283.520050,395.064545 270.348480,404.297363 
	C268.853180,405.345551 266.700897,405.910217 264.847748,405.923279 
	C248.028061,406.041748 231.206970,406.018921 214.386841,405.932343 
	C212.828293,405.924316 210.973419,405.605774 209.762436,404.730713 
	C194.433807,393.654510 179.198120,382.449677 163.667542,371.009644 
z"/>
<path fill="#DA7529" opacity="1.000000" stroke="none" 
	d="
M109.999489,88.001984 
	C98.606964,79.500587 87.214439,70.999191 75.914139,62.265137 
	C94.525528,68.847404 113.046700,75.656898 131.562393,82.481247 
	C135.920288,84.087433 140.259705,85.743713 144.788574,87.710846 
	C144.969513,88.044739 144.848053,88.192390 144.443024,88.148293 
	C137.754913,86.168755 131.406906,84.419159 125.204788,82.252014 
	C116.985466,79.380043 108.899956,76.126984 100.710365,73.166557 
	C98.918137,72.518684 96.929520,72.414101 95.031342,72.059326 
	C94.866173,72.557343 94.701004,73.055367 94.535828,73.553391 
	C98.391060,76.724792 102.330460,79.801384 106.061066,83.113174 
	C107.604324,84.483185 108.700165,86.357193 109.999489,88.001984 
z"/>
<path fill="#DA7529" opacity="1.000000" stroke="none" 
	d="
M145.030304,87.970963 
	C148.351013,88.968887 151.610916,90.040588 155.148560,91.334206 
	C155.426285,91.556122 155.163055,91.825844 154.620041,91.935547 
	C151.000702,90.760971 147.924377,89.476677 144.848053,88.192390 
	C144.848053,88.192390 144.969513,88.044739 145.030304,87.970963 
z"/>
<path fill="#E17625" opacity="1.000000" stroke="none" 
	d="
M418.935486,295.577148 
	C417.626740,292.218231 416.319672,288.477020 415.049500,284.330078 
	C416.369965,287.681213 417.653564,291.438049 418.935486,295.577148 
z"/>
<path fill="#E17625" opacity="1.000000" stroke="none" 
	d="
M422.055420,304.589447 
	C421.017883,302.277863 419.990570,299.586273 418.977112,296.498505 
	C420.015869,298.804688 421.040741,301.507080 422.055420,304.589447 
z"/>
<path fill="#E17625" opacity="1.000000" stroke="none" 
	d="
M415.116486,283.628448 
	C414.738037,283.161926 414.377258,282.356995 414.033508,281.210602 
	C414.411774,281.676117 414.772949,282.483093 415.116486,283.628448 
z"/>
<path fill="#E27624" opacity="1.000000" stroke="none" 
	d="
M205.984421,171.910416 
	C206.131729,171.625565 206.338730,171.394073 207.174927,171.088226 
	C209.140640,170.633499 210.536880,170.306549 211.933105,169.979584 
	C213.248306,190.013794 214.633865,210.043808 215.833633,230.084930 
	C216.171326,235.725815 215.963913,241.399338 215.537827,247.528976 
	C189.048874,246.999146 163.028625,245.998230 137.008362,244.997284 
	C141.921143,237.238220 146.927734,229.536270 151.702103,221.692932 
	C153.708588,218.396667 155.223938,214.801422 156.973419,210.915894 
	C158.033844,210.329819 159.083374,210.169922 160.690247,209.849106 
	C161.494049,209.438187 161.740555,209.188187 161.987045,208.938202 
	C161.987045,208.938202 161.979721,208.998245 162.323013,208.966217 
	C164.083344,207.583954 165.500381,206.233704 166.917419,204.883453 
	C166.917404,204.883438 166.970612,204.925888 167.148254,204.802917 
	C167.583664,204.464859 167.803131,204.216019 167.984314,203.933411 
	C167.984314,203.933411 167.977570,203.995178 168.320450,203.962830 
	C170.425034,202.260910 172.186722,200.591354 173.948425,198.921814 
	C173.948441,198.921814 173.994629,198.963684 174.165924,198.827667 
	C174.592087,198.477539 174.808533,198.229858 174.986572,197.948624 
	C174.986572,197.948624 174.985565,198.004013 175.349960,197.969177 
	C181.287903,197.373917 183.921432,193.488098 185.933517,188.899399 
	C185.933517,188.899399 186.000015,188.959518 186.324707,188.939713 
	C188.411438,187.253952 190.173492,185.587997 191.935547,183.922058 
	C191.935562,183.922058 191.982956,183.935104 192.250076,183.883316 
	C192.988022,183.500534 193.458832,183.169540 193.929657,182.838531 
	C193.929642,182.838516 193.805130,182.883438 194.158783,182.820587 
	C197.687439,182.099884 199.926971,180.558975 199.985748,176.959503 
	C200.529144,176.407578 201.072540,175.855652 202.200989,175.134338 
	C203.504654,174.280121 204.223267,173.595322 204.941895,172.910522 
	C204.941895,172.910522 204.989761,172.952240 205.163635,172.815277 
	C205.553162,172.422333 205.768784,172.166382 205.984421,171.910416 
z"/>
<path fill="#E37624" opacity="1.000000" stroke="none" 
	d="
M310.339172,202.868179 
	C311.794922,204.014648 313.250702,205.161118 314.877777,206.949982 
	C315.434753,211.147369 316.296265,214.179337 320.990875,212.998352 
	C324.520081,217.787674 328.186401,222.483246 331.542297,227.391068 
	C335.371216,232.990570 338.923615,238.779114 342.286987,244.764572 
	C333.876617,245.347855 325.775146,245.643692 317.674408,245.957977 
	C299.482483,246.663757 281.290924,247.378708 263.099213,248.089920 
	C263.999786,233.894867 264.947693,219.702591 265.782990,205.503693 
	C266.278839,197.075089 266.553101,188.633591 267.020233,180.203049 
	C267.175415,177.402435 267.621063,174.617889 268.317902,171.480453 
	C274.135010,175.757004 279.568115,180.379120 284.634918,185.032318 
	C283.270691,186.100494 282.272766,187.137589 281.274811,188.174667 
	C281.847931,188.612610 282.421082,189.050537 282.994232,189.488464 
	C283.653442,188.317505 284.336182,187.158722 284.953491,185.966080 
	C285.088318,185.705612 284.989807,185.324387 285.404541,184.999069 
	C286.893707,184.985260 287.977142,184.971161 289.060577,184.957062 
	C289.060577,184.957062 289.003662,184.995895 289.036591,185.331619 
	C289.707520,186.763046 290.115112,188.125610 291.022614,188.909164 
	C295.390869,192.680771 299.808899,196.407486 304.392883,199.909851 
	C306.120148,201.229523 308.342499,201.901138 310.339172,202.868179 
z"/>
<path fill="#E37624" opacity="1.000000" stroke="none" 
	d="
M144.443024,88.148293 
	C147.924377,89.476677 151.000702,90.760971 154.487579,92.069572 
	C154.791824,93.052589 154.685501,94.011292 154.719879,93.701317 
	C166.522537,97.757599 177.934204,101.679520 189.655670,105.789078 
	C195.494415,120.987755 201.036926,135.993835 206.533417,151.016739 
	C207.149826,152.701492 207.505554,154.481644 207.630463,156.536255 
	C205.166870,156.251465 203.055023,155.647995 200.943161,155.044510 
	C200.943161,155.044510 201.003311,155.012405 200.916687,154.694977 
	C198.193787,152.606918 195.557495,150.836288 192.921219,149.065659 
	C192.921219,149.065659 192.999908,149.032867 192.908203,148.722107 
	C189.188461,145.957352 185.560394,143.503342 181.932343,141.049332 
	C181.932343,141.049332 182.001785,141.014435 182.024765,140.692810 
	C182.565735,139.595016 183.238632,138.878265 183.564606,138.028442 
	C184.026855,136.823303 184.233521,135.520126 184.549423,134.258850 
	C183.383698,134.576202 182.183823,134.804199 181.060822,135.233353 
	C179.633224,135.778900 178.267960,136.487473 176.875809,137.125763 
	C176.875809,137.125763 176.981277,137.125275 176.886047,136.795959 
	C176.364395,135.782944 176.088043,134.902496 175.488770,134.445450 
	C168.071060,128.788254 160.675446,123.096893 153.109650,117.642448 
	C150.966217,116.097168 148.290817,115.289780 145.859375,114.143982 
	C145.859375,114.143982 145.911621,114.078407 145.798798,113.759811 
	C143.512527,107.930702 138.620850,106.409203 133.540344,105.164810 
	C133.540344,105.164810 133.250854,105.122681 133.100677,104.687042 
	C132.285919,103.170616 131.849121,101.807060 130.918091,101.057022 
	C126.428200,97.440056 121.937599,93.792305 117.167168,90.570145 
	C115.128883,89.193390 112.408508,88.826485 109.998077,88.000702 
	C109.998077,88.000702 110.000000,88.000000 109.999741,88.000992 
	C108.700165,86.357193 107.604324,84.483185 106.061066,83.113174 
	C102.330460,79.801384 98.391060,76.724792 94.535828,73.553391 
	C94.701004,73.055367 94.866173,72.557343 95.031342,72.059326 
	C96.929520,72.414101 98.918137,72.518684 100.710365,73.166557 
	C108.899956,76.126984 116.985466,79.380043 125.204788,82.252014 
	C131.406906,84.419159 137.754913,86.168755 144.443024,88.148293 
M170.787476,104.987434 
	C172.654831,104.987434 174.522186,104.987434 176.389542,104.987434 
	C176.367432,104.547218 176.345322,104.106995 176.323212,103.666779 
	C173.636673,103.666779 170.950150,103.666779 168.263611,103.666779 
	C168.254654,103.947937 168.245682,104.229103 168.236710,104.510262 
	C168.847061,104.660530 169.457428,104.810799 170.787476,104.987434 
z"/>
<path fill="#CB6228" opacity="1.000000" stroke="none" 
	d="
M263.078583,248.496124 
	C281.290924,247.378708 299.482483,246.663757 317.674408,245.957977 
	C325.775146,245.643692 333.876617,245.347855 342.433655,245.068756 
	C342.319580,246.189148 341.749634,247.284439 340.748657,248.758301 
	C330.875397,258.760498 321.433228,268.384094 311.991028,278.007690 
	C311.133026,278.052155 310.275024,278.096619 308.646149,278.113373 
	C300.640472,274.855072 293.355530,271.730408 286.195892,268.341064 
	C283.386871,267.011292 281.769226,267.126984 280.489441,270.288330 
	C278.819977,274.412262 276.568573,278.298401 274.841431,282.402100 
	C273.944733,284.532776 273.637360,286.911469 273.063751,289.178131 
	C272.270813,289.436951 271.477844,289.695770 270.337524,289.539062 
	C269.626190,286.993225 269.304596,284.854645 268.891144,282.733917 
	C266.958038,272.817719 264.999603,262.906464 263.050201,252.993454 
	C263.052765,251.629745 263.055359,250.266052 263.078583,248.496124 
z"/>
<path fill="#CB6228" opacity="1.000000" stroke="none" 
	d="
M137.090546,245.309845 
	C163.028625,245.998230 189.048874,246.999146 215.536072,247.997070 
	C216.300278,250.679825 216.597519,253.365585 216.580383,256.651489 
	C215.518784,259.390533 214.517670,261.477631 214.069000,263.677399 
	C212.284683,272.425781 210.672729,281.209381 208.996948,289.979919 
	C208.774246,289.976837 208.551559,289.973724 207.989410,289.742554 
	C207.649948,289.514435 207.553040,289.101257 207.484497,288.760986 
	C204.666397,282.427124 201.772049,276.494171 199.224258,270.416016 
	C197.810303,267.042816 196.080521,267.032593 193.118469,268.467865 
	C187.486908,271.196686 181.665726,273.534180 175.665405,276.096985 
	C174.934830,276.395020 174.462158,276.630310 173.961212,276.923248 
	C173.932968,276.980927 173.818085,276.923431 173.496124,276.992798 
	C172.429001,277.788879 171.683823,278.515656 170.938660,279.242401 
	C170.938660,279.242401 170.457703,279.118988 169.995026,278.811493 
	C164.020630,273.004333 158.570770,267.440765 152.977859,262.024963 
	C148.403854,257.595795 143.659210,253.342850 138.990219,249.011780 
	C138.384384,247.881973 137.778549,246.752182 137.090546,245.309845 
z"/>
<path fill="#CD6227" opacity="1.000000" stroke="none" 
	d="
M163.494736,369.036530 
	C161.806732,367.559113 159.710617,366.357880 158.494675,364.561005 
	C147.797241,348.752777 137.238892,332.850189 126.704689,316.932281 
	C125.910095,315.731598 125.617928,314.198395 125.090530,312.462524 
	C139.837021,312.583801 154.585190,313.062347 169.674530,314.204102 
	C169.499405,319.618408 168.999619,324.371429 168.463608,329.120331 
	C167.003342,342.058380 165.527756,354.994751 163.937775,368.218872 
	C163.709778,368.682800 163.602264,368.859680 163.494736,369.036530 
z"/>
<path fill="#CD6227" opacity="1.000000" stroke="none" 
	d="
M353.494019,312.089935 
	C352.777344,314.979980 352.094208,318.163177 350.423309,320.694336 
	C340.379333,335.909393 330.115601,350.979553 319.897217,366.079102 
	C319.256104,367.026489 318.375763,367.811951 317.083130,368.769714 
	C316.331390,368.607971 316.103241,368.349243 315.862335,367.674438 
	C313.848938,349.479126 311.848267,331.699890 309.847595,313.920654 
	C311.954315,313.613464 314.054626,313.097961 316.168762,313.033325 
	C328.467743,312.657440 340.769989,312.387512 353.494019,312.089935 
z"/>
<path fill="#E27626" opacity="1.000000" stroke="none" 
	d="
M309.526123,314.021851 
	C311.848267,331.699890 313.848938,349.479126 315.529846,367.567505 
	C300.401245,360.585449 285.592407,353.294312 270.683624,345.777039 
	C270.318085,345.141571 270.052429,344.732178 269.786804,344.322784 
	C282.926086,334.256195 296.065338,324.189606 309.526123,314.021851 
z"/>
<path fill="#E27627" opacity="1.000000" stroke="none" 
	d="
M164.058228,367.931763 
	C165.527756,354.994751 167.003342,342.058380 168.463608,329.120331 
	C168.999619,324.371429 169.499405,319.618408 170.028717,314.423096 
	C177.279190,319.418762 184.528442,324.843048 191.750443,330.303375 
	C197.690918,334.794830 203.598999,339.329132 209.699005,344.224304 
	C209.639679,345.032806 209.402771,345.461426 208.923920,346.103210 
	C207.889435,346.585876 207.096909,346.855377 206.098236,347.210693 
	C205.623978,347.427551 205.391144,347.604828 204.901703,348.049438 
	C191.092651,354.824249 177.575439,361.378021 164.058228,367.931763 
z"/>
<path fill="#E37623" opacity="1.000000" stroke="none" 
	d="
M139.015289,249.383667 
	C143.659210,253.342850 148.403854,257.595795 152.977859,262.024963 
	C158.570770,267.440765 164.020630,273.004333 169.756287,278.743347 
	C169.321701,280.367737 168.098846,281.753815 168.101486,283.137604 
	C168.113495,289.423645 168.486374,295.708557 168.683487,301.995300 
	C168.707245,302.752899 168.452179,303.519287 167.168671,304.792297 
	C165.454178,301.835754 163.615387,298.943542 162.046448,295.911682 
	C154.821152,281.949249 147.656342,267.955383 140.518341,253.948074 
	C139.851425,252.639374 139.524933,251.157211 139.015289,249.383667 
z"/>
<path fill="#E37624" opacity="1.000000" stroke="none" 
	d="
M311.991394,278.473541 
	C321.433228,268.384094 330.875397,258.760498 340.649689,249.057373 
	C336.845001,257.471497 332.780457,266.001312 328.551483,274.448792 
	C324.179474,283.181885 319.675140,291.849274 315.157684,300.508362 
	C314.445160,301.874084 313.357391,303.044037 311.991730,304.926819 
	C311.991730,295.602966 311.991730,287.271179 311.991394,278.473541 
z"/>
<path fill="#2F343D" opacity="1.000000" stroke="none" 
	d="
M273.445740,289.093201 
	C273.637360,286.911469 273.944733,284.532776 274.841431,282.402100 
	C276.568573,278.298401 278.819977,274.412262 280.489441,270.288330 
	C281.769226,267.126984 283.386871,267.011292 286.195892,268.341064 
	C293.355530,271.730408 300.640472,274.855072 308.216919,278.093994 
	C301.896545,280.368134 295.266815,282.735474 288.561707,284.865601 
	C283.702148,286.409454 278.742645,287.638763 273.445740,289.093201 
z"/>
<path fill="#30343D" opacity="1.000000" stroke="none" 
	d="
M175.923294,276.034210 
	C181.665726,273.534180 187.486908,271.196686 193.118469,268.467865 
	C196.080521,267.032593 197.810303,267.042816 199.224258,270.416016 
	C201.772049,276.494171 204.666397,282.427124 207.140778,288.689331 
	C202.571457,287.962677 198.277313,286.967407 193.983154,285.972168 
	C193.983154,285.972168 193.711899,285.796875 193.270447,285.544128 
	C190.915329,284.818634 189.001633,284.345886 187.087952,283.873169 
	C187.087952,283.873169 186.810562,283.682190 186.336990,283.459839 
	C183.929626,282.769196 181.995834,282.300873 180.062042,281.832550 
	C180.062042,281.832550 179.826935,281.664062 179.416199,281.466309 
	C178.339447,281.175995 177.673447,281.083405 177.007446,280.990814 
	C177.007446,280.990814 177.000000,281.000000 176.750641,280.746216 
	C175.364868,280.369293 174.228455,280.246155 173.092026,280.123016 
	C172.917740,280.060181 172.743454,279.997314 172.338089,279.562592 
	C172.677353,278.434967 173.247726,277.679199 173.818085,276.923431 
	C173.818085,276.923431 173.932968,276.980927 174.238861,276.923157 
	C175.004272,276.588348 175.463791,276.311279 175.923294,276.034210 
z"/>
<path fill="#E47623" opacity="1.000000" stroke="none" 
	d="
M262.822937,253.340851 
	C264.999603,262.906464 266.958038,272.817719 268.891144,282.733917 
	C269.304596,284.854645 269.626190,286.993225 270.014191,289.530396 
	C268.037537,298.658325 266.011444,307.373749 264.048157,316.103302 
	C263.224182,319.766968 262.533203,323.460541 260.997559,327.084534 
	C260.997559,313.546112 260.793854,300.003662 261.061707,286.470551 
	C261.278107,275.537262 262.062988,264.615234 262.822937,253.340851 
z"/>
<path fill="#E47623" opacity="1.000000" stroke="none" 
	d="
M209.237701,290.261597 
	C210.672729,281.209381 212.284683,272.425781 214.069000,263.677399 
	C214.517670,261.477631 215.518784,259.390533 216.579865,257.081238 
	C217.666473,279.517487 218.439240,302.124207 219.211990,324.730957 
	C218.612808,324.799408 218.013641,324.867828 217.414459,324.936279 
	C216.616196,321.501801 215.735168,318.084045 215.037033,314.629333 
	C213.623993,307.636719 212.346207,300.616638 210.917419,293.627380 
	C210.696457,292.546448 209.970764,291.568756 209.237701,290.261597 
z"/>
<path fill="#B36C2B" opacity="1.000000" stroke="none" 
	d="
M209.165863,345.890076 
	C209.402771,345.461426 209.639679,345.032806 210.006470,344.399963 
	C214.590424,340.401245 219.796539,339.970581 225.429337,340.117828 
	C236.699036,340.412476 247.994492,339.886902 259.252960,340.345947 
	C262.588226,340.481934 265.835388,342.778534 269.454865,344.203918 
	C270.052429,344.732178 270.318085,345.141571 270.346558,345.778656 
	C269.426605,346.018158 268.743744,346.029968 267.852234,345.770386 
	C264.698425,342.590576 261.431976,341.471710 257.046234,341.644073 
	C245.472580,342.098907 233.855667,342.140686 222.285278,341.652435 
	C217.631821,341.456085 214.362061,342.695221 211.293732,346.085205 
	C210.379562,346.002991 209.772705,345.946533 209.165863,345.890076 
z"/>
<path fill="#DA752A" opacity="1.000000" stroke="none" 
	d="
M285.001221,185.001221 
	C279.568115,180.379120 274.135010,175.757004 268.357910,171.062744 
	C267.854034,169.193283 267.694153,167.395966 267.725922,165.322540 
	C270.979919,168.166351 273.928772,171.408966 277.134277,174.374146 
	C280.878113,177.837280 284.845947,181.058243 288.888580,184.670670 
	C287.977142,184.971161 286.893707,184.985260 285.405151,184.999680 
	C285.000000,185.000000 285.001221,185.001221 285.001221,185.001221 
z"/>
<path fill="#DA752A" opacity="1.000000" stroke="none" 
	d="
M321.112366,212.682831 
	C316.296265,214.179337 315.434753,211.147369 315.061035,207.202179 
	C317.627777,207.996613 320.182587,209.181229 323.049316,210.569336 
	C322.652100,211.304321 321.942993,211.835815 321.112366,212.682831 
z"/>
<path fill="#DA7529" opacity="1.000000" stroke="none" 
	d="
M212.093018,169.629318 
	C210.536880,170.306549 209.140640,170.633499 207.384369,170.981964 
	C209.064560,168.175766 213.563492,165.969696 209.233765,161.264465 
	C214.165802,162.178345 213.098450,165.771240 212.093018,169.629318 
z"/>
<path fill="#CE803B" opacity="1.000000" stroke="none" 
	d="
M194.180969,286.270905 
	C198.277313,286.967407 202.571457,287.962677 207.209320,289.029602 
	C207.553040,289.101257 207.649948,289.514435 207.655746,289.725494 
	C203.233963,288.814240 198.806366,287.691956 194.180969,286.270905 
z"/>
<path fill="#DA7529" opacity="1.000000" stroke="none" 
	d="
M201.123001,155.324646 
	C203.055023,155.647995 205.166870,156.251465 207.635269,156.930542 
	C208.337372,158.083450 208.682922,159.160767 209.035767,160.587860 
	C206.462982,159.160004 203.882919,157.382401 201.123001,155.324646 
z"/>
<path fill="#CE803B" opacity="1.000000" stroke="none" 
	d="
M180.195374,282.192810 
	C181.995834,282.300873 183.929626,282.769196 186.168671,283.455597 
	C184.425507,283.300171 182.377106,282.926636 180.195374,282.192810 
z"/>
<path fill="#CE803B" opacity="1.000000" stroke="none" 
	d="
M187.277222,284.196533 
	C189.001633,284.345886 190.915329,284.818634 193.109055,285.538910 
	C191.414902,285.364288 189.440704,284.942108 187.277222,284.196533 
z"/>
<path fill="#CE803B" opacity="1.000000" stroke="none" 
	d="
M173.496124,276.992798 
	C173.247726,277.679199 172.677353,278.434967 172.073303,279.478271 
	C171.756592,279.749603 171.501312,279.656952 171.106201,279.365112 
	C171.683823,278.515656 172.429001,277.788879 173.496124,276.992798 
z"/>
<path fill="#CE803B" opacity="1.000000" stroke="none" 
	d="
M173.362823,280.330322 
	C174.228455,280.246155 175.364868,280.369293 176.753754,280.741394 
	C175.882019,280.839478 174.757828,280.688568 173.362823,280.330322 
z"/>
<path fill="#CE803B" opacity="1.000000" stroke="none" 
	d="
M177.275665,281.202209 
	C177.673447,281.083405 178.339447,281.175995 179.272476,281.482483 
	C178.874298,281.602173 178.209091,281.507904 177.275665,281.202209 
z"/>
<path fill="#E27624" opacity="1.000000" stroke="none" 
	d="
M152.884415,211.769043 
	C153.147858,211.506393 153.747192,211.241989 154.679779,210.977264 
	C154.415466,211.240387 153.817886,211.503845 152.884415,211.769043 
z"/>
<path fill="#DA752A" opacity="1.000000" stroke="none" 
	d="
M268.891418,162.231995 
	C268.936890,162.381027 268.769562,162.716919 268.385651,163.239594 
	C268.338898,163.090530 268.508759,162.754700 268.891418,162.231995 
z"/>
<path fill="#DA752A" opacity="1.000000" stroke="none" 
	d="
M310.160645,202.576996 
	C308.342499,201.901138 306.120148,201.229523 304.392883,199.909851 
	C299.808899,196.407486 295.390869,192.680771 291.022614,188.909164 
	C290.115112,188.125610 289.707520,186.763046 289.055298,185.302704 
	C296.021454,190.720627 303.001801,196.503204 310.160645,202.576996 
z"/>
<path fill="#DA7529" opacity="1.000000" stroke="none" 
	d="
M146.021622,114.436249 
	C148.290817,115.289780 150.966217,116.097168 153.109650,117.642448 
	C160.675446,123.096893 168.071060,128.788254 175.488770,134.445450 
	C176.088043,134.902496 176.364395,135.782944 176.837006,136.815460 
	C166.650101,129.685699 156.416992,122.207108 146.021622,114.436249 
z"/>
<path fill="#DA7529" opacity="1.000000" stroke="none" 
	d="
M110.176590,88.282135 
	C112.408508,88.826485 115.128883,89.193390 117.167168,90.570145 
	C121.937599,93.792305 126.428200,97.440056 130.918091,101.057022 
	C131.849121,101.807060 132.285919,103.170616 132.977448,104.608246 
	C125.454613,99.497902 117.904854,94.030731 110.176590,88.282135 
z"/>
<path fill="#DA7529" opacity="1.000000" stroke="none" 
	d="
M133.726166,105.459244 
	C138.620850,106.409203 143.512527,107.930702 145.803116,113.801514 
	C141.917511,111.359100 137.914749,108.556389 133.726166,105.459244 
z"/>
<path fill="#DA7529" opacity="1.000000" stroke="none" 
	d="
M185.606003,188.994598 
	C183.921432,193.488098 181.287903,197.373917 175.331467,197.948563 
	C178.391876,195.005127 181.835190,192.047455 185.606003,188.994598 
z"/>
<path fill="#DA7529" opacity="1.000000" stroke="none" 
	d="
M177.040253,137.405487 
	C178.267960,136.487473 179.633224,135.778900 181.060822,135.233353 
	C182.183823,134.804199 183.383698,134.576202 184.549423,134.258850 
	C184.233521,135.520126 184.026855,136.823303 183.564606,138.028442 
	C183.238632,138.878265 182.565735,139.595016 181.997086,140.720337 
	C180.365845,139.941406 178.785278,138.813309 177.040253,137.405487 
z"/>
<path fill="#DA7529" opacity="1.000000" stroke="none" 
	d="
M182.122437,141.323822 
	C185.560394,143.503342 189.188461,145.957352 192.878448,148.752686 
	C189.397766,146.595428 185.855133,144.096863 182.122437,141.323822 
z"/>
<path fill="#DA7529" opacity="1.000000" stroke="none" 
	d="
M193.097168,149.348373 
	C195.557495,150.836288 198.193787,152.606918 200.895020,154.721466 
	C198.397690,153.253952 195.835419,151.442520 193.097168,149.348373 
z"/>
<path fill="#DA7529" opacity="1.000000" stroke="none" 
	d="
M199.661484,177.050919 
	C199.926971,180.558975 197.687439,182.099884 194.136612,182.758240 
	C195.619598,180.886597 197.478409,179.014465 199.661484,177.050919 
z"/>
<path fill="#DA7529" opacity="1.000000" stroke="none" 
	d="
M173.633224,199.024811 
	C172.186722,200.591354 170.425034,202.260910 168.297913,203.941467 
	C169.727661,202.344254 171.522842,200.736053 173.633224,199.024811 
z"/>
<path fill="#DA7529" opacity="1.000000" stroke="none" 
	d="
M191.614441,184.008469 
	C190.173492,185.587997 188.411438,187.253952 186.282669,188.924286 
	C187.708420,187.317398 189.500885,185.706146 191.614441,184.008469 
z"/>
<path fill="#DA7529" opacity="1.000000" stroke="none" 
	d="
M166.606308,204.982574 
	C165.500381,206.233704 164.083344,207.583954 162.301529,208.944946 
	C163.389557,207.664337 164.842377,206.373001 166.606308,204.982574 
z"/>
<path fill="#DA7529" opacity="1.000000" stroke="none" 
	d="
M204.649689,172.994690 
	C204.223267,173.595322 203.504654,174.280121 202.465576,175.008789 
	C202.882568,174.394730 203.620026,173.736786 204.649689,172.994690 
z"/>
<path fill="#DA7529" opacity="1.000000" stroke="none" 
	d="
M193.625397,182.840271 
	C193.458832,183.169540 192.988022,183.500534 192.229156,183.886551 
	C192.401108,183.575043 192.861130,183.208511 193.625397,182.840271 
z"/>
<path fill="#DA7529" opacity="1.000000" stroke="none" 
	d="
M205.755890,172.030670 
	C205.768784,172.166382 205.553162,172.422333 205.134277,172.827362 
	C205.129807,172.701233 205.328583,172.426071 205.755890,172.030670 
z"/>
<path fill="#DA7529" opacity="1.000000" stroke="none" 
	d="
M174.756943,198.058563 
	C174.808533,198.229858 174.592087,198.477539 174.135864,198.835922 
	C174.132126,198.709641 174.329727,198.439056 174.756943,198.058563 
z"/>
<path fill="#DA7529" opacity="1.000000" stroke="none" 
	d="
M161.741180,209.046890 
	C161.740555,209.188187 161.494049,209.438187 161.018280,209.822021 
	C161.024429,209.689102 161.259872,209.422333 161.741180,209.046890 
z"/>
<path fill="#DA7529" opacity="1.000000" stroke="none" 
	d="
M167.749969,204.041626 
	C167.803131,204.216019 167.583664,204.464859 167.123718,204.826508 
	C167.119568,204.698669 167.317596,204.424271 167.749969,204.041626 
z"/>
<path fill="#D5BDAF" opacity="1.000000" stroke="none" 
	d="
M268.060913,346.041779 
	C268.743744,346.029968 269.426605,346.018158 270.446472,346.004761 
	C285.592407,353.294312 300.401245,360.585449 315.542603,367.983582 
	C316.103241,368.349243 316.331390,368.607971 316.804626,368.960327 
	C317.049744,369.053986 316.941803,369.485413 316.866180,369.694092 
	C309.462372,372.882263 302.069946,375.715088 294.826355,378.887726 
	C289.062714,381.412170 283.490662,384.372253 277.811523,387.092896 
	C276.374481,387.781281 274.853210,388.293701 272.000946,389.435150 
	C272.000946,385.227478 272.000946,382.032288 271.965729,377.966919 
	C270.640656,366.745056 269.350800,356.393433 268.060913,346.041779 
z"/>
<path fill="#D5BDB0" opacity="1.000000" stroke="none" 
	d="
M208.923920,346.103210 
	C209.772705,345.946533 210.379562,346.002991 211.285599,346.480835 
	C210.382477,357.288208 209.180161,367.674133 207.977844,378.060089 
	C207.977844,381.469940 207.977844,384.879791 207.977844,389.293121 
	C205.198624,388.235504 203.524811,387.716309 201.951920,386.981140 
	C190.717468,381.729919 179.510376,376.420197 168.273270,371.174744 
	C167.081619,370.618469 165.752548,370.356567 164.082458,369.870300 
	C163.677673,369.782501 163.537933,369.421326 163.516327,369.228943 
	C163.602264,368.859680 163.709778,368.682800 163.937775,368.218872 
	C177.575439,361.378021 191.092651,354.824249 205.121704,348.000427 
	C205.932144,347.611786 206.155762,347.409943 206.304382,347.124878 
	C207.096909,346.855377 207.889435,346.585876 208.923920,346.103210 
z"/>
<path fill="#181715" opacity="1.000000" stroke="none" 
	d="
M208.356613,378.102814 
	C209.180161,367.674133 210.382477,357.288208 211.592926,346.506592 
	C214.362061,342.695221 217.631821,341.456085 222.285278,341.652435 
	C233.855667,342.140686 245.472580,342.098907 257.046234,341.644073 
	C261.431976,341.471710 264.698425,342.590576 267.852234,345.770386 
	C269.350800,356.393433 270.640656,366.745056 271.943359,377.506470 
	C264.557983,373.516724 256.398468,375.360992 248.523926,375.187958 
	C238.595078,374.969757 228.648071,374.887207 218.729538,375.274536 
	C215.365921,375.405853 212.064972,377.142487 208.356613,378.102814 
z"/>
<path fill="#DA752A" opacity="1.000000" stroke="none" 
	d="
M284.999390,184.999390 
	C284.989807,185.324387 285.088318,185.705612 284.953491,185.966080 
	C284.336182,187.158722 283.653442,188.317505 282.994232,189.488464 
	C282.421082,189.050537 281.847931,188.612610 281.274811,188.174667 
	C282.272766,187.137589 283.270691,186.100494 284.634918,185.032318 
	C285.001221,185.001221 285.000000,185.000000 284.999390,184.999390 
z"/>
<path fill="#DA7529" opacity="1.000000" stroke="none" 
	d="
M170.427628,104.974251 
	C169.457428,104.810799 168.847061,104.660530 168.236710,104.510262 
	C168.245682,104.229103 168.254654,103.947937 168.263611,103.666779 
	C170.950150,103.666779 173.636673,103.666779 176.323212,103.666779 
	C176.345322,104.106995 176.367432,104.547218 176.389542,104.987434 
	C174.522186,104.987434 172.654831,104.987434 170.427628,104.974251 
z"/>
<path fill="#CE803B" opacity="1.000000" stroke="none" 
	d="
M175.665405,276.096985 
	C175.463791,276.311279 175.004272,276.588348 174.267120,276.865479 
	C174.462158,276.630310 174.934830,276.395020 175.665405,276.096985 
z"/>
<path fill="#B36C2B" opacity="1.000000" stroke="none" 
	d="
M206.098236,347.210724 
	C206.155762,347.409943 205.932144,347.611786 205.413559,347.779388 
	C205.391144,347.604828 205.623978,347.427551 206.098236,347.210724 
z"/>
</svg>