<svg version="1.1" id="Layer_1" xmlns="http://www.w3.org/2000/svg" xmlns:xlink="http://www.w3.org/1999/xlink" x="0px" y="0px"
	 width="100%" viewBox="0 0 254 278" enable-background="new 0 0 254 278" xml:space="preserve">
<path fill="#74B647" opacity="1.000000" stroke="none" 
	d="
M136.000000,279.000000 
	C90.666664,279.000000 45.833332,279.000000 1.000000,279.000000 
	C1.000000,186.333328 1.000000,93.666664 1.000000,1.000000 
	C85.666664,1.000000 170.333328,1.000000 255.000000,1.000000 
	C255.000000,93.666664 255.000000,186.333328 255.000000,279.000000 
	C215.500000,279.000000 176.000000,279.000000 136.000000,279.000000 
M106.608437,265.471832 
	C107.108475,265.385925 107.608505,265.300049 108.801285,264.883698 
	C110.957756,261.606323 107.413513,256.363953 113.290459,253.038925 
	C113.535484,257.024689 113.548035,260.062378 114.002357,263.032471 
	C114.154732,264.028625 115.432838,264.852631 116.196404,265.755310 
	C117.091644,264.997833 118.092255,264.332123 118.853630,263.458008 
	C119.679306,262.510071 120.282211,261.368042 121.405167,260.822083 
	C122.007454,261.968170 122.609749,263.114288 122.919624,264.877716 
	C122.853363,266.296631 122.787102,267.715546 123.466217,269.333679 
	C125.642334,269.878387 127.818451,270.423065 130.453476,271.257263 
	C131.300766,270.835632 132.148041,270.414001 133.404114,269.448059 
	C134.204147,267.945068 135.004181,266.442078 136.113953,264.203308 
	C135.762039,259.723145 135.410126,255.242966 134.461380,250.454315 
	C134.022903,250.504944 133.584442,250.555573 132.365234,250.509216 
	C127.352280,249.852295 122.612885,249.738129 120.580116,255.892365 
	C119.999634,255.621292 119.419144,255.350220 118.621635,254.388382 
	C117.838341,251.021713 115.582336,249.854538 112.325638,250.147812 
	C110.518944,250.310501 108.708702,250.433975 106.365189,250.553085 
	C106.203224,250.628006 106.041267,250.702911 105.185333,251.123215 
	C105.415726,255.824997 105.646118,260.526764 106.608437,265.471832 
M98.666527,265.408478 
	C99.606606,264.368652 101.289383,263.371643 101.352180,262.281281 
	C101.569702,258.504089 101.223854,254.694458 101.070068,250.113541 
	C100.770508,248.421936 100.470940,246.730316 100.070969,244.471741 
	C97.998901,247.148132 96.463882,249.130859 94.144012,250.600296 
	C85.952774,249.958069 85.952774,249.958069 85.140335,255.561111 
	C83.718010,254.425278 82.295692,253.289429 80.308792,251.746582 
	C78.883957,251.207016 77.459122,250.667435 75.212204,250.019608 
	C74.119232,250.112244 73.026253,250.204865 71.387688,250.311035 
	C70.861244,250.426346 70.334801,250.541641 69.121284,251.048416 
	C68.953354,257.028717 68.745392,263.008606 68.683739,268.989990 
	C68.678001,269.545593 69.600533,270.110779 70.828842,270.799469 
	C71.546555,269.188141 72.264275,267.576813 73.673080,265.852936 
	C74.138039,265.816864 74.603004,265.780792 75.755470,266.014313 
	C77.478180,265.314545 79.200897,264.614807 81.505608,263.634125 
	C82.909355,262.189484 84.313103,260.744873 85.685593,260.157654 
	C86.544304,261.947327 87.403015,263.737030 88.261719,265.526703 
	C88.959717,263.731323 90.284561,261.915161 90.225800,260.144897 
	C90.101799,256.409180 91.237251,253.913483 95.469788,253.408783 
	C96.217903,257.337158 96.966026,261.265564 98.666527,265.408478 
M61.743252,251.775925 
	C65.902420,251.702393 65.249603,249.460709 63.401386,247.419907 
	C60.610325,244.338013 56.891277,244.363052 53.329414,245.754745 
	C49.737980,247.158005 49.123730,250.081146 50.300373,254.245499 
	C50.507862,255.418243 50.715351,256.591003 50.274372,258.032043 
	C50.116379,259.188141 49.490837,260.541626 49.881199,261.466187 
	C51.584305,265.499878 55.270538,266.676941 58.968494,265.666290 
	C61.483208,264.979004 64.558640,262.990906 65.532280,260.772156 
	C67.152367,257.080353 64.129814,254.733032 60.973507,252.464401 
	C60.989952,252.223618 61.006393,251.982834 61.743252,251.775925 
M160.499176,16.616371 
	C135.844482,16.618975 111.189644,16.575516 86.535133,16.646372 
	C76.373268,16.675577 68.541275,21.176912 63.441689,29.935259 
	C49.364052,54.113064 35.414680,78.365608 21.436762,102.601387 
	C15.962541,112.092941 16.097153,121.590645 21.565184,131.051331 
	C35.232327,154.697922 48.981560,178.297684 62.521721,202.016785 
	C68.280045,212.103973 76.665741,216.974686 88.261208,216.927643 
	C115.414024,216.817474 142.567932,216.813675 169.720718,216.928528 
	C181.318298,216.977585 189.707382,212.124832 195.464813,202.030746 
	C208.913971,178.451279 222.518875,154.959946 236.178589,131.501556 
	C241.900986,121.674232 242.036865,112.041718 236.317398,102.189598 
	C223.859604,80.730270 210.733459,59.610191 199.352905,37.590458 
	C191.009872,21.447906 179.240646,14.371719 160.499176,16.616371 
M176.049744,265.768219 
	C178.466049,264.028076 180.882370,262.287933 183.340790,260.517426 
	C187.888260,266.096130 192.373184,267.479584 196.371140,264.312012 
	C199.813339,261.584778 200.577057,256.468475 197.665543,253.220749 
	C196.433411,251.846359 194.134933,250.088135 192.785797,250.416046 
	C189.106888,251.310242 185.675507,253.222717 181.931534,254.823517 
	C179.042480,250.539764 175.560715,248.917023 171.414917,250.718460 
	C167.732544,252.318558 166.255142,255.318634 166.829819,259.218506 
	C167.537109,264.018280 170.668869,265.924225 176.049744,265.768219 
M151.728836,245.050964 
	C148.244614,244.693451 146.891586,246.343292 147.117844,249.730804 
	C147.261566,251.882416 147.131104,254.052078 147.129929,256.213654 
	C147.124512,266.121704 148.915787,267.705383 158.702072,265.554626 
	C160.417160,265.177673 162.819687,263.126282 163.024109,261.596802 
	C163.591309,257.353180 163.574310,252.912369 162.904968,248.689468 
	C162.681381,247.278870 159.929535,245.900269 158.072449,245.228485 
	C156.448639,244.641098 154.458527,245.066452 151.728836,245.050964 
M206.741272,247.901871 
	C205.815491,247.407013 204.121918,246.418137 204.076065,246.489410 
	C202.880859,248.347076 201.158554,250.250397 200.971497,252.279053 
	C200.709946,255.115311 201.679062,258.052032 202.007019,260.958710 
	C202.520020,265.505463 204.562363,266.615479 209.186096,264.497284 
	C205.877060,260.290833 205.353012,255.981689 209.164001,251.717377 
	C208.362228,250.600922 207.616577,249.562607 206.741272,247.901871 
z"/>
<path fill="#FDFEFC" opacity="1.000000" stroke="none" 
	d="
M160.998764,16.616325 
	C179.240646,14.371719 191.009872,21.447906 199.352905,37.590458 
	C210.733459,59.610191 223.859604,80.730270 236.317398,102.189598 
	C242.036865,112.041718 241.900986,121.674232 236.178589,131.501556 
	C222.518875,154.959946 208.913971,178.451279 195.464813,202.030746 
	C189.707382,212.124832 181.318298,216.977585 169.720718,216.928528 
	C142.567932,216.813675 115.414024,216.817474 88.261208,216.927643 
	C76.665741,216.974686 68.280045,212.103973 62.521721,202.016785 
	C48.981560,178.297684 35.232327,154.697922 21.565184,131.051331 
	C16.097153,121.590645 15.962541,112.092941 21.436762,102.601387 
	C35.414680,78.365608 49.364052,54.113064 63.441689,29.935259 
	C68.541275,21.176912 76.373268,16.675577 86.535133,16.646372 
	C111.189644,16.575516 135.844482,16.618975 160.998764,16.616325 
M139.518692,173.096481 
	C180.120056,164.962769 201.374832,122.682510 183.421936,85.627724 
	C179.139862,76.789520 173.058167,69.322052 164.964172,63.680820 
	C160.901245,60.849098 156.687637,61.609821 153.892487,65.233490 
	C151.239899,68.672348 151.665009,72.563690 155.159302,75.934479 
	C156.715363,77.435547 158.456497,78.743752 160.027527,80.230469 
	C173.697113,93.166443 177.687408,113.746674 169.961121,131.324753 
	C162.286774,148.784637 144.250381,159.422165 124.747139,157.991074 
	C106.237991,156.632919 89.610977,143.132141 85.004730,125.064842 
	C80.194511,106.197540 85.276253,90.176331 100.160736,77.473724 
	C103.284805,74.807610 105.616638,71.983490 104.215836,67.608162 
	C102.347649,61.772957 95.947289,60.565228 90.387848,64.941002 
	C68.614105,82.078918 61.386395,111.436378 72.524971,137.496460 
	C83.363541,162.854630 110.032616,177.257278 139.518692,173.096481 
M135.803223,117.898338 
	C136.341812,115.681358 137.330414,113.467827 137.347458,111.246834 
	C137.477890,94.249893 137.449203,77.251419 137.403641,60.253605 
	C137.386780,53.965378 133.709976,49.766930 128.489258,49.825813 
	C123.400711,49.883202 119.675797,53.897102 119.641418,59.897930 
	C119.542160,77.228539 119.605858,94.560074 119.603966,111.891251 
	C119.603531,115.906532 121.150345,119.109215 124.883865,120.795654 
	C128.808746,122.568542 132.361267,121.732269 135.803223,117.898338 
z"/>
<path fill="#E0EFD7" opacity="1.000000" stroke="none" 
	d="
M175.661652,265.819458 
	C170.668869,265.924225 167.537109,264.018280 166.829819,259.218506 
	C166.255142,255.318634 167.732544,252.318558 171.414917,250.718460 
	C175.560715,248.917023 179.042480,250.539764 181.931534,254.823517 
	C185.675507,253.222717 189.106888,251.310242 192.785797,250.416046 
	C194.134933,250.088135 196.433411,251.846359 197.665543,253.220749 
	C200.577057,256.468475 199.813339,261.584778 196.371140,264.312012 
	C192.373184,267.479584 187.888260,266.096130 183.340790,260.517426 
	C180.882370,262.287933 178.466049,264.028076 175.661652,265.819458 
M174.531448,262.608917 
	C178.942352,261.257904 178.253769,258.013916 176.930252,255.048981 
	C176.580200,254.264801 173.606094,253.606918 173.010834,254.158356 
	C170.444778,256.535431 170.590500,259.373138 172.959320,262.001740 
	C173.167862,262.233124 173.528305,262.327606 174.531448,262.608917 
M193.493134,254.197617 
	C191.982834,254.463776 189.284607,254.490753 189.174255,255.038834 
	C188.764206,257.075317 189.003616,259.327789 189.460190,261.397430 
	C189.584198,261.959564 192.113861,262.623047 192.207611,262.462494 
	C193.197845,260.766296 194.046677,258.953339 194.641235,257.079529 
	C194.839920,256.453308 194.198639,255.560593 193.493134,254.197617 
z"/>
<path fill="#EBF5E5" opacity="1.000000" stroke="none" 
	d="
M152.179535,245.047668 
	C154.458527,245.066452 156.448639,244.641098 158.072449,245.228485 
	C159.929535,245.900269 162.681381,247.278870 162.904968,248.689468 
	C163.574310,252.912369 163.591309,257.353180 163.024109,261.596802 
	C162.819687,263.126282 160.417160,265.177673 158.702072,265.554626 
	C148.915787,267.705383 147.124512,266.121704 147.129929,256.213654 
	C147.131104,254.052078 147.261566,251.882416 147.117844,249.730804 
	C146.891586,246.343292 148.244614,244.693451 152.179535,245.047668 
M152.390106,257.288818 
	C150.865082,259.654694 151.158005,261.664093 154.199326,261.733429 
	C155.984116,261.774139 157.800278,260.438629 159.602295,259.722107 
	C158.086395,258.720398 156.615845,257.635590 155.026688,256.768066 
	C154.556168,256.511200 153.751450,256.866577 152.390106,257.288818 
M152.245224,249.781876 
	C151.211441,253.051178 153.559143,253.143478 155.518585,252.838577 
	C156.655258,252.661713 157.619568,251.377075 158.661453,250.590958 
	C157.237000,250.079468 155.827988,249.515518 154.378571,249.088806 
	C153.950027,248.962631 153.407501,249.223648 152.245224,249.781876 
z"/>
<path fill="#E2EFD9" opacity="1.000000" stroke="none" 
	d="
M50.321815,253.527100 
	C49.123730,250.081146 49.737980,247.158005 53.329414,245.754745 
	C56.891277,244.363052 60.610325,244.338013 63.401386,247.419907 
	C65.249603,249.460709 65.902420,251.702393 61.225349,251.458252 
	C58.867012,248.983078 57.026218,248.275116 53.759632,251.689560 
	C56.967598,252.361115 58.935432,252.773071 60.903263,253.185013 
	C64.129814,254.733032 67.152367,257.080353 65.532280,260.772156 
	C64.558640,262.990906 61.483208,264.979004 58.968494,265.666290 
	C55.270538,266.676941 51.584305,265.499878 49.881199,261.466187 
	C49.490837,260.541626 50.116379,259.188141 50.937515,258.024597 
	C53.035778,259.107025 54.337158,260.718079 55.946003,261.130920 
	C57.373924,261.497345 59.143208,260.533478 60.761803,260.156860 
	C59.865417,259.040009 59.186306,257.533905 58.027538,256.887146 
	C55.592430,255.528000 52.905430,254.620178 50.321815,253.527100 
z"/>
<path fill="#D8EACD" opacity="1.000000" stroke="none" 
	d="
M106.900063,250.575119 
	C108.708702,250.433975 110.518944,250.310501 112.325638,250.147812 
	C115.582336,249.854538 117.838341,251.021713 118.655457,255.159393 
	C119.470802,257.440979 120.252319,258.951538 121.000633,260.431183 
	C120.967422,260.400238 120.982262,260.310669 120.982262,260.310669 
	C120.282211,261.368042 119.679306,262.510071 118.853630,263.458008 
	C118.092255,264.332123 117.091644,264.997833 116.196396,265.755310 
	C115.432838,264.852631 114.154732,264.028625 114.002357,263.032471 
	C113.548035,260.062378 113.535484,257.024689 113.290459,253.038925 
	C107.413513,256.363953 110.957756,261.606323 108.431381,264.580750 
	C107.674339,259.710236 107.287201,255.142685 106.900063,250.575119 
z"/>
<path fill="#DDEDD3" opacity="1.000000" stroke="none" 
	d="
M206.806091,248.213074 
	C207.616577,249.562607 208.362228,250.600922 209.164001,251.717377 
	C205.353012,255.981689 205.877060,260.290833 209.186096,264.497284 
	C204.562363,266.615479 202.520020,265.505463 202.007019,260.958710 
	C201.679062,258.052032 200.709946,255.115311 200.971497,252.279053 
	C201.158554,250.250397 202.880859,248.347076 204.076065,246.489410 
	C204.121918,246.418137 205.815491,247.407013 206.806091,248.213074 
z"/>
<path fill="#E0EFD7" opacity="1.000000" stroke="none" 
	d="
M121.193710,260.566376 
	C120.982262,260.310669 120.967422,260.400238 121.142303,260.016296 
	C121.266380,258.473022 121.215569,257.313629 121.164764,256.154266 
	C122.612885,249.738129 127.352280,249.852295 132.520813,250.876434 
	C131.879089,251.927917 131.081787,252.612152 129.957733,253.302399 
	C128.155502,254.553284 125.903854,255.562363 125.432930,257.112427 
	C125.002060,258.530670 126.184242,260.792450 127.305077,262.143890 
	C127.717796,262.641479 129.988022,261.598511 131.500961,261.731750 
	C131.715332,263.161041 131.839722,264.116821 131.604126,265.055298 
	C128.566772,264.778778 125.889404,264.519592 123.212044,264.260376 
	C122.609749,263.114288 122.007454,261.968170 121.193710,260.566376 
z"/>
<path fill="#EDF6E8" opacity="1.000000" stroke="none" 
	d="
M131.964127,265.072601 
	C131.839722,264.116821 131.715332,263.161041 131.554932,261.363892 
	C131.107468,258.113831 130.695984,255.705124 130.284485,253.296417 
	C131.081787,252.612152 131.879089,251.927917 132.911163,250.924927 
	C133.584442,250.555573 134.022903,250.504944 134.745911,251.087158 
	C135.288361,256.126373 135.546295,260.532715 135.804214,264.939087 
	C135.004181,266.442078 134.204147,267.945068 132.858032,269.701508 
	C131.539505,270.292572 130.767029,270.630157 129.994568,270.967773 
	C127.818451,270.423065 125.642334,269.878387 123.209518,268.899536 
	C124.028549,268.317810 125.346619,267.697723 126.138298,268.103851 
	C129.687225,269.924255 131.250549,268.437195 131.964127,265.072601 
z"/>
<path fill="#DFEED5" opacity="1.000000" stroke="none" 
	d="
M85.729378,255.715317 
	C85.952774,249.958069 85.952774,249.958069 94.480545,251.128754 
	C94.837746,252.025604 94.858421,252.394028 94.879105,252.762436 
	C91.237251,253.913483 90.101799,256.409180 90.225800,260.144897 
	C90.284561,261.915161 88.959717,263.731323 88.261719,265.526703 
	C87.403015,263.737030 86.544304,261.947327 85.812042,259.286865 
	C85.868782,257.515839 85.799080,256.615570 85.729378,255.715317 
z"/>
<path fill="#F1F7ED" opacity="1.000000" stroke="none" 
	d="
M72.981987,265.965485 
	C72.264275,267.576813 71.546555,269.188141 70.445450,270.288727 
	C69.977478,263.404297 69.892914,257.030609 69.808350,250.656952 
	C70.334801,250.541641 70.861244,250.426346 71.785019,250.652740 
	C72.614182,252.153473 73.045998,253.312500 73.378403,254.854172 
	C73.332016,257.324921 73.385056,259.413055 73.361900,261.944641 
	C73.184464,263.580566 73.083221,264.773010 72.981987,265.965485 
z"/>
<path fill="#F1F7ED" opacity="1.000000" stroke="none" 
	d="
M80.923615,263.915039 
	C79.200897,264.614807 77.478180,265.314545 75.418106,265.537384 
	C75.053833,264.376770 75.026917,263.693054 75.384491,262.992676 
	C80.214111,260.382538 80.324875,256.243500 76.032516,252.515442 
	C76.028267,251.492050 76.031281,250.809967 76.034286,250.127869 
	C77.459122,250.667435 78.883957,251.207016 80.650528,252.307846 
	C83.222137,256.565094 82.266647,260.241272 80.923615,263.915039 
z"/>
<path fill="#B3D69C" opacity="1.000000" stroke="none" 
	d="
M95.174446,253.085602 
	C94.858421,252.394028 94.837746,252.025604 94.872963,251.385376 
	C96.463882,249.130859 97.998901,247.148132 100.070969,244.471741 
	C100.470940,246.730316 100.770508,248.421936 100.674866,250.574982 
	C99.478317,252.445679 98.160233,253.792664 97.981270,255.276978 
	C97.587143,258.545837 97.767967,261.884033 97.714142,265.193939 
	C96.966026,261.265564 96.217903,257.337158 95.174446,253.085602 
z"/>
<path fill="#8EC46B" opacity="1.000000" stroke="none" 
	d="
M50.311096,253.886292 
	C52.905430,254.620178 55.592430,255.528000 58.027538,256.887146 
	C59.186306,257.533905 59.865417,259.040009 60.761803,260.156860 
	C59.143208,260.533478 57.373924,261.497345 55.946003,261.130920 
	C54.337158,260.718079 53.035778,259.107025 51.261749,257.890442 
	C50.715351,256.591003 50.507862,255.418243 50.311096,253.886292 
z"/>
<path fill="#EDF6E8" opacity="1.000000" stroke="none" 
	d="
M98.190338,265.301208 
	C97.767967,261.884033 97.587143,258.545837 97.981270,255.276978 
	C98.160233,253.792664 99.478317,252.445679 100.686035,250.966797 
	C101.223854,254.694458 101.569702,258.504089 101.352180,262.281281 
	C101.289383,263.371643 99.606606,264.368652 98.190338,265.301208 
z"/>
<path fill="#D8EACD" opacity="1.000000" stroke="none" 
	d="
M69.464813,250.852676 
	C69.892914,257.030609 69.977478,263.404297 70.077049,270.224762 
	C69.600533,270.110779 68.678001,269.545593 68.683739,268.989990 
	C68.745392,263.008606 68.953354,257.028717 69.464813,250.852676 
z"/>
<path fill="#99CA79" opacity="1.000000" stroke="none" 
	d="
M131.604126,265.055298 
	C131.250549,268.437195 129.687225,269.924255 126.138298,268.103851 
	C125.346619,267.697723 124.028549,268.317810 122.836830,268.799927 
	C122.787102,267.715546 122.853363,266.296631 123.065834,264.569061 
	C125.889404,264.519592 128.566772,264.778778 131.604126,265.055298 
z"/>
<path fill="#F8FBF6" opacity="1.000000" stroke="none" 
	d="
M106.632629,250.564102 
	C107.287201,255.142685 107.674339,259.710236 108.085007,264.745972 
	C107.608505,265.300049 107.108475,265.385925 106.260925,264.868835 
	C105.902039,259.769836 105.890671,255.273819 105.879311,250.777802 
	C106.041267,250.702911 106.203224,250.628006 106.632629,250.564102 
z"/>
<path fill="#B3D69C" opacity="1.000000" stroke="none" 
	d="
M81.214615,263.774597 
	C82.266647,260.241272 83.222137,256.565094 80.932816,252.511353 
	C82.295692,253.289429 83.718010,254.425278 85.434860,255.638214 
	C85.799080,256.615570 85.868782,257.515839 85.827667,258.858154 
	C84.313103,260.744873 82.909355,262.189484 81.214615,263.774597 
z"/>
<path fill="#E0EFD7" opacity="1.000000" stroke="none" 
	d="
M135.959076,264.571198 
	C135.546295,260.532715 135.288361,256.126373 135.044312,251.241394 
	C135.410126,255.242966 135.762039,259.723145 135.959076,264.571198 
z"/>
<path fill="#D8EACD" opacity="1.000000" stroke="none" 
	d="
M105.532318,250.950500 
	C105.890671,255.273819 105.902039,259.769836 105.894958,264.747192 
	C105.646118,260.526764 105.415726,255.824997 105.532318,250.950500 
z"/>
<path fill="#8EC46B" opacity="1.000000" stroke="none" 
	d="
M60.938385,252.824707 
	C58.935432,252.773071 56.967598,252.361115 53.759632,251.689560 
	C57.026218,248.275116 58.867012,248.983078 60.865143,251.441315 
	C61.006393,251.982834 60.989952,252.223618 60.938385,252.824707 
z"/>
<path fill="#D8EACD" opacity="1.000000" stroke="none" 
	d="
M75.623245,250.073730 
	C76.031281,250.809967 76.028267,251.492050 75.784637,252.690338 
	C74.855278,253.628204 74.166550,254.049866 73.477814,254.471527 
	C73.045998,253.312500 72.614182,252.153473 72.057816,250.645966 
	C73.026253,250.204865 74.119232,250.112244 75.623245,250.073730 
z"/>
<path fill="#99CA79" opacity="1.000000" stroke="none" 
	d="
M120.872437,256.023315 
	C121.215569,257.313629 121.266380,258.473022 121.175514,260.047241 
	C120.252319,258.951538 119.470802,257.440979 118.763969,255.504776 
	C119.419144,255.350220 119.999634,255.621292 120.872437,256.023315 
z"/>
<path fill="#D8EACD" opacity="1.000000" stroke="none" 
	d="
M75.000015,263.009369 
	C75.026917,263.693054 75.053833,264.376770 75.074356,265.402588 
	C74.603004,265.780792 74.138039,265.816864 73.327530,265.909210 
	C73.083221,264.773010 73.184464,263.580566 73.609818,262.071960 
	C74.289291,262.173645 74.644653,262.591522 75.000015,263.009369 
z"/>
<path fill="#99CA79" opacity="1.000000" stroke="none" 
	d="
M130.224030,271.112518 
	C130.767029,270.630157 131.539505,270.292572 132.653656,269.973663 
	C132.148041,270.414001 131.300766,270.835632 130.224030,271.112518 
z"/>
<path fill="#78B84D" opacity="1.000000" stroke="none" 
	d="
M139.084534,173.152008 
	C110.032616,177.257278 83.363541,162.854630 72.524971,137.496460 
	C61.386395,111.436378 68.614105,82.078918 90.387848,64.941002 
	C95.947289,60.565228 102.347649,61.772957 104.215836,67.608162 
	C105.616638,71.983490 103.284805,74.807610 100.160736,77.473724 
	C85.276253,90.176331 80.194511,106.197540 85.004730,125.064842 
	C89.610977,143.132141 106.237991,156.632919 124.747139,157.991074 
	C144.250381,159.422165 162.286774,148.784637 169.961121,131.324753 
	C177.687408,113.746674 173.697113,93.166443 160.027527,80.230469 
	C158.456497,78.743752 156.715363,77.435547 155.159302,75.934479 
	C151.665009,72.563690 151.239899,68.672348 153.892487,65.233490 
	C156.687637,61.609821 160.901245,60.849098 164.964172,63.680820 
	C173.058167,69.322052 179.139862,76.789520 183.421936,85.627724 
	C201.374832,122.682510 180.120056,164.962769 139.084534,173.152008 
z"/>
<path fill="#76B74A" opacity="1.000000" stroke="none" 
	d="
M135.553986,118.215996 
	C132.361267,121.732269 128.808746,122.568542 124.883865,120.795654 
	C121.150345,119.109215 119.603531,115.906532 119.603966,111.891251 
	C119.605858,94.560074 119.542160,77.228539 119.641418,59.897930 
	C119.675797,53.897102 123.400711,49.883202 128.489258,49.825813 
	C133.709976,49.766930 137.386780,53.965378 137.403641,60.253605 
	C137.449203,77.251419 137.477890,94.249893 137.347458,111.246834 
	C137.330414,113.467827 136.341812,115.681358 135.553986,118.215996 
z"/>
<path fill="#86BF5F" opacity="1.000000" stroke="none" 
	d="
M174.174820,262.547302 
	C173.528305,262.327606 173.167862,262.233124 172.959320,262.001740 
	C170.590500,259.373138 170.444778,256.535431 173.010834,254.158356 
	C173.606094,253.606918 176.580200,254.264801 176.930252,255.048981 
	C178.253769,258.013916 178.942352,261.257904 174.174820,262.547302 
z"/>
<path fill="#86BF5F" opacity="1.000000" stroke="none" 
	d="
M193.717224,254.493652 
	C194.198639,255.560593 194.839920,256.453308 194.641235,257.079529 
	C194.046677,258.953339 193.197845,260.766296 192.207611,262.462494 
	C192.113861,262.623047 189.584198,261.959564 189.460190,261.397430 
	C189.003616,259.327789 188.764206,257.075317 189.174255,255.038834 
	C189.284607,254.490753 191.982834,254.463776 193.717224,254.493652 
z"/>
<path fill="#88C162" opacity="1.000000" stroke="none" 
	d="
M152.744995,257.115112 
	C153.751450,256.866577 154.556168,256.511200 155.026688,256.768066 
	C156.615845,257.635590 158.086395,258.720398 159.602295,259.722107 
	C157.800278,260.438629 155.984116,261.774139 154.199326,261.733429 
	C151.158005,261.664093 150.865082,259.654694 152.744995,257.115112 
z"/>
<path fill="#88C162" opacity="1.000000" stroke="none" 
	d="
M152.581207,249.544556 
	C153.407501,249.223648 153.950027,248.962631 154.378571,249.088806 
	C155.827988,249.515518 157.237000,250.079468 158.661453,250.590942 
	C157.619568,251.377075 156.655258,252.661713 155.518585,252.838577 
	C153.559143,253.143478 151.211441,253.051178 152.581207,249.544556 
z"/>
<path fill="#86BF5F" opacity="1.000000" stroke="none" 
	d="
M129.957748,253.302399 
	C130.695984,255.705124 131.107468,258.113831 131.464966,260.890381 
	C129.988022,261.598511 127.717796,262.641479 127.305077,262.143890 
	C126.184242,260.792450 125.002060,258.530670 125.432930,257.112427 
	C125.903854,255.562363 128.155502,254.553284 129.957748,253.302399 
z"/>
<path fill="#88C162" opacity="1.000000" stroke="none" 
	d="
M75.384499,262.992676 
	C74.644653,262.591522 74.289291,262.173645 73.686012,261.628479 
	C73.385056,259.413055 73.332016,257.324921 73.378403,254.854187 
	C74.166550,254.049866 74.855278,253.628204 75.791901,253.031647 
	C80.324875,256.243500 80.214111,260.382538 75.384499,262.992676 
z"/>
</svg>