<svg version="1.1" id="Layer_1" xmlns="http://www.w3.org/2000/svg" xmlns:xlink="http://www.w3.org/1999/xlink" x="0px" y="0px"
	 width="100%" viewBox="0 0 356 387" enable-background="new 0 0 356 387" xml:space="preserve">
<path fill="#020202" opacity="1.000000" stroke="none" 
	d="
M357.000000,2.000000 
	C357.000000,130.617371 357.000000,259.234741 357.000000,387.926056 
	C238.428131,387.926056 119.856216,387.926056 1.000000,387.926056 
	C1.000000,259.644165 1.000000,131.288132 1.466984,2.465186 
	C120.289314,1.998859 238.644653,1.999430 357.000000,2.000000 
M335.112640,321.623322 
	C335.317322,321.471069 335.522034,321.318787 335.037903,320.895508 
	C335.383087,318.528839 335.728271,316.162140 336.036621,313.032257 
	C333.170563,309.906219 331.425995,310.159515 329.605591,314.326416 
	C328.933472,314.976074 328.261322,315.625763 326.984100,316.164856 
	C326.746368,316.298431 326.508636,316.431976 326.270905,316.565521 
	C326.630829,316.596619 326.990753,316.627747 327.275604,317.558197 
	C327.019531,318.098969 326.763458,318.639740 325.714142,319.139069 
	C324.152466,322.539185 322.235474,325.829865 321.143250,329.374603 
	C320.292786,332.134827 320.469025,335.211365 319.998779,338.003815 
	C319.998779,338.003815 320.191986,338.142151 319.529175,338.109772 
	C317.680450,337.408813 315.831696,336.707855 313.479706,335.513367 
	C313.247101,334.364319 313.014496,333.215271 313.414703,331.616760 
	C314.269531,326.319794 311.382141,318.713654 307.475006,316.588257 
	C306.521271,315.624329 305.567535,314.660370 304.749634,312.894440 
	C302.401672,309.922455 300.365997,309.549774 298.692902,313.881561 
	C298.692902,313.881561 298.375122,313.804901 297.691345,313.908844 
	C294.730652,316.743103 295.765167,318.248962 299.508362,319.057800 
	C299.508362,319.057800 299.538635,319.273071 299.138275,319.916565 
	C298.381042,322.000854 296.770386,324.524384 301.610474,324.347351 
	C301.739319,324.898102 301.868134,325.448883 301.335510,326.101196 
	C299.647308,328.715271 300.782318,329.698975 303.891876,330.262024 
	C303.981140,331.248474 304.070404,332.234894 303.992554,333.775208 
	C304.021912,333.871979 304.051300,333.968719 304.080658,334.065491 
	C304.102570,333.792267 304.124481,333.519043 304.993042,333.667236 
	C305.039917,333.978973 305.086823,334.290680 304.575562,335.272125 
	C303.865814,338.721954 304.354797,341.592987 308.001221,343.000000 
	C308.001221,343.000000 308.223328,342.828857 307.857910,343.430573 
	C308.607025,344.947601 309.356110,346.464630 310.529541,348.326416 
	C310.534973,348.508606 310.540405,348.690765 309.813751,349.235474 
	C309.709991,350.470123 309.326019,351.757996 309.548553,352.930725 
	C310.862213,359.852692 309.873138,361.642639 303.229797,364.256378 
	C302.679443,364.472900 302.456726,365.522186 301.775818,366.757782 
	C301.248505,368.364960 300.721191,369.972168 300.147278,372.283539 
	C300.382294,372.675323 300.617310,373.067078 300.852356,373.458832 
	C301.272156,373.059448 301.691956,372.660065 302.674988,372.231171 
	C302.835083,372.329681 302.995178,372.428192 303.139130,373.301880 
	C304.757812,373.531708 306.376465,373.761536 308.758118,373.981903 
	C310.161804,373.606476 311.864929,373.608612 312.909515,372.780304 
	C315.404968,370.801544 319.465332,369.556793 317.898895,364.209717 
	C322.614838,351.770264 327.330780,339.330811 332.771027,327.293579 
	C333.106049,325.719421 333.441040,324.145233 334.231140,321.378235 
	C334.656281,321.359467 335.081451,321.340698 335.112640,321.623322 
M209.928207,341.370544 
	C208.499969,343.827179 209.733398,344.725983 212.584030,345.392670 
	C213.297058,346.516541 214.010101,347.640411 214.059555,349.012177 
	C214.084534,349.853302 213.756348,351.085114 214.188522,351.475769 
	C219.066376,355.885010 224.982605,357.768402 231.445602,357.862549 
	C232.253494,357.874329 233.082962,356.406036 234.335953,355.280914 
	C234.518433,355.305939 234.700928,355.330933 235.130585,356.064972 
	C237.746384,357.527039 239.218674,356.479370 240.311401,353.418365 
	C240.494888,353.396484 240.678360,353.374634 241.075912,354.003876 
	C243.216049,352.663116 245.661606,351.639648 247.442383,349.925568 
	C254.385895,343.242157 256.079773,334.805115 252.723846,326.184509 
	C249.046875,316.739227 241.823349,310.721069 231.168945,310.157074 
	C230.145355,310.102905 229.030029,311.781525 227.235565,313.001068 
	C224.536438,313.881409 221.837326,314.761719 218.906448,314.999115 
	C214.772766,315.244019 209.039017,322.088104 209.940414,325.749115 
	C209.984604,325.928619 210.509750,325.989746 210.778351,326.812927 
	C210.538147,327.214355 210.297943,327.615784 209.447372,327.823547 
	C205.535522,331.440125 205.988312,338.324921 210.059708,340.917664 
	C210.059708,340.917664 210.316910,340.788086 209.928207,341.370544 
M266.683594,317.142944 
	C266.452972,317.095673 266.222382,317.048370 265.702911,316.471191 
	C265.135742,315.647308 264.568604,314.823395 264.500641,313.595825 
	C263.948578,312.795135 263.396484,311.994476 262.844452,311.193817 
	C262.203522,311.954651 261.562592,312.715485 260.192566,313.692413 
	C259.470795,314.891113 258.139221,316.081146 258.122101,317.289795 
	C257.962280,328.588715 257.997375,339.891052 258.071442,351.191742 
	C258.079620,352.431946 258.686127,353.668243 259.103241,355.624634 
	C260.873688,357.701202 262.236267,357.795563 263.545197,354.353668 
	C264.331238,352.740356 265.675751,351.169617 265.802643,349.506012 
	C266.251282,343.623840 266.283295,337.709900 267.193756,331.876099 
	C267.740082,331.381195 268.638367,330.969849 268.778809,330.378540 
	C270.350769,323.759094 273.195068,321.290985 279.209015,322.030945 
	C285.088776,322.754364 283.651611,327.819489 283.895264,331.322754 
	C284.331879,337.601288 283.878967,343.937653 284.136719,350.235992 
	C284.190094,351.540558 285.721649,352.784607 286.973541,354.302338 
	C286.973541,354.302338 287.110504,354.752869 287.146332,355.516174 
	C290.264221,358.210571 292.493317,357.560913 294.119781,352.963959 
	C294.358887,344.318848 294.597992,335.673767 295.375275,327.290192 
	C295.909851,326.953888 296.899445,326.632690 296.911163,326.279022 
	C297.103882,320.475647 291.000244,313.241241 284.891357,311.743073 
	C284.811890,311.693665 284.732422,311.644226 284.652985,311.594788 
	C284.772156,311.727173 284.891357,311.859589 284.969910,312.612183 
	C284.962158,312.819244 284.954437,313.026276 284.195740,313.278839 
	C283.475647,313.092072 282.755554,312.905304 282.017700,311.991119 
	C278.753723,307.448456 275.196808,311.786591 271.920990,312.045746 
	C270.278259,312.175659 268.886841,315.482208 267.171783,317.210449 
	C267.171783,317.210449 267.342163,317.397858 266.683594,317.142944 
M117.927521,322.164703 
	C118.160988,325.137207 118.394455,328.109711 118.773293,331.998260 
	C118.780647,338.276062 118.657150,344.558807 118.895966,350.827789 
	C118.949425,352.231140 120.272575,353.586090 121.083778,355.597992 
	C122.370651,355.031982 123.657524,354.466003 125.307274,353.137207 
	C125.548309,347.729675 125.487671,342.286316 126.124916,336.925873 
	C126.643608,332.562714 127.507286,328.102814 129.127121,324.049103 
	C130.593521,320.379395 134.195114,318.802124 138.216980,319.426575 
	C142.429398,320.080597 143.718231,323.306793 144.005295,327.050995 
	C144.208466,329.700806 144.271149,332.365845 144.286942,335.024719 
	C144.325180,341.463654 144.299347,347.902954 144.299347,354.243073 
	C151.151932,355.071686 152.020630,354.345001 152.036194,348.338165 
	C152.048248,343.679718 151.625916,338.973389 152.161316,334.377441 
	C152.609329,330.531738 153.366455,326.252808 155.496475,323.229431 
	C157.037003,321.042786 161.256317,319.338989 163.898575,319.769104 
	C166.084473,320.124939 168.345795,323.660217 169.401886,326.262360 
	C170.405350,328.734833 169.992538,331.823120 170.020279,334.642395 
	C170.085251,341.240845 170.041046,347.840363 170.041046,354.508698 
	C174.139511,354.835358 177.767914,355.298523 177.851959,350.271545 
	C177.985428,342.288422 178.258591,334.276215 177.754318,326.321838 
	C177.126984,316.426117 169.718430,310.717682 160.770218,313.242828 
	C156.984207,314.311218 153.669693,317.050323 151.087479,318.498993 
	C147.759384,316.626770 144.627396,314.017914 141.050690,313.046356 
	C135.332886,311.493256 130.444778,314.253937 126.226593,318.477875 
	C125.589607,313.371826 122.627708,313.350800 118.628677,314.205414 
	C118.628677,316.969788 118.628677,319.444397 117.927521,322.164703 
M106.310585,234.196320 
	C138.118225,259.188080 173.830536,267.792999 213.320236,258.825012 
	C277.378784,244.277557 319.209900,179.927353 306.159027,116.591644 
	C292.093781,48.333210 226.540100,5.633525 158.184509,20.205524 
	C107.626617,30.983427 68.028168,73.580818 62.343307,124.815483 
	C57.493053,168.528290 72.496948,204.932632 106.310585,234.196320 
M53.273762,349.168427 
	C50.325138,348.770477 47.360104,348.001801 44.434811,348.131226 
	C42.974602,348.195862 41.587067,349.902710 40.166664,350.866760 
	C41.028229,351.962830 41.677631,353.669037 42.786289,354.054535 
	C49.277039,356.311676 55.871151,356.107300 62.307346,353.767975 
	C68.546074,351.500488 71.932663,346.894684 72.510078,340.275848 
	C73.228027,332.045990 69.029533,326.754456 62.156094,323.083893 
	C58.355003,321.054016 54.102844,319.545258 50.920296,316.798065 
	C48.906033,315.059326 47.324100,311.296783 47.704300,308.765778 
	C48.037327,306.548798 51.068542,304.091370 53.477531,303.014496 
	C55.864872,301.947296 59.013382,302.064056 61.740139,302.392120 
	C66.239197,302.933441 67.342896,300.991577 66.738083,296.482635 
	C62.843872,296.255859 59.046181,295.708435 55.281570,295.881317 
	C46.639748,296.278137 40.895161,300.973053 39.380096,308.400024 
	C37.925762,315.529327 41.001156,321.007111 48.887047,325.180023 
	C51.679913,326.657898 54.582577,327.929108 57.368034,329.420013 
	C63.054756,332.463806 65.488861,336.213226 64.546486,340.688812 
	C63.375458,346.250397 59.309151,348.406464 53.273762,349.168427 
M110.481087,313.728180 
	C106.476959,313.175232 104.358704,315.085327 103.185516,318.819000 
	C100.998543,325.779022 98.614746,332.679352 96.183708,339.558899 
	C95.608315,341.187195 94.521317,342.634705 93.135933,345.124664 
	C90.048882,335.742065 87.398247,327.722107 84.772659,319.693970 
	C82.806061,313.680817 81.470261,312.948669 74.631866,314.455078 
	C74.969666,315.536285 75.262802,316.628967 75.649185,317.687622 
	C79.919510,329.387909 84.238350,341.070648 88.471130,352.784485 
	C90.655357,358.829132 87.351562,364.878021 81.017265,365.876617 
	C77.175377,366.482269 76.470139,368.413391 76.985748,371.611542 
	C85.957695,373.584900 91.592361,370.976074 94.988380,362.306061 
	C100.859436,347.317230 106.248749,332.138977 111.733688,317.001587 
	C112.062531,316.094025 111.452942,314.846436 110.481087,313.728180 
M194.963882,354.516968 
	C195.984177,352.709991 197.828384,350.929047 197.886368,349.091705 
	C198.184845,339.635834 198.024750,330.165466 198.024750,320.739166 
	C209.349792,319.309998 209.349792,319.309998 208.020966,313.573792 
	C204.874512,313.573792 201.620926,313.573792 198.431396,313.573792 
	C197.482086,304.042175 198.006287,303.443176 206.159866,300.261688 
	C207.731735,299.648407 208.620438,297.284180 209.824280,295.727692 
	C209.408508,295.063171 208.992737,294.398651 208.576965,293.734131 
	C204.304230,294.500549 199.567841,294.351959 195.859085,296.231323 
	C188.968613,299.722931 190.709717,307.327576 189.652191,313.925049 
	C186.510132,313.925049 183.604858,313.925049 180.059418,313.925049 
	C180.557892,315.914948 180.510345,318.118073 181.312439,318.490234 
	C184.004089,319.739227 186.998779,320.335175 190.075378,321.239197 
	C190.075378,331.070923 190.186020,341.043854 190.011932,351.011810 
	C189.955368,354.251434 191.230774,355.196228 194.963882,354.516968 
M337.480377,317.586151 
	C337.480377,317.586151 337.416199,317.477051 337.480377,317.586151 
M223.421570,311.486664 
	C223.421570,311.486664 223.524170,311.428955 223.421570,311.486664 
z"/>
<path fill="#171717" opacity="1.000000" stroke="none" 
	d="
M357.000000,1.500000 
	C238.644653,1.999430 120.289314,1.998859 1.466984,1.999144 
	C2.500000,1.666667 3.999807,1.042715 5.500028,1.041720 
	C77.499992,0.993944 149.500000,1.000000 221.500000,1.000000 
	C266.666656,1.000000 311.833344,1.000000 357.000000,1.500000 
z"/>
<path fill="#FCFCFC" opacity="1.000000" stroke="none" 
	d="
M106.026367,233.984451 
	C72.496948,204.932632 57.493053,168.528290 62.343307,124.815483 
	C68.028168,73.580818 107.626617,30.983427 158.184509,20.205524 
	C226.540100,5.633525 292.093781,48.333210 306.159027,116.591644 
	C319.209900,179.927353 277.378784,244.277557 213.320236,258.825012 
	C173.830536,267.792999 138.118225,259.188080 106.026367,233.984451 
M136.670776,175.126328 
	C137.114853,175.045990 137.558929,174.965652 138.770218,175.016541 
	C140.603973,174.432007 142.414536,173.757690 144.275085,173.276901 
	C162.097153,168.671387 168.937622,150.247879 158.044281,135.446106 
	C154.231049,130.264709 149.572662,125.705299 145.226379,120.288589 
	C144.718613,119.479843 144.210846,118.671097 143.660019,117.305931 
	C143.515808,117.188431 143.371582,117.070923 143.291428,116.201935 
	C143.162720,115.464050 143.034027,114.726173 143.076889,113.337379 
	C143.028488,112.894188 142.980103,112.450989 143.242966,111.401749 
	C143.811234,109.927628 144.379501,108.453514 145.498779,106.695847 
	C146.330536,105.783997 147.162292,104.872147 148.612213,103.883560 
	C150.075684,103.242493 151.539154,102.601433 153.792648,102.020409 
	C155.927231,101.907761 158.061798,101.795105 160.209381,101.592590 
	C160.209381,101.592590 160.240158,101.806557 160.563370,102.478142 
	C161.966476,102.934013 163.369583,103.389893 165.217987,104.199287 
	C166.096741,104.522552 166.975479,104.845818 167.961090,105.004585 
	C167.961090,105.004585 167.826096,105.147118 168.142487,105.740738 
	C169.716278,106.595001 171.290070,107.449265 173.009109,108.737617 
	C173.218231,108.999641 173.489578,109.113983 174.089706,109.705803 
	C177.563492,112.573341 181.037292,115.440872 184.869827,118.787415 
	C184.741257,122.376442 185.064178,126.054123 184.380905,129.534225 
	C183.289886,135.091080 181.530136,140.516617 179.740433,146.716141 
	C179.034760,150.793121 178.329086,154.870117 177.234344,159.322113 
	C177.265869,159.499466 177.297394,159.676804 177.085968,160.510849 
	C176.942963,161.659943 176.799973,162.809021 176.280914,164.517258 
	C176.292297,164.959244 176.303696,165.401245 175.981583,166.447235 
	C175.715790,168.301651 175.450012,170.156052 174.791779,172.510056 
	C174.693085,173.331528 174.594391,174.152985 174.089874,175.685272 
	C173.648102,178.116272 173.206329,180.547272 172.337830,183.465332 
	C172.225311,184.310242 172.112793,185.155151 171.606201,186.394058 
	C171.539078,186.937790 171.471939,187.481522 170.984482,188.648270 
	C170.655258,190.098572 170.326050,191.548874 169.560394,193.550995 
	C168.726089,196.037735 167.891785,198.524475 166.629227,201.587708 
	C166.469696,202.022430 166.310165,202.457153 165.796906,203.401672 
	C163.437500,207.212082 161.733276,211.738602 158.551224,214.649857 
	C154.661606,218.208466 149.637695,220.619812 144.858215,223.041626 
	C143.796478,223.579605 141.707092,222.089462 140.090866,221.533142 
	C140.857956,220.058594 141.259705,218.079697 142.463333,217.207779 
	C145.584656,214.946701 147.250153,211.811584 145.746902,208.627533 
	C144.335739,205.638474 141.712280,202.441208 138.808487,201.108261 
	C133.592590,198.713959 126.868286,202.213821 124.237465,207.568634 
	C121.417816,213.307770 123.348381,220.543243 129.129395,224.210205 
	C136.341354,228.784836 144.122345,229.075577 152.588501,226.389023 
	C152.723785,226.285172 152.859070,226.181320 153.708603,226.138916 
	C155.562958,225.325623 157.417297,224.512329 159.759766,223.686905 
	C159.759766,223.686905 160.032211,223.281708 160.762817,223.237518 
	C165.454834,219.644135 170.146835,216.050766 175.328644,212.229813 
	C176.021545,211.418579 176.714447,210.607330 178.028793,209.482285 
	C179.143768,208.008118 180.258728,206.533951 181.925049,204.767441 
	C182.258850,204.261261 182.592651,203.755081 183.384384,202.858353 
	C184.996750,200.246307 186.609131,197.634262 188.658432,194.761749 
	C188.669724,194.592560 188.681015,194.423370 189.195862,193.857559 
	C189.942398,192.264999 190.688934,190.672455 191.831375,188.768127 
	C191.837936,188.600281 191.844498,188.432434 192.253082,187.925858 
	C192.471390,187.281982 192.689682,186.638107 193.326462,185.600433 
	C193.500458,185.068420 193.674454,184.536423 194.294724,183.478104 
	C194.920151,181.770538 195.545578,180.062958 196.688553,177.823624 
	C197.734375,174.210037 198.780182,170.596466 200.183426,166.456192 
	C200.352676,165.645874 200.521912,164.835556 201.055786,163.416824 
	C201.067276,162.948364 201.078766,162.479904 201.491104,161.652725 
	C201.469269,161.474747 201.447418,161.296768 201.794312,160.677429 
	C201.793060,160.111526 201.791809,159.545639 202.240433,158.334869 
	C203.504471,151.555374 204.768524,144.775879 206.337173,137.346832 
	C206.416275,136.644562 206.495377,135.942291 206.871826,134.587570 
	C207.590729,132.454147 208.309616,130.320724 209.681046,128.490768 
	C210.383209,128.477722 211.085358,128.464676 212.531342,128.725967 
	C215.423340,128.618500 218.315353,128.511032 222.047638,128.601135 
	C227.103134,127.064331 232.644257,126.349449 237.064682,123.737740 
	C240.783585,121.540497 243.897797,117.510506 245.989609,113.601486 
	C247.988663,109.865814 246.551163,105.650620 242.917831,102.987144 
	C239.545044,100.514709 236.156097,101.719910 233.334427,104.125778 
	C229.888748,107.063705 230.531708,110.531113 232.736313,113.971985 
	C234.508163,116.737419 234.074722,119.171661 231.144012,120.659004 
	C224.100800,124.233444 216.736816,125.324272 209.199951,122.102654 
	C209.869171,118.510223 210.440201,114.896172 211.225662,111.329346 
	C213.760025,99.820694 215.415741,88.013397 221.864044,77.757866 
	C225.475327,72.014404 230.226196,67.651970 237.400238,67.432205 
	C239.675095,67.362526 242.366211,68.116966 244.100372,69.473846 
	C244.789322,70.012909 243.686707,73.334473 242.898590,75.174606 
	C240.676300,80.363403 241.902954,84.997116 246.337189,87.106354 
	C251.432785,89.530182 257.160706,87.650780 259.525635,82.779060 
	C263.085876,75.445000 259.491943,67.690750 250.762329,64.702446 
	C238.788727,60.603683 227.663010,63.235302 217.583282,70.230644 
	C206.170685,78.150993 198.880112,89.433586 192.832642,102.380692 
	C191.889236,104.920784 190.945831,107.460869 189.499542,110.482040 
	C188.641983,111.746407 187.784424,113.010765 186.594330,113.762108 
	C186.078461,113.471710 185.562592,113.181305 184.774765,112.285919 
	C181.769485,109.707901 178.764221,107.129883 175.396225,103.952789 
	C171.305161,101.828552 167.214096,99.704308 162.560669,97.157623 
	C160.713272,96.832565 158.865891,96.507500 156.317535,95.817841 
	C148.603058,95.093201 141.273102,95.962273 134.292572,101.152740 
	C131.125534,105.307549 127.958481,109.462364 124.240616,114.111710 
	C124.130959,115.069115 124.021301,116.026512 123.660919,117.223114 
	C123.660919,117.223114 123.755386,117.556503 123.184990,118.178703 
	C123.536842,121.491356 123.888695,124.804016 124.267220,128.815231 
	C124.502136,129.212677 124.737053,129.610138 124.920494,130.724411 
	C126.366035,133.227997 127.811569,135.731567 129.546371,138.875702 
	C131.112244,140.555573 132.678116,142.235428 134.431732,144.545135 
	C137.265930,148.035126 140.100128,151.525116 142.928757,155.868210 
	C143.846817,162.394943 140.058777,166.089569 134.194366,168.977371 
	C131.494553,169.248138 128.794724,169.518906 125.577110,169.295898 
	C124.323860,168.882614 123.020966,168.579010 121.825607,168.037872 
	C115.235130,165.054321 115.154472,164.175171 118.891869,157.937744 
	C121.244232,154.011826 121.444939,149.658142 118.479195,145.810852 
	C116.063461,142.677048 112.747124,141.414948 108.813309,142.588181 
	C103.994461,144.025360 102.136681,148.005524 102.876465,152.249969 
	C103.636337,156.609619 105.263985,161.248047 107.868965,164.756973 
	C111.941444,170.242661 118.394188,172.517914 125.602142,174.231842 
	C126.041695,174.234329 126.481239,174.236832 127.577339,174.593689 
	C129.050797,174.723709 130.524246,174.853729 132.779282,175.208817 
	C133.853180,175.136993 134.927094,175.065155 136.670776,175.126328 
z"/>
<path fill="#EFEFEF" opacity="1.000000" stroke="none" 
	d="
M121.011185,354.963318 
	C120.272575,353.586090 118.949425,352.231140 118.895966,350.827789 
	C118.657150,344.558807 118.780647,338.276062 118.837570,331.098511 
	C118.810791,327.438843 118.719734,324.678925 118.628677,321.919037 
	C118.628677,319.444397 118.628677,316.969788 118.628677,314.205414 
	C122.627708,313.350800 125.589607,313.371826 126.226593,318.477875 
	C130.444778,314.253937 135.332886,311.493256 141.050690,313.046356 
	C144.627396,314.017914 147.759384,316.626770 151.087479,318.498993 
	C153.669693,317.050323 156.984207,314.311218 160.770218,313.242828 
	C169.718430,310.717682 177.126984,316.426117 177.754318,326.321838 
	C178.258591,334.276215 177.985428,342.288422 177.851959,350.271545 
	C177.767914,355.298523 174.139511,354.835358 170.041046,354.508698 
	C170.041046,347.840363 170.085251,341.240845 170.020279,334.642395 
	C169.992538,331.823120 170.405350,328.734833 169.401886,326.262360 
	C168.345795,323.660217 166.084473,320.124939 163.898575,319.769104 
	C161.256317,319.338989 157.037003,321.042786 155.496475,323.229431 
	C153.366455,326.252808 152.609329,330.531738 152.161316,334.377441 
	C151.625916,338.973389 152.048248,343.679718 152.036194,348.338165 
	C152.020630,354.345001 151.151932,355.071686 144.299347,354.243073 
	C144.299347,347.902954 144.325180,341.463654 144.286942,335.024719 
	C144.271149,332.365845 144.208466,329.700806 144.005295,327.050995 
	C143.718231,323.306793 142.429398,320.080597 138.216980,319.426575 
	C134.195114,318.802124 130.593521,320.379395 129.127121,324.049103 
	C127.507286,328.102814 126.643608,332.562714 126.124916,336.925873 
	C125.487671,342.286316 125.548309,347.729675 124.800041,353.621338 
	C123.198936,354.391449 122.105064,354.677399 121.011185,354.963318 
z"/>
<path fill="#EEEEEE" opacity="1.000000" stroke="none" 
	d="
M53.703007,349.135132 
	C59.309151,348.406464 63.375458,346.250397 64.546486,340.688812 
	C65.488861,336.213226 63.054756,332.463806 57.368034,329.420013 
	C54.582577,327.929108 51.679913,326.657898 48.887047,325.180023 
	C41.001156,321.007111 37.925762,315.529327 39.380096,308.400024 
	C40.895161,300.973053 46.639748,296.278137 55.281570,295.881317 
	C59.046181,295.708435 62.843872,296.255859 66.738083,296.482635 
	C67.342896,300.991577 66.239197,302.933441 61.740139,302.392120 
	C59.013382,302.064056 55.864872,301.947296 53.477531,303.014496 
	C51.068542,304.091370 48.037327,306.548798 47.704300,308.765778 
	C47.324100,311.296783 48.906033,315.059326 50.920296,316.798065 
	C54.102844,319.545258 58.355003,321.054016 62.156094,323.083893 
	C69.029533,326.754456 73.228027,332.045990 72.510078,340.275848 
	C71.932663,346.894684 68.546074,351.500488 62.307346,353.767975 
	C55.871151,356.107300 49.277039,356.311676 42.786289,354.054535 
	C41.677631,353.669037 41.028229,351.962830 40.166664,350.866760 
	C41.587067,349.902710 42.974602,348.195862 44.434811,348.131226 
	C47.360104,348.001801 50.325138,348.770477 53.703007,349.135132 
z"/>
<path fill="#EEEEEE" opacity="1.000000" stroke="none" 
	d="
M110.880554,313.742615 
	C111.452942,314.846436 112.062531,316.094025 111.733688,317.001587 
	C106.248749,332.138977 100.859436,347.317230 94.988380,362.306061 
	C91.592361,370.976074 85.957695,373.584900 76.985748,371.611542 
	C76.470139,368.413391 77.175377,366.482269 81.017265,365.876617 
	C87.351562,364.878021 90.655357,358.829132 88.471130,352.784485 
	C84.238350,341.070648 79.919510,329.387909 75.649185,317.687622 
	C75.262802,316.628967 74.969666,315.536285 74.631866,314.455078 
	C81.470261,312.948669 82.806061,313.680817 84.772659,319.693970 
	C87.398247,327.722107 90.048882,335.742065 93.135933,345.124664 
	C94.521317,342.634705 95.608315,341.187195 96.183708,339.558899 
	C98.614746,332.679352 100.998543,325.779022 103.185516,318.819000 
	C104.358704,315.085327 106.476959,313.175232 110.880554,313.742615 
z"/>
<path fill="#EFEFEF" opacity="1.000000" stroke="none" 
	d="
M219.138184,315.642059 
	C221.837326,314.761719 224.536438,313.881409 228.034607,312.901764 
	C234.652573,312.652130 239.931580,313.883850 244.552979,317.812836 
	C253.268112,325.222168 255.955246,343.143555 240.861832,353.352783 
	C240.678360,353.374634 240.494888,353.396484 239.803207,353.637573 
	C237.824478,354.356445 236.353943,354.856171 234.883408,355.355896 
	C234.700928,355.330933 234.518433,355.305939 233.702850,355.406555 
	C225.885803,356.172424 219.863495,353.663757 214.723129,348.764282 
	C214.010101,347.640411 213.297058,346.516541 212.296509,344.858582 
	C211.444946,343.145691 210.880920,341.966888 210.316910,340.788086 
	C210.316910,340.788086 210.059708,340.917664 210.196045,340.528564 
	C210.193909,339.753723 210.055420,339.367981 209.968109,338.740326 
	C210.019272,338.498444 209.829025,338.042023 209.854828,337.591309 
	C209.877670,334.751465 209.874695,332.362366 209.951538,329.738342 
	C210.031372,329.503448 209.927521,329.018250 210.038498,328.778198 
	C210.118896,328.364502 210.088318,328.190857 210.057739,328.017212 
	C210.297943,327.615784 210.538147,327.214355 210.972290,326.206665 
	C213.823547,322.280914 216.480865,318.961487 219.138184,315.642059 
M232.070511,319.342712 
	C224.467560,319.472321 220.271851,322.689484 218.425644,329.805298 
	C215.984787,339.212982 221.305130,348.556091 229.467453,349.195953 
	C236.176025,349.721802 241.399139,345.531036 242.802307,338.496643 
	C244.662460,329.171509 240.861130,321.942261 232.070511,319.342712 
z"/>
<path fill="#EDEDED" opacity="1.000000" stroke="none" 
	d="
M301.996948,325.999634 
	C301.868134,325.448883 301.739319,324.898102 301.429749,323.779419 
	C300.678894,321.898712 300.108765,320.585876 299.538635,319.273071 
	C299.538635,319.273071 299.508362,319.057800 299.425049,318.546387 
	C299.019501,316.624969 298.697296,315.214935 298.375122,313.804901 
	C298.375122,313.804901 298.692902,313.881561 299.092041,313.825714 
	C301.198700,313.745392 302.906250,313.720917 304.613800,313.696442 
	C305.567535,314.660370 306.521271,315.624329 307.646606,317.194885 
	C309.472778,322.556427 311.127350,327.311340 312.781891,332.066223 
	C313.014496,333.215271 313.247101,334.364319 313.723114,336.144867 
	C314.992004,339.892700 316.017517,343.009033 317.486664,347.473419 
	C318.673340,343.380341 319.432678,340.761261 320.192017,338.142151 
	C320.191986,338.142151 319.998779,338.003815 320.373657,337.838135 
	C322.668152,331.508484 324.587769,325.344482 326.507385,319.180511 
	C326.763458,318.639740 327.019531,318.098969 327.383972,317.067200 
	C327.492340,316.576172 327.589203,316.275421 327.589203,316.275421 
	C328.261322,315.625763 328.933472,314.976074 330.231171,314.117065 
	C332.595642,313.870300 334.334564,313.832886 336.073425,313.795471 
	C335.728271,316.162140 335.383087,318.528839 335.301147,321.055786 
	C335.564392,321.216095 335.506592,321.321930 335.506592,321.321930 
	C335.081451,321.340698 334.656281,321.359467 333.779907,322.109314 
	C332.901337,324.190674 332.474030,325.541016 332.046722,326.891357 
	C327.330780,339.330811 322.614838,351.770264 317.534576,364.734314 
	C314.103455,367.607056 311.036682,369.955200 307.651520,372.291687 
	C306.502930,372.422943 305.672668,372.565857 304.587280,372.549316 
	C303.939819,372.435455 303.547577,372.481110 303.155304,372.526733 
	C302.995178,372.428192 302.835083,372.329681 302.187073,372.088196 
	C301.197388,371.823242 300.695618,371.701294 300.193848,371.579346 
	C300.721191,369.972168 301.248505,368.364960 302.327271,366.464355 
	C307.683014,366.374908 311.203094,363.882874 311.970184,359.540192 
	C312.564850,356.173340 311.096893,352.442139 310.545807,348.872894 
	C310.540405,348.690765 310.534973,348.508606 310.323395,347.798523 
	C309.485931,345.790039 308.854614,344.309448 308.223328,342.828857 
	C308.223328,342.828857 308.001221,343.000000 308.110138,342.548767 
	C307.190613,339.599152 306.162170,337.100800 305.133759,334.602417 
	C305.086823,334.290680 305.039917,333.978973 304.596893,333.471436 
	C304.200745,333.275604 304.159668,333.221344 304.159668,333.221344 
	C304.070404,332.234894 303.981140,331.248474 303.629456,329.684875 
	C302.910339,328.071686 302.453644,327.035645 301.996948,325.999634 
z"/>
<path fill="#EDEDED" opacity="1.000000" stroke="none" 
	d="
M259.015137,354.906311 
	C258.686127,353.668243 258.079620,352.431946 258.071442,351.191742 
	C257.997375,339.891052 257.962280,328.588715 258.122101,317.289795 
	C258.139221,316.081146 259.470795,314.891113 260.838654,313.727905 
	C262.323639,313.842072 263.162537,313.920776 264.001434,313.999512 
	C264.568604,314.823395 265.135742,315.647308 265.770538,317.040405 
	C266.007507,317.978699 266.176819,318.347778 266.346161,318.716888 
	C266.678162,318.277191 267.010162,317.837524 267.342163,317.397858 
	C267.342163,317.397858 267.171783,317.210449 267.582428,317.141357 
	C271.969543,313.349274 276.851318,312.546295 282.035461,312.718506 
	C282.755554,312.905304 283.475647,313.092072 284.791321,313.503845 
	C291.554260,316.018219 293.485260,321.317688 294.837097,327.028656 
	C294.597992,335.673767 294.358887,344.318848 293.628357,353.434692 
	C291.128113,354.187897 289.119293,354.470367 287.110504,354.752869 
	C287.110504,354.752869 286.973541,354.302338 286.830292,353.710358 
	C286.662506,345.301331 286.827545,337.477783 286.561646,329.668976 
	C286.279053,321.370422 281.944794,317.848175 274.881683,319.706970 
	C269.701935,321.070099 267.278412,324.557953 266.473267,331.807983 
	C266.283295,337.709900 266.251282,343.623840 265.802643,349.506012 
	C265.675751,351.169617 264.331238,352.740356 262.864746,354.516907 
	C261.127930,354.755524 260.071533,354.830933 259.015137,354.906311 
z"/>
<path fill="#EEEEEE" opacity="1.000000" stroke="none" 
	d="
M194.555450,354.617432 
	C191.230774,355.196228 189.955368,354.251434 190.011932,351.011810 
	C190.186020,341.043854 190.075378,331.070923 190.075378,321.239197 
	C186.998779,320.335175 184.004089,319.739227 181.312439,318.490234 
	C180.510345,318.118073 180.557892,315.914948 180.059418,313.925049 
	C183.604858,313.925049 186.510132,313.925049 189.652191,313.925049 
	C190.709717,307.327576 188.968613,299.722931 195.859085,296.231323 
	C199.567841,294.351959 204.304230,294.500549 208.576965,293.734131 
	C208.992737,294.398651 209.408508,295.063171 209.824280,295.727692 
	C208.620438,297.284180 207.731735,299.648407 206.159866,300.261688 
	C198.006287,303.443176 197.482086,304.042175 198.431396,313.573792 
	C201.620926,313.573792 204.874512,313.573792 208.020966,313.573792 
	C209.349792,319.309998 209.349792,319.309998 198.024750,320.739166 
	C198.024750,330.165466 198.184845,339.635834 197.886368,349.091705 
	C197.828384,350.929047 195.984177,352.709991 194.555450,354.617432 
z"/>
<path fill="#191919" opacity="1.000000" stroke="none" 
	d="
M240.968872,353.678345 
	C255.955246,343.143555 253.268112,325.222168 244.552979,317.812836 
	C239.931580,313.883850 234.652573,312.652130 228.395477,312.729126 
	C229.030029,311.781525 230.145355,310.102905 231.168945,310.157074 
	C241.823349,310.721069 249.046875,316.739227 252.723846,326.184509 
	C256.079773,334.805115 254.385895,343.242157 247.442383,349.925568 
	C245.661606,351.639648 243.216049,352.663116 240.968872,353.678345 
z"/>
<path fill="#191919" opacity="1.000000" stroke="none" 
	d="
M266.833496,331.842041 
	C267.278412,324.557953 269.701935,321.070099 274.881683,319.706970 
	C281.944794,317.848175 286.279053,321.370422 286.561646,329.668976 
	C286.827545,337.477783 286.662506,345.301331 286.629456,353.587463 
	C285.721649,352.784607 284.190094,351.540558 284.136719,350.235992 
	C283.878967,343.937653 284.331879,337.601288 283.895264,331.322754 
	C283.651611,327.819489 285.088776,322.754364 279.209015,322.030945 
	C273.195068,321.290985 270.350769,323.759094 268.778809,330.378540 
	C268.638367,330.969849 267.740082,331.381195 266.833496,331.842041 
z"/>
<path fill="#191919" opacity="1.000000" stroke="none" 
	d="
M310.179779,349.054199 
	C311.096893,352.442139 312.564850,356.173340 311.970184,359.540192 
	C311.203094,363.882874 307.683014,366.374908 302.480225,366.177734 
	C302.456726,365.522186 302.679443,364.472900 303.229797,364.256378 
	C309.873138,361.642639 310.862213,359.852692 309.548553,352.930725 
	C309.326019,351.757996 309.709991,350.470123 310.179779,349.054199 
z"/>
<path fill="#191919" opacity="1.000000" stroke="none" 
	d="
M214.391342,348.888245 
	C219.863495,353.663757 225.885803,356.172424 233.486084,355.577850 
	C233.082962,356.406036 232.253494,357.874329 231.445602,357.862549 
	C224.982605,357.768402 219.066376,355.885010 214.188522,351.475769 
	C213.756348,351.085114 214.084534,349.853302 214.391342,348.888245 
z"/>
<path fill="#191919" opacity="1.000000" stroke="none" 
	d="
M295.106201,327.159424 
	C293.485260,321.317688 291.554260,316.018219 285.166840,313.481079 
	C284.954437,313.026276 284.962158,312.819244 284.984955,312.306091 
	C285.000000,312.000000 284.992035,312.010468 284.992035,312.010468 
	C291.000244,313.241241 297.103882,320.475647 296.911163,326.279022 
	C296.899445,326.632690 295.909851,326.953888 295.106201,327.159424 
z"/>
<path fill="#191919" opacity="1.000000" stroke="none" 
	d="
M326.110779,319.159790 
	C324.587769,325.344482 322.668152,331.508484 320.468750,337.909912 
	C320.469025,335.211365 320.292786,332.134827 321.143250,329.374603 
	C322.235474,325.829865 324.152466,322.539185 326.110779,319.159790 
z"/>
<path fill="#191919" opacity="1.000000" stroke="none" 
	d="
M282.026581,312.354797 
	C276.851318,312.546295 271.969543,313.349274 267.687408,317.212158 
	C268.886841,315.482208 270.278259,312.175659 271.920990,312.045746 
	C275.196808,311.786591 278.753723,307.448456 282.026581,312.354797 
z"/>
<path fill="#191919" opacity="1.000000" stroke="none" 
	d="
M313.098297,331.841492 
	C311.127350,327.311340 309.472778,322.556427 307.846313,317.411865 
	C311.382141,318.713654 314.269531,326.319794 313.098297,331.841492 
z"/>
<path fill="#191919" opacity="1.000000" stroke="none" 
	d="
M209.871735,329.973267 
	C209.874695,332.362366 209.877670,334.751465 209.719635,337.693176 
	C209.678070,338.491241 209.797501,338.736725 209.916946,338.982208 
	C210.055420,339.367981 210.193909,339.753723 210.315125,340.447601 
	C205.988312,338.324921 205.535522,331.440125 209.752563,327.920380 
	C210.088318,328.190857 210.118896,328.364502 209.885300,328.862427 
	C209.555847,329.281860 209.414093,329.426819 209.438187,329.463837 
	C209.558838,329.649170 209.722916,329.806244 209.871735,329.973267 
z"/>
<path fill="#191919" opacity="1.000000" stroke="none" 
	d="
M219.022308,315.320587 
	C216.480865,318.961487 213.823547,322.280914 210.988571,325.853210 
	C210.509750,325.989746 209.984604,325.928619 209.940414,325.749115 
	C209.039017,322.088104 214.772766,315.244019 219.022308,315.320587 
z"/>
<path fill="#191919" opacity="1.000000" stroke="none" 
	d="
M319.860596,338.125977 
	C319.432678,340.761261 318.673340,343.380341 317.486664,347.473419 
	C316.017517,343.009033 314.992004,339.892700 313.974731,336.391602 
	C315.831696,336.707855 317.680450,337.408813 319.860596,338.125977 
z"/>
<path fill="#191919" opacity="1.000000" stroke="none" 
	d="
M307.969849,372.303345 
	C311.036682,369.955200 314.103455,367.607056 317.451477,365.088623 
	C319.465332,369.556793 315.404968,370.801544 312.909515,372.780304 
	C311.864929,373.608612 310.161804,373.606476 308.380188,373.992065 
	C308.002289,374.002228 308.010895,374.010803 308.000000,373.725891 
	C307.982727,373.061737 307.976288,372.682556 307.969849,372.303345 
z"/>
<path fill="#191919" opacity="1.000000" stroke="none" 
	d="
M304.854675,334.937256 
	C306.162170,337.100800 307.190613,339.599152 308.222229,342.464417 
	C304.354797,341.592987 303.865814,338.721954 304.854675,334.937256 
z"/>
<path fill="#303030" opacity="1.000000" stroke="none" 
	d="
M118.278099,322.041870 
	C118.719734,324.678925 118.810791,327.438843 118.764885,330.640472 
	C118.394455,328.109711 118.160988,325.137207 118.278099,322.041870 
z"/>
<path fill="#191919" opacity="1.000000" stroke="none" 
	d="
M336.055054,313.413879 
	C334.334564,313.832886 332.595642,313.870300 330.421875,313.909180 
	C331.425995,310.159515 333.170563,309.906219 336.055054,313.413879 
z"/>
<path fill="#191919" opacity="1.000000" stroke="none" 
	d="
M287.128418,355.134521 
	C289.119293,354.470367 291.128113,354.187897 293.506531,353.816437 
	C292.493317,357.560913 290.264221,358.210571 287.128418,355.134521 
z"/>
<path fill="#191919" opacity="1.000000" stroke="none" 
	d="
M304.681702,313.295441 
	C302.906250,313.720917 301.198700,313.745392 299.176514,313.685822 
	C300.365997,309.549774 302.401672,309.922455 304.681702,313.295441 
z"/>
<path fill="#191919" opacity="1.000000" stroke="none" 
	d="
M298.033203,313.856873 
	C298.697296,315.214935 299.019501,316.624969 299.347290,318.470459 
	C295.765167,318.248962 294.730652,316.743103 298.033203,313.856873 
z"/>
<path fill="#191919" opacity="1.000000" stroke="none" 
	d="
M235.006989,355.710449 
	C236.353943,354.856171 237.824478,354.356445 239.634506,353.857452 
	C239.218674,356.479370 237.746384,357.527039 235.006989,355.710449 
z"/>
<path fill="#191919" opacity="1.000000" stroke="none" 
	d="
M264.251038,313.797668 
	C263.162537,313.920776 262.323639,313.842072 261.203217,313.619873 
	C261.562592,312.715485 262.203522,311.954651 262.844421,311.193787 
	C263.396484,311.994476 263.948578,312.795135 264.251038,313.797668 
z"/>
<path fill="#191919" opacity="1.000000" stroke="none" 
	d="
M308.040619,343.129700 
	C308.854614,344.309448 309.485931,345.790039 310.111206,347.626160 
	C309.356110,346.464630 308.607025,344.947601 308.040619,343.129700 
z"/>
<path fill="#191919" opacity="1.000000" stroke="none" 
	d="
M332.408875,327.092468 
	C332.474030,325.541016 332.901337,324.190674 333.552368,322.705719 
	C333.441040,324.145233 333.106049,325.719421 332.408875,327.092468 
z"/>
<path fill="#191919" opacity="1.000000" stroke="none" 
	d="
M299.338440,319.594818 
	C300.108765,320.585876 300.678894,321.898712 301.227905,323.573486 
	C296.770386,324.524384 298.381042,322.000854 299.338440,319.594818 
z"/>
<path fill="#191919" opacity="1.000000" stroke="none" 
	d="
M301.666229,326.050415 
	C302.453644,327.035645 302.910339,328.071686 303.416077,329.448303 
	C300.782318,329.698975 299.647308,328.715271 301.666229,326.050415 
z"/>
<path fill="#191919" opacity="1.000000" stroke="none" 
	d="
M210.122559,341.079315 
	C210.880920,341.966888 211.444946,343.145691 212.028397,344.658295 
	C209.733398,344.725983 208.499969,343.827179 210.122559,341.079315 
z"/>
<path fill="#303030" opacity="1.000000" stroke="none" 
	d="
M121.047485,355.280640 
	C122.105064,354.677399 123.198936,354.391449 124.618607,354.002747 
	C123.657524,354.466003 122.370651,355.031982 121.047485,355.280640 
z"/>
<path fill="#191919" opacity="1.000000" stroke="none" 
	d="
M259.059204,355.265472 
	C260.071533,354.830933 261.127930,354.755524 262.576691,354.754639 
	C262.236267,357.795563 260.873688,357.701202 259.059204,355.265472 
z"/>
<path fill="#191919" opacity="1.000000" stroke="none" 
	d="
M303.147217,372.914307 
	C303.547577,372.481110 303.939819,372.435455 304.795654,372.847961 
	C306.176453,373.540985 307.093689,373.775909 308.010895,374.010803 
	C308.010895,374.010803 308.002289,374.002228 307.998718,373.996796 
	C306.376465,373.761536 304.757812,373.531708 303.147217,372.914307 
z"/>
<path fill="#191919" opacity="1.000000" stroke="none" 
	d="
M300.170563,371.931427 
	C300.695618,371.701294 301.197388,371.823242 301.905457,372.102936 
	C301.691956,372.660065 301.272156,373.059448 300.852356,373.458832 
	C300.617310,373.067078 300.382294,372.675323 300.170563,371.931427 
z"/>
<path fill="#191919" opacity="1.000000" stroke="none" 
	d="
M267.012878,317.270386 
	C267.010162,317.837524 266.678162,318.277191 266.346161,318.716888 
	C266.176819,318.347778 266.007507,317.978699 265.914978,317.305359 
	C266.222382,317.048370 266.452972,317.095673 267.012878,317.270386 
z"/>
<path fill="#191919" opacity="1.000000" stroke="none" 
	d="
M327.286652,316.220154 
	C327.589203,316.275421 327.492340,316.576172 327.421509,316.617523 
	C326.990753,316.627747 326.630829,316.596619 326.270905,316.565521 
	C326.508636,316.431976 326.746368,316.298431 327.286652,316.220154 
z"/>
<path fill="#191919" opacity="1.000000" stroke="none" 
	d="
M304.076111,333.498291 
	C304.159668,333.221344 304.200745,333.275604 304.173584,333.260712 
	C304.124481,333.519043 304.102570,333.792267 304.080658,334.065491 
	C304.051300,333.968719 304.021912,333.871979 304.076111,333.498291 
z"/>
<path fill="#191919" opacity="1.000000" stroke="none" 
	d="
M335.309631,321.472626 
	C335.506592,321.321930 335.564392,321.216095 335.645569,321.191315 
	C335.522034,321.318787 335.317322,321.471069 335.309631,321.472626 
z"/>
<path fill="#191919" opacity="1.000000" stroke="none" 
	d="
M337.448303,317.531616 
	C337.416199,317.477051 337.480377,317.586151 337.448303,317.531616 
z"/>
<path fill="#191919" opacity="1.000000" stroke="none" 
	d="
M223.472870,311.457825 
	C223.524170,311.428955 223.421570,311.486664 223.472870,311.457825 
z"/>
<path fill="#191919" opacity="1.000000" stroke="none" 
	d="
M285.005249,311.995972 
	C284.891357,311.859589 284.772156,311.727173 284.652985,311.594788 
	C284.732422,311.644226 284.811890,311.693665 284.941711,311.876770 
	C284.992035,312.010468 285.000000,312.000000 285.005249,311.995972 
z"/>
<path fill="#060606" opacity="1.000000" stroke="none" 
	d="
M193.232498,101.887726 
	C198.880112,89.433586 206.170685,78.150993 217.583282,70.230644 
	C227.663010,63.235302 238.788727,60.603683 250.762329,64.702446 
	C259.491943,67.690750 263.085876,75.445000 259.525635,82.779060 
	C257.160706,87.650780 251.432785,89.530182 246.337189,87.106354 
	C241.902954,84.997116 240.676300,80.363403 242.898590,75.174606 
	C243.686707,73.334473 244.789322,70.012909 244.100372,69.473846 
	C242.366211,68.116966 239.675095,67.362526 237.400238,67.432205 
	C230.226196,67.651970 225.475327,72.014404 221.864044,77.757866 
	C215.415741,88.013397 213.760025,99.820694 211.225662,111.329346 
	C210.440201,114.896172 209.869171,118.510223 209.087387,122.929642 
	C208.992722,125.233513 209.010620,126.710411 209.028519,128.187302 
	C208.309616,130.320724 207.590729,132.454147 206.357605,134.875397 
	C205.305298,135.577866 204.767212,135.992538 204.229111,136.407196 
	C204.830261,136.936920 205.431412,137.466660 206.032562,137.996384 
	C204.768524,144.775879 203.504471,151.555374 201.712570,158.698975 
	C201.264999,159.748322 201.345291,160.433548 201.425583,161.118790 
	C201.447418,161.296768 201.469269,161.474747 200.996857,161.849579 
	C200.143753,162.323807 199.784897,162.601181 199.426025,162.878571 
	C199.847733,163.260788 200.269440,163.643021 200.691147,164.025238 
	C200.521912,164.835556 200.352676,165.645874 199.662979,166.777191 
	C197.769821,170.063583 196.397125,173.028992 194.877182,176.318298 
	C195.108780,179.176834 190.287949,181.088867 193.848450,184.004425 
	C193.674454,184.536423 193.500458,185.068420 192.756851,185.802856 
	C191.630753,186.386978 191.074265,186.768692 190.517792,187.150406 
	C190.962219,187.521805 191.406631,187.893188 191.851059,188.264587 
	C191.844498,188.432434 191.837936,188.600281 191.246246,188.921082 
	C188.414978,190.196487 185.768967,191.166962 188.692307,194.254181 
	C188.681015,194.423370 188.669724,194.592560 188.075409,194.910095 
	C184.827194,197.151276 181.806564,199.045990 182.926453,203.248917 
	C182.592651,203.755081 182.258850,204.261261 181.246857,204.918610 
	C179.514877,206.645218 178.461105,208.220642 177.407333,209.796082 
	C176.714447,210.607330 176.021545,211.418579 174.693726,212.234055 
	C169.383270,215.919434 164.707733,219.600571 160.032211,223.281708 
	C160.032211,223.281708 159.759766,223.686905 159.329254,223.323807 
	C157.599686,222.639938 156.300629,222.319183 155.146591,221.697311 
	C155.959015,220.666580 156.693375,219.987030 157.282700,219.199020 
	C160.482498,214.920670 163.736984,210.676758 166.727310,206.255066 
	C167.187210,205.575027 166.374680,204.034454 166.150635,202.891876 
	C166.310165,202.457153 166.469696,202.022430 167.133713,201.414352 
	C170.911652,199.500549 172.097549,195.356644 169.996841,192.999176 
	C170.326050,191.548874 170.655258,190.098572 171.503082,188.332977 
	C172.540817,187.754471 173.059952,187.491257 173.579102,187.228027 
	C173.052826,186.818710 172.526550,186.409378 172.000275,186.000061 
	C172.112793,185.155151 172.225311,184.310242 172.922363,183.181732 
	C176.942856,179.369019 177.291763,176.573135 174.495712,174.974457 
	C174.594391,174.152985 174.693085,173.331528 175.356735,172.206085 
	C178.644470,170.050751 179.124603,168.053787 176.315079,165.843231 
	C176.303696,165.401245 176.292297,164.959244 176.862762,164.199234 
	C177.406036,162.538864 177.367462,161.196503 177.328903,159.854156 
	C177.297394,159.676804 177.265869,159.499466 177.799957,159.114120 
	C179.478149,154.904205 180.610138,150.907181 181.628372,146.881393 
	C181.666824,146.729340 180.603180,146.298553 180.053131,145.997665 
	C181.530136,140.516617 183.289886,135.091080 184.380905,129.534225 
	C185.064178,126.054123 184.741257,122.376442 184.800140,118.141556 
	C182.584763,112.759285 178.627747,110.370651 173.823151,109.080627 
	C173.489578,109.113983 173.218231,108.999641 172.959412,108.147583 
	C173.859482,106.555656 174.809219,105.553764 175.758957,104.551865 
	C178.764221,107.129883 181.769485,109.707901 184.898483,112.881058 
	C185.657089,113.742508 186.291992,114.008827 186.926880,114.275131 
	C187.784424,113.010765 188.641983,111.746407 190.100250,110.203247 
	C192.206085,107.453850 196.068237,105.725700 193.232498,101.887726 
M247.618530,84.787941 
	C251.725952,86.312958 255.128357,85.598251 257.201965,81.467247 
	C259.329987,77.227898 258.029449,71.663010 254.534607,69.316414 
	C249.900879,66.205139 248.000671,67.006134 246.904144,72.401947 
	C246.644287,73.680618 245.496780,74.908775 245.581665,76.101524 
	C245.778976,78.873978 246.478699,81.610680 247.618530,84.787941 
z"/>
<path fill="#050505" opacity="1.000000" stroke="none" 
	d="
M145.300217,120.861862 
	C149.572662,125.705299 154.231049,130.264709 158.044281,135.446106 
	C168.937622,150.247879 162.097153,168.671387 144.275085,173.276901 
	C142.414536,173.757690 140.603973,174.432007 138.381256,174.628876 
	C137.315735,173.850189 136.639145,173.459152 135.567535,173.048645 
	C134.118057,173.030060 133.063599,173.030945 132.005585,172.768524 
	C131.998917,172.329681 131.995804,172.154144 132.288498,171.842728 
	C133.393082,170.813171 134.201828,169.919510 135.010574,169.025848 
	C140.058777,166.089569 143.846817,162.394943 143.251389,155.392151 
	C143.915359,154.619034 144.256683,154.321960 144.598007,154.024887 
	C141.146667,150.655014 137.695328,147.285156 134.243988,143.915283 
	C132.678116,142.235428 131.112244,140.555573 129.733017,138.430206 
	C129.790314,134.382996 129.030243,131.172455 124.971970,130.007584 
	C124.737053,129.610138 124.502136,129.212677 124.600021,128.363464 
	C124.540337,124.459969 124.147865,121.008240 123.755386,117.556503 
	C123.755386,117.556503 123.660919,117.223114 124.119484,117.067612 
	C124.649170,115.813797 124.720299,114.715485 124.791428,113.617172 
	C127.958481,109.462364 131.125534,105.307549 135.024445,101.090546 
	C142.141159,99.950134 148.168915,96.111168 155.061050,98.547264 
	C155.393387,98.664734 156.351685,97.011230 157.018494,96.182434 
	C158.865891,96.507500 160.713272,96.832565 162.840790,97.750511 
	C164.151840,100.033333 166.882858,101.212906 164.772690,103.845764 
	C163.369583,103.389893 161.966476,102.934013 160.507706,101.854744 
	C160.300110,101.040817 160.148193,100.850296 159.996262,100.659767 
	C160.062973,101.000664 160.129684,101.341553 160.196381,101.682449 
	C158.061798,101.795105 155.927231,101.907761 153.313538,101.613541 
	C149.641220,99.347641 148.327850,100.793030 147.994049,103.960297 
	C147.162292,104.872147 146.330536,105.783997 144.878998,106.859436 
	C140.958405,109.455307 140.743271,110.263092 142.931702,112.007797 
	C142.980103,112.450989 143.028488,112.894188 142.656326,113.724014 
	C140.377563,115.821709 140.974060,116.676521 143.227371,116.953415 
	C143.371582,117.070923 143.515808,117.188431 143.343048,117.692978 
	C143.784119,119.007309 144.542175,119.934586 145.300217,120.861862 
z"/>
<path fill="#111111" opacity="1.000000" stroke="none" 
	d="
M165.973770,203.146774 
	C166.374680,204.034454 167.187210,205.575027 166.727310,206.255066 
	C163.736984,210.676758 160.482498,214.920670 157.282700,219.199020 
	C156.693375,219.987030 155.959015,220.666580 155.145798,221.698090 
	C155.000000,222.000000 154.998169,222.001831 154.778137,222.109009 
	C154.282791,222.414932 154.096100,222.676880 153.999023,223.001007 
	C154.000000,223.000000 154.001831,222.998169 153.639984,223.063751 
	C152.882248,224.176712 152.486389,225.224121 152.090515,226.271515 
	C144.122345,229.075577 136.341354,228.784836 129.129395,224.210205 
	C123.348381,220.543243 121.417816,213.307770 124.237465,207.568634 
	C126.868286,202.213821 133.592590,198.713959 138.808487,201.108261 
	C141.712280,202.441208 144.335739,205.638474 145.746902,208.627533 
	C147.250153,211.811584 145.584656,214.946701 142.463333,217.207779 
	C141.259705,218.079697 140.857956,220.058594 140.090866,221.533142 
	C141.707092,222.089462 143.796478,223.579605 144.858215,223.041626 
	C149.637695,220.619812 154.661606,218.208466 158.551224,214.649857 
	C161.733276,211.738602 163.437500,207.212082 165.973770,203.146774 
z"/>
<path fill="#0A0A0A" opacity="1.000000" stroke="none" 
	d="
M124.993271,173.949066 
	C118.394188,172.517914 111.941444,170.242661 107.868965,164.756973 
	C105.263985,161.248047 103.636337,156.609619 102.876465,152.249969 
	C102.136681,148.005524 103.994461,144.025360 108.813309,142.588181 
	C112.747124,141.414948 116.063461,142.677048 118.479195,145.810852 
	C121.444939,149.658142 121.244232,154.011826 118.891869,157.937744 
	C115.154472,164.175171 115.235130,165.054321 121.825607,168.037872 
	C123.020966,168.579010 124.323860,168.882614 125.790161,169.901443 
	C125.666565,171.654343 125.329918,172.801712 124.993271,173.949066 
z"/>
<path fill="#191919" opacity="1.000000" stroke="none" 
	d="
M209.354782,128.339035 
	C209.010620,126.710411 208.992722,125.233513 209.014633,123.315315 
	C216.736816,125.324272 224.100800,124.233444 231.144012,120.659004 
	C234.074722,119.171661 234.508163,116.737419 232.736313,113.971985 
	C230.531708,110.531113 229.888748,107.063705 233.334427,104.125778 
	C236.156097,101.719910 239.545044,100.514709 242.917831,102.987144 
	C246.551163,105.650620 247.988663,109.865814 245.989609,113.601486 
	C243.897797,117.510506 240.783585,121.540497 237.064682,123.737740 
	C232.644257,126.349449 227.103134,127.064331 221.370010,128.155426 
	C217.724091,127.957039 214.755814,128.204346 211.787521,128.451645 
	C211.085358,128.464676 210.383209,128.477722 209.354782,128.339035 
z"/>
<path fill="#1C1C1C" opacity="1.000000" stroke="none" 
	d="
M156.668015,96.000137 
	C156.351685,97.011230 155.393387,98.664734 155.061050,98.547264 
	C148.168915,96.111168 142.141159,99.950134 135.349548,101.001572 
	C141.273102,95.962273 148.603058,95.093201 156.668015,96.000137 
z"/>
<path fill="#1C1C1C" opacity="1.000000" stroke="none" 
	d="
M164.995331,104.022522 
	C166.882858,101.212906 164.151840,100.033333 163.121979,97.961731 
	C167.214096,99.704308 171.305161,101.828552 175.577591,104.252335 
	C174.809219,105.553764 173.859482,106.555656 172.886795,107.930534 
	C171.290070,107.449265 169.716278,106.595001 168.340897,105.384941 
	C169.226593,104.548820 169.913879,104.068504 170.601166,103.588181 
	C169.812378,103.018173 169.023590,102.448166 167.854233,101.603149 
	C167.854233,103.290863 167.854233,104.229973 167.854233,105.169083 
	C166.975479,104.845818 166.096741,104.522552 164.995331,104.022522 
z"/>
<path fill="#111111" opacity="1.000000" stroke="none" 
	d="
M160.397522,223.259613 
	C164.707733,219.600571 169.383270,215.919434 174.448822,212.347839 
	C170.146835,216.050766 165.454834,219.644135 160.397522,223.259613 
z"/>
<path fill="#202020" opacity="1.000000" stroke="none" 
	d="
M134.337860,144.230209 
	C137.695328,147.285156 141.146667,150.655014 144.598007,154.024887 
	C144.256683,154.321960 143.915359,154.619034 143.254181,154.965607 
	C140.100128,151.525116 137.265930,148.035126 134.337860,144.230209 
z"/>
<path fill="#1C1C1C" opacity="1.000000" stroke="none" 
	d="
M173.956421,109.393219 
	C178.627747,110.370651 182.584763,112.759285 184.620758,117.902054 
	C181.037292,115.440872 177.563492,112.573341 173.956421,109.393219 
z"/>
<path fill="#111111" opacity="1.000000" stroke="none" 
	d="
M179.896774,146.356903 
	C180.603180,146.298553 181.666824,146.729340 181.628372,146.881393 
	C180.610138,150.907181 179.478149,154.904205 177.994492,158.926605 
	C178.329086,154.870117 179.034760,150.793121 179.896774,146.356903 
z"/>
<path fill="#222222" opacity="1.000000" stroke="none" 
	d="
M125.297707,174.090454 
	C125.329918,172.801712 125.666565,171.654343 126.049065,170.148331 
	C128.794724,169.518906 131.494553,169.248138 134.602478,169.001617 
	C134.201828,169.919510 133.393082,170.813171 131.918747,171.849762 
	C129.809036,172.741562 128.364914,173.490433 126.920792,174.239319 
	C126.481239,174.236832 126.041695,174.234329 125.297707,174.090454 
z"/>
<path fill="#191919" opacity="1.000000" stroke="none" 
	d="
M195.024414,175.994385 
	C196.397125,173.028992 197.769821,170.063583 199.484268,167.040543 
	C198.780182,170.596466 197.734375,174.210037 196.360229,177.755127 
	C195.696075,177.122543 195.360245,176.558472 195.024414,175.994385 
z"/>
<path fill="#111111" opacity="1.000000" stroke="none" 
	d="
M169.778625,193.275085 
	C172.097549,195.356644 170.911652,199.500549 167.347839,201.126099 
	C167.891785,198.524475 168.726089,196.037735 169.778625,193.275085 
z"/>
<path fill="#111111" opacity="1.000000" stroke="none" 
	d="
M174.292786,175.329865 
	C177.291763,176.573135 176.942856,179.369019 173.135742,182.938202 
	C173.206329,180.547272 173.648102,178.116272 174.292786,175.329865 
z"/>
<path fill="#202020" opacity="1.000000" stroke="none" 
	d="
M124.946228,130.365997 
	C129.030243,131.172455 129.790314,134.382996 129.588379,138.109924 
	C127.811569,135.731567 126.366035,133.227997 124.946228,130.365997 
z"/>
<path fill="#111111" opacity="1.000000" stroke="none" 
	d="
M183.155426,203.053635 
	C181.806564,199.045990 184.827194,197.151276 187.856964,195.040329 
	C186.609131,197.634262 184.996750,200.246307 183.155426,203.053635 
z"/>
<path fill="#202020" opacity="1.000000" stroke="none" 
	d="
M123.470184,117.867599 
	C124.147865,121.008240 124.540337,124.459969 124.586685,128.014191 
	C123.888695,124.804016 123.536842,121.491356 123.470184,117.867599 
z"/>
<path fill="#1C1C1C" opacity="1.000000" stroke="none" 
	d="
M193.032562,102.134209 
	C196.068237,105.725700 192.206085,107.453850 190.351685,109.962708 
	C190.945831,107.460869 191.889236,104.920784 193.032562,102.134209 
z"/>
<path fill="#060606" opacity="1.000000" stroke="none" 
	d="
M212.159424,128.588806 
	C214.755814,128.204346 217.724091,127.957039 220.949860,128.056641 
	C218.315353,128.511032 215.423340,128.618500 212.159424,128.588806 
z"/>
<path fill="#111111" opacity="1.000000" stroke="none" 
	d="
M155.000793,221.999207 
	C156.300629,222.319183 157.599686,222.639938 159.085190,223.329865 
	C157.417297,224.512329 155.562958,225.325623 153.470337,225.802765 
	C153.488663,224.643799 153.745255,223.820984 154.001831,222.998169 
	C154.001831,222.998169 154.000000,223.000000 154.219086,222.893524 
	C154.715576,222.590027 154.902237,222.328293 154.998169,222.001831 
	C154.998169,222.001831 155.000000,222.000000 155.000793,221.999207 
z"/>
<path fill="#111111" opacity="1.000000" stroke="none" 
	d="
M194.877182,176.318298 
	C195.360245,176.558472 195.696075,177.122543 196.101456,178.021011 
	C195.545578,180.062958 194.920151,181.770538 194.071594,183.741272 
	C190.287949,181.088867 195.108780,179.176834 194.877182,176.318298 
z"/>
<path fill="#111111" opacity="1.000000" stroke="none" 
	d="
M176.148331,166.145233 
	C179.124603,168.053787 178.644470,170.050751 175.552948,171.956299 
	C175.450012,170.156052 175.715790,168.301651 176.148331,166.145233 
z"/>
<path fill="#1C1C1C" opacity="1.000000" stroke="none" 
	d="
M148.303131,103.921928 
	C148.327850,100.793030 149.641220,99.347641 152.918518,101.583511 
	C151.539154,102.601433 150.075684,103.242493 148.303131,103.921928 
z"/>
<path fill="#111111" opacity="1.000000" stroke="none" 
	d="
M188.944092,194.055878 
	C185.768967,191.166962 188.414978,190.196487 191.048294,189.076965 
	C190.688934,190.672455 189.942398,192.264999 188.944092,194.055878 
z"/>
<path fill="#1C1C1C" opacity="1.000000" stroke="none" 
	d="
M143.087341,111.704773 
	C140.743271,110.263092 140.958405,109.455307 144.603500,107.001205 
	C144.379501,108.453514 143.811234,109.927628 143.087341,111.704773 
z"/>
<path fill="#0A0A0A" opacity="1.000000" stroke="none" 
	d="
M127.249069,174.416504 
	C128.364914,173.490433 129.809036,172.741562 131.622925,171.985657 
	C131.995804,172.154144 131.998917,172.329681 132.008881,173.093170 
	C132.009720,174.115341 132.003708,174.549530 131.997711,174.983734 
	C130.524246,174.853729 129.050797,174.723709 127.249069,174.416504 
z"/>
<path fill="#111111" opacity="1.000000" stroke="none" 
	d="
M177.718063,209.639191 
	C178.461105,208.220642 179.514877,206.645218 180.971176,205.064789 
	C180.258728,206.533951 179.143768,208.008118 177.718063,209.639191 
z"/>
<path fill="#111111" opacity="1.000000" stroke="none" 
	d="
M177.207428,160.182495 
	C177.367462,161.196503 177.406036,162.538864 177.050781,163.919662 
	C176.799973,162.809021 176.942963,161.659943 177.207428,160.182495 
z"/>
<path fill="#222222" opacity="1.000000" stroke="none" 
	d="
M132.388489,175.096283 
	C132.003708,174.549530 132.009720,174.115341 132.012421,173.356476 
	C133.063599,173.030945 134.118057,173.030060 135.569046,173.368835 
	C135.977386,174.136780 135.989182,174.565048 136.000992,174.993317 
	C134.927094,175.065155 133.853180,175.136993 132.388489,175.096283 
z"/>
<path fill="#1C1C1C" opacity="1.000000" stroke="none" 
	d="
M145.263306,120.575226 
	C144.542175,119.934586 143.784119,119.007309 143.364578,117.971191 
	C144.210846,118.671097 144.718613,119.479843 145.263306,120.575226 
z"/>
<path fill="#0A0A0A" opacity="1.000000" stroke="none" 
	d="
M136.335876,175.059814 
	C135.989182,174.565048 135.977386,174.136780 135.964081,173.388321 
	C136.639145,173.459152 137.315735,173.850189 137.997650,174.563263 
	C137.558929,174.965652 137.114853,175.045990 136.335876,175.059814 
z"/>
<path fill="#111111" opacity="1.000000" stroke="none" 
	d="
M171.803238,186.197052 
	C172.526550,186.409378 173.052826,186.818710 173.579102,187.228027 
	C173.059952,187.491257 172.540817,187.754471 171.713226,188.021484 
	C171.471939,187.481522 171.539078,186.937790 171.803238,186.197052 
z"/>
<path fill="#1C1C1C" opacity="1.000000" stroke="none" 
	d="
M143.259399,116.577675 
	C140.974060,116.676521 140.377563,115.821709 142.570557,114.049469 
	C143.034027,114.726173 143.162720,115.464050 143.259399,116.577675 
z"/>
<path fill="#191919" opacity="1.000000" stroke="none" 
	d="
M206.184875,137.671600 
	C205.431412,137.466660 204.830261,136.936920 204.229111,136.407196 
	C204.767212,135.992538 205.305298,135.577866 206.208939,135.201614 
	C206.495377,135.942291 206.416275,136.644562 206.184875,137.671600 
z"/>
<path fill="#111111" opacity="1.000000" stroke="none" 
	d="
M192.052063,188.095215 
	C191.406631,187.893188 190.962219,187.521805 190.517792,187.150406 
	C191.074265,186.768692 191.630753,186.386978 192.547607,185.999756 
	C192.689682,186.638107 192.471390,187.281982 192.052063,188.095215 
z"/>
<path fill="#060606" opacity="1.000000" stroke="none" 
	d="
M153.639984,223.063751 
	C153.745255,223.820984 153.488663,224.643799 153.113220,225.772034 
	C152.859070,226.181320 152.723785,226.285172 152.339508,226.330261 
	C152.486389,225.224121 152.882248,224.176712 153.639984,223.063751 
z"/>
<path fill="#202020" opacity="1.000000" stroke="none" 
	d="
M124.516022,113.864441 
	C124.720299,114.715485 124.649170,115.813797 124.244843,116.948013 
	C124.021301,116.026512 124.130959,115.069115 124.516022,113.864441 
z"/>
<path fill="#191919" opacity="1.000000" stroke="none" 
	d="
M200.873474,163.721039 
	C200.269440,163.643021 199.847733,163.260788 199.426025,162.878571 
	C199.784897,162.601181 200.143753,162.323807 200.796432,162.028931 
	C201.078766,162.479904 201.067276,162.948364 200.873474,163.721039 
z"/>
<path fill="#191919" opacity="1.000000" stroke="none" 
	d="
M201.609955,160.898102 
	C201.345291,160.433548 201.264999,159.748322 201.487640,159.021408 
	C201.791809,159.545639 201.793060,160.111526 201.609955,160.898102 
z"/>
<path fill="#1C1C1C" opacity="1.000000" stroke="none" 
	d="
M186.760605,114.018623 
	C186.291992,114.008827 185.657089,113.742508 185.034454,113.183548 
	C185.562592,113.181305 186.078461,113.471710 186.760605,114.018623 
z"/>
<path fill="#1C1C1C" opacity="1.000000" stroke="none" 
	d="
M160.202881,101.637520 
	C160.129684,101.341553 160.062973,101.000664 159.996262,100.659767 
	C160.148193,100.850296 160.300110,101.040817 160.346100,101.518951 
	C160.240158,101.806557 160.209381,101.592590 160.202881,101.637520 
z"/>
<path fill="#0B0B0B" opacity="1.000000" stroke="none" 
	d="
M232.450638,319.437866 
	C240.861130,321.942261 244.662460,329.171509 242.802307,338.496643 
	C241.399139,345.531036 236.176025,349.721802 229.467453,349.195953 
	C221.305130,348.556091 215.984787,339.212982 218.425644,329.805298 
	C220.271851,322.689484 224.467560,319.472321 232.450638,319.437866 
z"/>
<path fill="#020202" opacity="1.000000" stroke="none" 
	d="
M209.968109,338.740326 
	C209.797501,338.736725 209.678070,338.491241 209.693832,338.143890 
	C209.829025,338.042023 210.019272,338.498444 209.968109,338.740326 
z"/>
<path fill="#020202" opacity="1.000000" stroke="none" 
	d="
M209.951553,329.738342 
	C209.722916,329.806244 209.558838,329.649170 209.438187,329.463837 
	C209.414093,329.426819 209.555847,329.281860 209.774323,329.102478 
	C209.927521,329.018250 210.031372,329.503448 209.951553,329.738342 
z"/>
<path fill="#020202" opacity="1.000000" stroke="none" 
	d="
M308.000000,373.725891 
	C307.093689,373.775909 306.176453,373.540985 305.050842,373.007446 
	C305.672668,372.565857 306.502930,372.422943 307.651489,372.291687 
	C307.976288,372.682556 307.982727,373.061737 308.000000,373.725891 
z"/>
<path fill="#000000" opacity="1.000000" stroke="none" 
	d="
M247.296677,84.574905 
	C246.478699,81.610680 245.778976,78.873978 245.581665,76.101524 
	C245.496780,74.908775 246.644287,73.680618 246.904144,72.401947 
	C248.000671,67.006134 249.900879,66.205139 254.534607,69.316414 
	C258.029449,71.663010 259.329987,77.227898 257.201965,81.467247 
	C255.128357,85.598251 251.725952,86.312958 247.296677,84.574905 
z"/>
<path fill="#060606" opacity="1.000000" stroke="none" 
	d="
M154.778137,222.109009 
	C154.902237,222.328293 154.715576,222.590027 154.218109,222.894531 
	C154.096100,222.676880 154.282791,222.414932 154.778137,222.109009 
z"/>
<path fill="#050505" opacity="1.000000" stroke="none" 
	d="
M167.907654,105.086838 
	C167.854233,104.229973 167.854233,103.290863 167.854233,101.603149 
	C169.023590,102.448166 169.812378,103.018173 170.601166,103.588181 
	C169.913879,104.068504 169.226593,104.548820 168.182709,105.088135 
	C167.826096,105.147118 167.961090,105.004585 167.907654,105.086838 
z"/>
</svg>